M48
; DRILL file KiCad 10.0.6 date 2026-09-11T01:56:38
; FORMAT={-:-/ absolute / metric / decimal}
; #@! TF.CreationDate,2026-09-11T01:56:38+03:00
; #@! TF.GenerationSoftware,Kicad,Pcbnew,10.0.6
; #@! TF.FileFunction,Plated,1,2,PTH
FMAT,2
METRIC
; #@! TA.AperFunction,Plated,PTH,ComponentDrill
T1C0.700
; #@! TA.AperFunction,Plated,PTH,ComponentDrill
T2C0.750
; #@! TA.AperFunction,Plated,PTH,ViaDrill
T3C0.800
; #@! TA.AperFunction,Plated,PTH,ComponentDrill
T4C0.800
; #@! TA.AperFunction,Plated,PTH,ComponentDrill
T5C0.900
; #@! TA.AperFunction,Plated,PTH,ComponentDrill
T6C1.000
; #@! TA.AperFunction,Plated,PTH,ComponentDrill
T7C1.200
; #@! TA.AperFunction,Plated,PTH,ComponentDrill
T8C1.400
; #@! TA.AperFunction,Plated,PTH,ComponentDrill
T9C1.500
; #@! TA.AperFunction,Plated,PTH,ComponentDrill
T10C2.000
; #@! TA.AperFunction,Plated,PTH,ComponentDrill
T11C4.400
%
G90
G05
T1
X106.5Y-78.69
X106.5Y-86.31
X115.88Y-71.5
X115.88Y-75.5
X117.0Y-58.19
X117.0Y-65.81
X120.5Y-58.0
X120.5Y-65.62
X123.5Y-71.5
X123.5Y-75.5
X127.5Y-69.5
X127.5Y-77.12
X133.0Y-56.19
X133.0Y-63.81
X138.0Y-56.19
X138.0Y-63.81
X145.0Y-69.19
X145.0Y-76.81
X158.0Y-67.19
X158.0Y-74.81
X163.5Y-67.38
X163.5Y-75.0
X164.0Y-54.19
X164.0Y-61.81
X167.0Y-67.19
X167.0Y-74.81
X214.0Y-116.0
X214.0Y-120.0
X214.0Y-124.5
X218.0Y-124.5
X218.5Y-116.0
T2
X118.14Y-80.73
X118.14Y-82.0
X118.14Y-83.27
X126.73Y-58.86
X126.73Y-63.14
X128.0Y-58.86
X128.0Y-63.14
X129.27Y-58.86
X129.27Y-63.14
X151.5Y-57.0
X152.77Y-57.0
X154.04Y-57.0
T3
X155.5Y-77.0
X155.5Y-83.0
X164.0Y-83.0
X184.5Y-84.0
X219.0Y-91.0
X219.0Y-95.0
X221.0Y-90.5
T4
X108.5Y-70.0
X108.5Y-72.5
X109.0Y-97.382
X109.0Y-99.882
X109.0Y-129.382
X109.0Y-131.882
X114.5Y-45.0
X114.5Y-47.5
X158.5Y-57.25
X158.5Y-59.75
X159.25Y-77.5
X161.75Y-77.5
X176.25Y-74.5
X178.75Y-74.5
X187.5Y-140.25
X187.5Y-142.75
T5
X110.96Y-82.0
X113.5Y-82.0
T6
X107.5Y-60.5
X111.0Y-60.5
X143.875Y-57.22
X143.875Y-59.5
X143.875Y-61.78
X150.0Y-69.0
X152.5Y-64.0
X155.0Y-69.0
X227.0Y-43.72
X227.0Y-46.0
X227.0Y-48.28
X227.0Y-90.44
X227.0Y-92.72
X227.0Y-95.0
T7
X124.5Y-43.0
X124.5Y-48.0
X137.0Y-70.5
X137.0Y-75.5
X138.185Y-87.5
X143.185Y-87.5
X176.34Y-68.5
X184.34Y-59.5
X184.34Y-78.5
X196.66Y-68.5
X197.5Y-138.5
X197.5Y-143.5
X204.66Y-59.5
X204.66Y-78.5
T8
X120.5Y-118.4
X120.5Y-130.0
X138.5Y-112.0
X138.5Y-130.0
T9
X202.7Y-106.5
X203.2Y-131.5
X225.125Y-54.5
X225.125Y-59.95
X225.125Y-65.4
X225.125Y-73.55
X225.125Y-79.0
X225.125Y-84.45
X225.3Y-106.5
X225.8Y-131.5
T10
X157.5Y-119.895
X157.5Y-129.895
X158.0Y-94.0
X158.0Y-104.0
X185.0Y-119.895
X185.0Y-129.895
X185.5Y-93.395
X185.5Y-103.395
T11
X97.0Y-59.0
X97.0Y-71.0
X97.0Y-95.5
X97.0Y-109.0
X97.0Y-120.0
X97.0Y-133.5
X127.5Y-85.5
X127.5Y-96.0
M30
