%TF.GenerationSoftware,KiCad,Pcbnew,10.0.6*%
%TF.CreationDate,2026-09-11T01:42:07+03:00*%
%TF.ProjectId,STM32 Speaker Protection Controller,53544d33-3220-4537-9065-616b65722050,A*%
%TF.SameCoordinates,Original*%
%TF.FileFunction,Soldermask,Top*%
%TF.FilePolarity,Negative*%
%FSLAX46Y46*%
G04 Gerber Fmt 4.6, Leading zero omitted, Abs format (unit mm)*
G04 Created by KiCad (PCBNEW 10.0.6) date 2026-09-11 01:42:07*
%MOMM*%
%LPD*%
G01*
G04 APERTURE LIST*
G04 Aperture macros list*
%AMRoundRect*
0 Rectangle with rounded corners*
0 $1 Rounding radius*
0 $2 $3 $4 $5 $6 $7 $8 $9 X,Y pos of 4 corners*
0 Add a 4 corners polygon primitive as box body*
4,1,4,$2,$3,$4,$5,$6,$7,$8,$9,$2,$3,0*
0 Add four circle primitives for the rounded corners*
1,1,$1+$1,$2,$3*
1,1,$1+$1,$4,$5*
1,1,$1+$1,$6,$7*
1,1,$1+$1,$8,$9*
0 Add four rect primitives between the rounded corners*
20,1,$1+$1,$2,$3,$4,$5,0*
20,1,$1+$1,$4,$5,$6,$7,0*
20,1,$1+$1,$6,$7,$8,$9,0*
20,1,$1+$1,$8,$9,$2,$3,0*%
G04 Aperture macros list end*
%ADD10RoundRect,0.249998X-3.250002X-3.250002X3.250002X-3.250002X3.250002X3.250002X-3.250002X3.250002X0*%
%ADD11C,1.400000*%
%ADD12C,1.600000*%
%ADD13RoundRect,0.249999X-0.850001X0.850001X-0.850001X-0.850001X0.850001X-0.850001X0.850001X0.850001X0*%
%ADD14C,2.200000*%
%ADD15C,3.200000*%
%ADD16R,2.000000X2.000000*%
%ADD17C,2.000000*%
%ADD18O,2.000000X2.000000*%
%ADD19RoundRect,0.250000X1.050000X-1.050000X1.050000X1.050000X-1.050000X1.050000X-1.050000X-1.050000X0*%
%ADD20C,2.600000*%
%ADD21R,1.500000X1.050000*%
%ADD22O,1.500000X1.050000*%
%ADD23RoundRect,0.250000X-0.550000X0.550000X-0.550000X-0.550000X0.550000X-0.550000X0.550000X0.550000X0*%
%ADD24RoundRect,0.250000X0.550000X0.550000X-0.550000X0.550000X-0.550000X-0.550000X0.550000X-0.550000X0*%
%ADD25R,1.800000X1.800000*%
%ADD26C,1.800000*%
%ADD27RoundRect,0.250001X-0.949999X0.949999X-0.949999X-0.949999X0.949999X-0.949999X0.949999X0.949999X0*%
%ADD28C,2.400000*%
%ADD29RoundRect,0.250000X-0.550000X-0.550000X0.550000X-0.550000X0.550000X0.550000X-0.550000X0.550000X0*%
%ADD30R,2.000000X1.905000*%
%ADD31O,2.000000X1.905000*%
%ADD32RoundRect,0.102000X-1.143000X-1.143000X1.143000X-1.143000X1.143000X1.143000X-1.143000X1.143000X0*%
%ADD33C,2.490000*%
G04 APERTURE END LIST*
D10*
%TO.C,J5*%
X29500000Y-99500000D03*
%TD*%
D11*
%TO.C,R1*%
X38465000Y-99925000D03*
X46085000Y-99925000D03*
%TD*%
D12*
%TO.C,C2*%
X128500000Y-31323959D03*
X128500000Y-36323959D03*
%TD*%
D11*
%TO.C,R5*%
X38380000Y-117500000D03*
X46000000Y-117500000D03*
%TD*%
%TO.C,R12*%
X124500000Y-74750000D03*
X116880000Y-74750000D03*
%TD*%
%TO.C,R21*%
X95250000Y-159750000D03*
X102870000Y-159750000D03*
%TD*%
%TO.C,R13*%
X99500000Y-140250000D03*
X107120000Y-140250000D03*
%TD*%
D13*
%TO.C,D7*%
X38750000Y-165170000D03*
D14*
X38750000Y-175330000D03*
%TD*%
D11*
%TO.C,R20*%
X95500000Y-192000000D03*
X103120000Y-192000000D03*
%TD*%
D15*
%TO.C,REF\u002A\u002A*%
X25250000Y-189000000D03*
%TD*%
D16*
%TO.C,K1*%
X44462500Y-142437500D03*
D17*
X64462500Y-142437500D03*
X69462500Y-142437500D03*
X69462500Y-134937500D03*
X64462500Y-134937500D03*
X44462500Y-134937500D03*
%TD*%
D16*
%TO.C,BR1*%
X102225000Y-32205000D03*
D18*
X102225000Y-37285000D03*
X107305000Y-37285000D03*
X107305000Y-32205000D03*
%TD*%
D11*
%TO.C,R8*%
X48190000Y-117500000D03*
X55810000Y-117500000D03*
%TD*%
%TO.C,R16*%
X59250000Y-160000000D03*
X51630000Y-160000000D03*
%TD*%
D19*
%TO.C,TH2*%
X132500000Y-76000000D03*
D20*
X132500000Y-71000000D03*
%TD*%
D11*
%TO.C,R15*%
X59250000Y-129000000D03*
X51630000Y-129000000D03*
%TD*%
D21*
%TO.C,Q2*%
X48250000Y-161290000D03*
D22*
X48250000Y-160020000D03*
X48250000Y-158750000D03*
%TD*%
D23*
%TO.C,C5*%
X62025000Y-100492621D03*
D12*
X62025000Y-102992621D03*
%TD*%
D21*
%TO.C,Q1*%
X48322500Y-130207500D03*
D22*
X48322500Y-128937500D03*
X48322500Y-127667500D03*
%TD*%
D11*
%TO.C,R7*%
X46000000Y-121250000D03*
X38380000Y-121250000D03*
%TD*%
D10*
%TO.C,J1*%
X23000000Y-43250000D03*
%TD*%
%TO.C,J6*%
X29500000Y-116250000D03*
%TD*%
D12*
%TO.C,C3*%
X134000000Y-43323959D03*
X129000000Y-43323959D03*
%TD*%
D24*
%TO.C,C4*%
X132932379Y-49823959D03*
D12*
X130432379Y-49823959D03*
%TD*%
D24*
%TO.C,D4*%
X56310000Y-113500000D03*
D12*
X48690000Y-113500000D03*
%TD*%
%TO.C,C6*%
X68775000Y-98925000D03*
X68775000Y-103925000D03*
%TD*%
D11*
%TO.C,R4*%
X48250000Y-100000000D03*
X55870000Y-100000000D03*
%TD*%
D15*
%TO.C,REF\u002A\u002A*%
X27000000Y-22500000D03*
%TD*%
D16*
%TO.C,K2*%
X44462500Y-173687500D03*
D17*
X64462500Y-173687500D03*
X69462500Y-173687500D03*
X69462500Y-166187500D03*
X64462500Y-166187500D03*
X44462500Y-166187500D03*
%TD*%
D19*
%TO.C,TH1*%
X132500000Y-64000000D03*
D20*
X132500000Y-59000000D03*
%TD*%
D25*
%TO.C,LED2*%
X109370000Y-176000000D03*
D26*
X106830000Y-176000000D03*
%TD*%
D25*
%TO.C,U2*%
X97750000Y-90750000D03*
D26*
X97750000Y-93290000D03*
X97750000Y-95830000D03*
X97750000Y-98370000D03*
X97750000Y-100910000D03*
X97750000Y-103450000D03*
X97750000Y-105990000D03*
X97750000Y-108530000D03*
X97750000Y-111070000D03*
X97750000Y-113610000D03*
X97750000Y-116150000D03*
X97750000Y-118690000D03*
X97750000Y-121230000D03*
X97750000Y-123770000D03*
X97750000Y-126310000D03*
X112990000Y-90750000D03*
X112990000Y-93290000D03*
X112990000Y-95830000D03*
X112990000Y-98370000D03*
X112990000Y-100910000D03*
X112990000Y-103450000D03*
X112990000Y-105990000D03*
X112990000Y-108530000D03*
X112990000Y-111070000D03*
X112990000Y-113610000D03*
X112990000Y-116150000D03*
X112990000Y-118690000D03*
X112990000Y-121230000D03*
X112990000Y-123770000D03*
X112990000Y-126310000D03*
%TD*%
D10*
%TO.C,J10*%
X28250000Y-169750000D03*
%TD*%
D25*
%TO.C,LED5*%
X109620000Y-159750000D03*
D26*
X107080000Y-159750000D03*
%TD*%
D15*
%TO.C,REF\u002A\u002A*%
X130500000Y-190000000D03*
%TD*%
D11*
%TO.C,R14*%
X113500000Y-140250000D03*
X121120000Y-140250000D03*
%TD*%
%TO.C,R6*%
X38380000Y-113750000D03*
X46000000Y-113750000D03*
%TD*%
D13*
%TO.C,D6*%
X38712500Y-133527500D03*
D14*
X38712500Y-143687500D03*
%TD*%
D11*
%TO.C,R19*%
X95500000Y-184000000D03*
X103120000Y-184000000D03*
%TD*%
D24*
%TO.C,D2*%
X56085000Y-96000000D03*
D12*
X48465000Y-96000000D03*
%TD*%
D27*
%TO.C,C1*%
X118750000Y-31500000D03*
D28*
X118750000Y-36500000D03*
%TD*%
D11*
%TO.C,R11*%
X116880000Y-72500000D03*
X124500000Y-72500000D03*
%TD*%
D23*
%TO.C,C7*%
X61750000Y-116817621D03*
D12*
X61750000Y-119317621D03*
%TD*%
D29*
%TO.C,D5*%
X48190000Y-121500000D03*
D12*
X55810000Y-121500000D03*
%TD*%
D25*
%TO.C,LED4*%
X109390000Y-192000000D03*
D26*
X106850000Y-192000000D03*
%TD*%
D25*
%TO.C,LED1*%
X109390000Y-167750000D03*
D26*
X106850000Y-167750000D03*
%TD*%
D30*
%TO.C,U1*%
X133550000Y-33283959D03*
D31*
X133550000Y-35823959D03*
X133550000Y-38363959D03*
%TD*%
D17*
%TO.C,SW1*%
X100000000Y-145000000D03*
X106500000Y-145000000D03*
X100000000Y-149500000D03*
X106500000Y-149500000D03*
%TD*%
%TO.C,SW2*%
X114000000Y-145000000D03*
X120500000Y-145000000D03*
X114000000Y-149500000D03*
X120500000Y-149500000D03*
%TD*%
D32*
%TO.C,T1*%
X40255000Y-37010000D03*
D33*
X40255000Y-47170000D03*
X40255000Y-57330000D03*
X40255000Y-67490000D03*
X87245000Y-37010000D03*
X87245000Y-47170000D03*
X87245000Y-57330000D03*
X87245000Y-67490000D03*
%TD*%
D10*
%TO.C,J3*%
X23000000Y-55250000D03*
%TD*%
D11*
%TO.C,R10*%
X124250000Y-62500000D03*
X116630000Y-62500000D03*
%TD*%
%TO.C,R2*%
X38405000Y-96175000D03*
X46025000Y-96175000D03*
%TD*%
D25*
%TO.C,LED3*%
X109370000Y-184000000D03*
D26*
X106830000Y-184000000D03*
%TD*%
D11*
%TO.C,R3*%
X46085000Y-104175000D03*
X38465000Y-104175000D03*
%TD*%
D15*
%TO.C,REF\u002A\u002A*%
X133250000Y-22500000D03*
%TD*%
D12*
%TO.C,C8*%
X68750000Y-115750000D03*
X68750000Y-120750000D03*
%TD*%
D29*
%TO.C,D3*%
X48465000Y-103925000D03*
D12*
X56085000Y-103925000D03*
%TD*%
D11*
%TO.C,R17*%
X95000000Y-167750000D03*
X102620000Y-167750000D03*
%TD*%
D10*
%TO.C,J8*%
X29250000Y-137250000D03*
%TD*%
D11*
%TO.C,R9*%
X116630000Y-60250000D03*
X124250000Y-60250000D03*
%TD*%
%TO.C,R18*%
X95250000Y-176000000D03*
X102870000Y-176000000D03*
%TD*%
M02*
