%TF.GenerationSoftware,KiCad,Pcbnew,10.0.6*%
%TF.CreationDate,2026-09-11T01:42:07+03:00*%
%TF.ProjectId,STM32 Speaker Protection Controller,53544d33-3220-4537-9065-616b65722050,A*%
%TF.SameCoordinates,Original*%
%TF.FileFunction,Copper,L1,Top*%
%TF.FilePolarity,Positive*%
%FSLAX46Y46*%
G04 Gerber Fmt 4.6, Leading zero omitted, Abs format (unit mm)*
G04 Created by KiCad (PCBNEW 10.0.6) date 2026-09-11 01:42:07*
%MOMM*%
%LPD*%
G01*
G04 APERTURE LIST*
G04 Aperture macros list*
%AMRoundRect*
0 Rectangle with rounded corners*
0 $1 Rounding radius*
0 $2 $3 $4 $5 $6 $7 $8 $9 X,Y pos of 4 corners*
0 Add a 4 corners polygon primitive as box body*
4,1,4,$2,$3,$4,$5,$6,$7,$8,$9,$2,$3,0*
0 Add four circle primitives for the rounded corners*
1,1,$1+$1,$2,$3*
1,1,$1+$1,$4,$5*
1,1,$1+$1,$6,$7*
1,1,$1+$1,$8,$9*
0 Add four rect primitives between the rounded corners*
20,1,$1+$1,$2,$3,$4,$5,0*
20,1,$1+$1,$4,$5,$6,$7,0*
20,1,$1+$1,$6,$7,$8,$9,0*
20,1,$1+$1,$8,$9,$2,$3,0*%
G04 Aperture macros list end*
%TA.AperFunction,ComponentPad*%
%ADD10RoundRect,0.249998X-3.250002X-3.250002X3.250002X-3.250002X3.250002X3.250002X-3.250002X3.250002X0*%
%TD*%
%TA.AperFunction,ComponentPad*%
%ADD11C,1.400000*%
%TD*%
%TA.AperFunction,ComponentPad*%
%ADD12C,1.600000*%
%TD*%
%TA.AperFunction,ComponentPad*%
%ADD13RoundRect,0.249999X-0.850001X0.850001X-0.850001X-0.850001X0.850001X-0.850001X0.850001X0.850001X0*%
%TD*%
%TA.AperFunction,ComponentPad*%
%ADD14C,2.200000*%
%TD*%
%TA.AperFunction,ComponentPad*%
%ADD15R,2.000000X2.000000*%
%TD*%
%TA.AperFunction,ComponentPad*%
%ADD16C,2.000000*%
%TD*%
%TA.AperFunction,ComponentPad*%
%ADD17O,2.000000X2.000000*%
%TD*%
%TA.AperFunction,ComponentPad*%
%ADD18RoundRect,0.250000X1.050000X-1.050000X1.050000X1.050000X-1.050000X1.050000X-1.050000X-1.050000X0*%
%TD*%
%TA.AperFunction,ComponentPad*%
%ADD19C,2.600000*%
%TD*%
%TA.AperFunction,ComponentPad*%
%ADD20R,1.500000X1.050000*%
%TD*%
%TA.AperFunction,ComponentPad*%
%ADD21O,1.500000X1.050000*%
%TD*%
%TA.AperFunction,ComponentPad*%
%ADD22RoundRect,0.250000X-0.550000X0.550000X-0.550000X-0.550000X0.550000X-0.550000X0.550000X0.550000X0*%
%TD*%
%TA.AperFunction,ComponentPad*%
%ADD23RoundRect,0.250000X0.550000X0.550000X-0.550000X0.550000X-0.550000X-0.550000X0.550000X-0.550000X0*%
%TD*%
%TA.AperFunction,ComponentPad*%
%ADD24R,1.800000X1.800000*%
%TD*%
%TA.AperFunction,ComponentPad*%
%ADD25C,1.800000*%
%TD*%
%TA.AperFunction,ComponentPad*%
%ADD26RoundRect,0.250001X-0.949999X0.949999X-0.949999X-0.949999X0.949999X-0.949999X0.949999X0.949999X0*%
%TD*%
%TA.AperFunction,ComponentPad*%
%ADD27C,2.400000*%
%TD*%
%TA.AperFunction,ComponentPad*%
%ADD28RoundRect,0.250000X-0.550000X-0.550000X0.550000X-0.550000X0.550000X0.550000X-0.550000X0.550000X0*%
%TD*%
%TA.AperFunction,ComponentPad*%
%ADD29R,2.000000X1.905000*%
%TD*%
%TA.AperFunction,ComponentPad*%
%ADD30O,2.000000X1.905000*%
%TD*%
%TA.AperFunction,ComponentPad*%
%ADD31R,2.286000X2.286000*%
%TD*%
%TA.AperFunction,ComponentPad*%
%ADD32C,2.286000*%
%TD*%
%TA.AperFunction,ViaPad*%
%ADD33C,0.600000*%
%TD*%
%TA.AperFunction,ViaPad*%
%ADD34C,0.800000*%
%TD*%
%TA.AperFunction,Conductor*%
%ADD35C,2.400000*%
%TD*%
%TA.AperFunction,Conductor*%
%ADD36C,1.000000*%
%TD*%
G04 APERTURE END LIST*
D10*
%TO.P,J5,1,Pin_1_1*%
%TO.N,Net-(J5-Pin_1)*%
X29500000Y-99500000D03*
%TD*%
D11*
%TO.P,R1,1*%
%TO.N,Net-(J5-Pin_1)*%
X38465000Y-99925000D03*
%TO.P,R1,2*%
%TO.N,Net-(R1-Pad2)*%
X46085000Y-99925000D03*
%TD*%
D12*
%TO.P,C2,1*%
%TO.N,Net-(BR1-+)*%
X128500000Y-31323959D03*
%TO.P,C2,2*%
%TO.N,GND*%
X128500000Y-36323959D03*
%TD*%
D11*
%TO.P,R5,1*%
%TO.N,Net-(J6-Pin_1)*%
X38380000Y-117500000D03*
%TO.P,R5,2*%
%TO.N,Net-(R5-Pad2)*%
X46000000Y-117500000D03*
%TD*%
%TO.P,R12,1*%
%TO.N,TEMP2_ADC*%
X124500000Y-74750000D03*
%TO.P,R12,2*%
%TO.N,GND*%
X116880000Y-74750000D03*
%TD*%
%TO.P,R21,1*%
%TO.N,OVERHEAT_LED*%
X95250000Y-159750000D03*
%TO.P,R21,2*%
%TO.N,Net-(LED5-A)*%
X102870000Y-159750000D03*
%TD*%
%TO.P,R13,1*%
%TO.N,MUTE{slash}ENABLE*%
X99500000Y-140250000D03*
%TO.P,R13,2*%
%TO.N,+3.3V*%
X107120000Y-140250000D03*
%TD*%
D13*
%TO.P,D7,1,K_1*%
%TO.N,+12V*%
X38750000Y-165170000D03*
D14*
%TO.P,D7,2,A_2*%
%TO.N,Net-(D7-A)*%
X38750000Y-175330000D03*
%TD*%
D11*
%TO.P,R20,1*%
%TO.N,WAIT_LED*%
X95500000Y-192000000D03*
%TO.P,R20,2*%
%TO.N,Net-(LED4-A)*%
X103120000Y-192000000D03*
%TD*%
D15*
%TO.P,K1,1,1_1*%
%TO.N,Net-(D6-A)*%
X44462500Y-142437500D03*
D16*
%TO.P,K1,3,3_3*%
%TO.N,Net-(J5-Pin_1)*%
X64462500Y-142437500D03*
%TO.P,K1,4,4_4*%
%TO.N,Net-(J8-Pin_1)*%
X69462500Y-142437500D03*
%TO.P,K1,5,5_5*%
X69462500Y-134937500D03*
%TO.P,K1,6,6_6*%
%TO.N,Net-(J5-Pin_1)*%
X64462500Y-134937500D03*
%TO.P,K1,8,8_8*%
%TO.N,+12V*%
X44462500Y-134937500D03*
%TD*%
D15*
%TO.P,BR1,1,+_1*%
%TO.N,Net-(BR1-+)*%
X102225000Y-32205000D03*
D17*
%TO.P,BR1,2*%
%TO.N,Net-(BR1-Pad2)*%
X102225000Y-37285000D03*
%TO.P,BR1,3,-_3*%
%TO.N,GND*%
X107305000Y-37285000D03*
%TO.P,BR1,4*%
%TO.N,Net-(BR1-Pad4)*%
X107305000Y-32205000D03*
%TD*%
D11*
%TO.P,R8,1*%
%TO.N,Net-(R5-Pad2)*%
X48190000Y-117500000D03*
%TO.P,R8,2*%
%TO.N,DC_SENSE_R*%
X55810000Y-117500000D03*
%TD*%
%TO.P,R16,1*%
%TO.N,RELAY_R_CTRL*%
X59250000Y-160000000D03*
%TO.P,R16,2*%
%TO.N,Net-(Q2-B)*%
X51630000Y-160000000D03*
%TD*%
D18*
%TO.P,TH2,1*%
%TO.N,TEMP2_ADC*%
X132500000Y-76000000D03*
D19*
%TO.P,TH2,2*%
%TO.N,GND*%
X132500000Y-71000000D03*
%TD*%
D11*
%TO.P,R15,1*%
%TO.N,RELAY_L_CTRL*%
X59250000Y-129000000D03*
%TO.P,R15,2*%
%TO.N,Net-(Q1-B)*%
X51630000Y-129000000D03*
%TD*%
D20*
%TO.P,Q2,1,C_1*%
%TO.N,Net-(D7-A)*%
X48250000Y-161290000D03*
D21*
%TO.P,Q2,2,B_2*%
%TO.N,Net-(Q2-B)*%
X48250000Y-160020000D03*
%TO.P,Q2,3,E_3*%
%TO.N,GND*%
X48250000Y-158750000D03*
%TD*%
D22*
%TO.P,C5,1*%
%TO.N,DC_SENSE_L*%
X62025000Y-100492621D03*
D12*
%TO.P,C5,2*%
%TO.N,GND*%
X62025000Y-102992621D03*
%TD*%
D20*
%TO.P,Q1,1,C_1*%
%TO.N,Net-(D6-A)*%
X48322500Y-130207500D03*
D21*
%TO.P,Q1,2,B_2*%
%TO.N,Net-(Q1-B)*%
X48322500Y-128937500D03*
%TO.P,Q1,3,E_3*%
%TO.N,GND*%
X48322500Y-127667500D03*
%TD*%
D11*
%TO.P,R7,1*%
%TO.N,Net-(R5-Pad2)*%
X46000000Y-121250000D03*
%TO.P,R7,2*%
%TO.N,GND*%
X38380000Y-121250000D03*
%TD*%
D10*
%TO.P,J1,1,Pin_1_1*%
%TO.N,Net-(J1-Pin_1)*%
X23000000Y-43250000D03*
%TD*%
%TO.P,J6,1,Pin_1_1*%
%TO.N,Net-(J6-Pin_1)*%
X29500000Y-116250000D03*
%TD*%
D12*
%TO.P,C3,1*%
%TO.N,+12V*%
X134000000Y-43323959D03*
%TO.P,C3,2*%
%TO.N,GND*%
X129000000Y-43323959D03*
%TD*%
D23*
%TO.P,C4,1*%
%TO.N,+12V*%
X132932379Y-49823959D03*
D12*
%TO.P,C4,2*%
%TO.N,GND*%
X130432379Y-49823959D03*
%TD*%
D23*
%TO.P,D4,1,K_1*%
%TO.N,+3.3V*%
X56310000Y-113500000D03*
D12*
%TO.P,D4,2,A_2*%
%TO.N,DC_SENSE_R*%
X48690000Y-113500000D03*
%TD*%
%TO.P,C6,1*%
%TO.N,DC_SENSE_L*%
X68775000Y-98925000D03*
%TO.P,C6,2*%
%TO.N,GND*%
X68775000Y-103925000D03*
%TD*%
D11*
%TO.P,R4,1*%
%TO.N,Net-(R1-Pad2)*%
X48250000Y-100000000D03*
%TO.P,R4,2*%
%TO.N,DC_SENSE_L*%
X55870000Y-100000000D03*
%TD*%
D15*
%TO.P,K2,1,1_1*%
%TO.N,Net-(D7-A)*%
X44462500Y-173687500D03*
D16*
%TO.P,K2,3,3_3*%
%TO.N,Net-(J6-Pin_1)*%
X64462500Y-173687500D03*
%TO.P,K2,4,4_4*%
%TO.N,Net-(J10-Pin_1)*%
X69462500Y-173687500D03*
%TO.P,K2,5,5_5*%
X69462500Y-166187500D03*
%TO.P,K2,6,6_6*%
%TO.N,Net-(J6-Pin_1)*%
X64462500Y-166187500D03*
%TO.P,K2,8,8_8*%
%TO.N,+12V*%
X44462500Y-166187500D03*
%TD*%
D18*
%TO.P,TH1,1*%
%TO.N,TEMP1_ADC*%
X132500000Y-64000000D03*
D19*
%TO.P,TH1,2*%
%TO.N,GND*%
X132500000Y-59000000D03*
%TD*%
D24*
%TO.P,LED2,1,K_1*%
%TO.N,GND*%
X109370000Y-176000000D03*
D25*
%TO.P,LED2,2,A_2*%
%TO.N,Net-(LED2-A)*%
X106830000Y-176000000D03*
%TD*%
D24*
%TO.P,U2,1,D1_PB6_1*%
%TO.N,unconnected-(U2-D1_PB6-Pad1)*%
X97750000Y-90750000D03*
D25*
%TO.P,U2,2,D0_PB7_2*%
%TO.N,unconnected-(U2-D0_PB7-Pad2)*%
X97750000Y-93290000D03*
%TO.P,U2,3,NRST_3*%
%TO.N,unconnected-(U2-NRST-Pad3)*%
X97750000Y-95830000D03*
%TO.P,U2,4,GND_4*%
%TO.N,unconnected-(U2-GND-Pad4)*%
X97750000Y-98370000D03*
%TO.P,U2,5,D2_PA15_5*%
%TO.N,unconnected-(U2-D2_PA15-Pad5)*%
X97750000Y-100910000D03*
%TO.P,U2,6,D3_PB1_6*%
%TO.N,FAULT_RESET*%
X97750000Y-103450000D03*
%TO.P,U2,7,D4_PA10_7*%
%TO.N,unconnected-(U2-D4_PA10-Pad7)*%
X97750000Y-105990000D03*
%TO.P,U2,8,D5_PA9_8*%
%TO.N,RELAY_R_CTRL*%
X97750000Y-108530000D03*
%TO.P,U2,9,D6_PB0_9*%
%TO.N,MUTE{slash}ENABLE*%
X97750000Y-111070000D03*
%TO.P,U2,10,D7_PB2_10*%
%TO.N,unconnected-(U2-D7_PB2-Pad10)*%
X97750000Y-113610000D03*
%TO.P,U2,11,D8_PB8_11*%
%TO.N,TEMP1_FAIL_LED*%
X97750000Y-116150000D03*
%TO.P,U2,12,D9_PA8_12*%
%TO.N,RELAY_L_CTRL*%
X97750000Y-118690000D03*
%TO.P,U2,13,D10_PB9_13*%
%TO.N,TEMP2_FAIL_LED*%
X97750000Y-121230000D03*
%TO.P,U2,14,D11_PB5_14*%
%TO.N,unconnected-(U2-D11_PB5-Pad14)*%
X97750000Y-123770000D03*
%TO.P,U2,15,D12_PB4_15*%
%TO.N,OVERHEAT_LED*%
X97750000Y-126310000D03*
%TO.P,U2,16,VIN_16*%
%TO.N,+12V*%
X112990000Y-90750000D03*
%TO.P,U2,17,GND_17*%
%TO.N,GND*%
X112990000Y-93290000D03*
%TO.P,U2,18,NRST_18*%
%TO.N,unconnected-(U2-NRST-Pad18)*%
X112990000Y-95830000D03*
%TO.P,U2,19,+5V_19*%
%TO.N,unconnected-(U2-+5V-Pad19)*%
X112990000Y-98370000D03*
%TO.P,U2,20,A7_PA7_20*%
%TO.N,unconnected-(U2-A7_PA7-Pad20)*%
X112990000Y-100910000D03*
%TO.P,U2,21,A6_PA6_21*%
%TO.N,unconnected-(U2-A6_PA6-Pad21)*%
X112990000Y-103450000D03*
%TO.P,U2,22,A5_PA11_22*%
%TO.N,DC_FAULT_LED*%
X112990000Y-105990000D03*
%TO.P,U2,23,A4_PA12_23*%
%TO.N,WAIT_LED*%
X112990000Y-108530000D03*
%TO.P,U2,24,A3_PA5_24*%
%TO.N,DC_SENSE_R*%
X112990000Y-111070000D03*
%TO.P,U2,25,A2_PA4_25*%
%TO.N,DC_SENSE_L*%
X112990000Y-113610000D03*
%TO.P,U2,26,A1_PA1_26*%
%TO.N,TEMP2_ADC*%
X112990000Y-116150000D03*
%TO.P,U2,27,A0_PA0_27*%
%TO.N,TEMP1_ADC*%
X112990000Y-118690000D03*
%TO.P,U2,28,AREF_28*%
%TO.N,unconnected-(U2-AREF-Pad28)*%
X112990000Y-121230000D03*
%TO.P,U2,29,+3V3_29*%
%TO.N,+3.3V*%
X112990000Y-123770000D03*
%TO.P,U2,30,D13_PB3_30*%
%TO.N,unconnected-(U2-D13_PB3-Pad30)*%
X112990000Y-126310000D03*
%TD*%
D10*
%TO.P,J10,1,Pin_1_1*%
%TO.N,Net-(J10-Pin_1)*%
X28250000Y-169750000D03*
%TD*%
D24*
%TO.P,LED5,1,K_1*%
%TO.N,GND*%
X109620000Y-159750000D03*
D25*
%TO.P,LED5,2,A_2*%
%TO.N,Net-(LED5-A)*%
X107080000Y-159750000D03*
%TD*%
D11*
%TO.P,R14,1*%
%TO.N,FAULT_RESET*%
X113500000Y-140250000D03*
%TO.P,R14,2*%
%TO.N,+3.3V*%
X121120000Y-140250000D03*
%TD*%
%TO.P,R6,1*%
%TO.N,+3.3V*%
X38380000Y-113750000D03*
%TO.P,R6,2*%
%TO.N,Net-(R5-Pad2)*%
X46000000Y-113750000D03*
%TD*%
D13*
%TO.P,D6,1,K_1*%
%TO.N,+12V*%
X38712500Y-133527500D03*
D14*
%TO.P,D6,2,A_2*%
%TO.N,Net-(D6-A)*%
X38712500Y-143687500D03*
%TD*%
D11*
%TO.P,R19,1*%
%TO.N,DC_FAULT_LED*%
X95500000Y-184000000D03*
%TO.P,R19,2*%
%TO.N,Net-(LED3-A)*%
X103120000Y-184000000D03*
%TD*%
D23*
%TO.P,D2,1,K_1*%
%TO.N,+3.3V*%
X56085000Y-96000000D03*
D12*
%TO.P,D2,2,A_2*%
%TO.N,DC_SENSE_L*%
X48465000Y-96000000D03*
%TD*%
D26*
%TO.P,C1,1*%
%TO.N,Net-(BR1-+)*%
X118750000Y-31500000D03*
D27*
%TO.P,C1,2*%
%TO.N,GND*%
X118750000Y-36500000D03*
%TD*%
D11*
%TO.P,R11,1*%
%TO.N,+3.3V*%
X116880000Y-72500000D03*
%TO.P,R11,2*%
%TO.N,TEMP2_ADC*%
X124500000Y-72500000D03*
%TD*%
D22*
%TO.P,C7,1*%
%TO.N,DC_SENSE_R*%
X61750000Y-116817621D03*
D12*
%TO.P,C7,2*%
%TO.N,GND*%
X61750000Y-119317621D03*
%TD*%
D28*
%TO.P,D5,1,K_1*%
%TO.N,DC_SENSE_R*%
X48190000Y-121500000D03*
D12*
%TO.P,D5,2,A_2*%
%TO.N,GND*%
X55810000Y-121500000D03*
%TD*%
D24*
%TO.P,LED4,1,K_1*%
%TO.N,GND*%
X109390000Y-192000000D03*
D25*
%TO.P,LED4,2,A_2*%
%TO.N,Net-(LED4-A)*%
X106850000Y-192000000D03*
%TD*%
D24*
%TO.P,LED1,1,K_1*%
%TO.N,GND*%
X109390000Y-167750000D03*
D25*
%TO.P,LED1,2,A_2*%
%TO.N,Net-(LED1-A)*%
X106850000Y-167750000D03*
%TD*%
D29*
%TO.P,U1,1,IN_1*%
%TO.N,Net-(BR1-+)*%
X133550000Y-33283959D03*
D30*
%TO.P,U1,2,GND_2*%
%TO.N,GND*%
X133550000Y-35823959D03*
%TO.P,U1,3,OUT_3*%
%TO.N,+12V*%
X133550000Y-38363959D03*
%TD*%
D16*
%TO.P,SW1,1,1_1*%
%TO.N,GND*%
X100000000Y-145000000D03*
X106500000Y-145000000D03*
%TO.P,SW1,2,2_2*%
%TO.N,MUTE{slash}ENABLE*%
X100000000Y-149500000D03*
X106500000Y-149500000D03*
%TD*%
%TO.P,SW2,1,1_1*%
%TO.N,GND*%
X114000000Y-145000000D03*
X120500000Y-145000000D03*
%TO.P,SW2,2,2_2*%
%TO.N,FAULT_RESET*%
X114000000Y-149500000D03*
X120500000Y-149500000D03*
%TD*%
D31*
%TO.P,T1,1*%
%TO.N,Net-(J1-Pin_1)*%
X40255000Y-37010000D03*
D32*
%TO.P,T1,2*%
%TO.N,Net-(T1-Pad2)*%
X40255000Y-47170000D03*
%TO.P,T1,3*%
X40255000Y-57330000D03*
%TO.P,T1,4*%
%TO.N,Net-(J3-Pin_1)*%
X40255000Y-67490000D03*
%TO.P,T1,5*%
%TO.N,Net-(BR1-Pad4)*%
X87245000Y-37010000D03*
%TO.P,T1,6*%
%TO.N,Net-(BR1-Pad2)*%
X87245000Y-47170000D03*
%TO.P,T1,7*%
%TO.N,Net-(BR1-Pad4)*%
X87245000Y-57330000D03*
%TO.P,T1,8*%
%TO.N,Net-(BR1-Pad2)*%
X87245000Y-67490000D03*
%TD*%
D10*
%TO.P,J3,1,Pin_1_1*%
%TO.N,Net-(J3-Pin_1)*%
X23000000Y-55250000D03*
%TD*%
D11*
%TO.P,R10,1*%
%TO.N,TEMP1_ADC*%
X124250000Y-62500000D03*
%TO.P,R10,2*%
%TO.N,GND*%
X116630000Y-62500000D03*
%TD*%
%TO.P,R2,1*%
%TO.N,+3.3V*%
X38405000Y-96175000D03*
%TO.P,R2,2*%
%TO.N,Net-(R1-Pad2)*%
X46025000Y-96175000D03*
%TD*%
D24*
%TO.P,LED3,1,K_1*%
%TO.N,GND*%
X109370000Y-184000000D03*
D25*
%TO.P,LED3,2,A_2*%
%TO.N,Net-(LED3-A)*%
X106830000Y-184000000D03*
%TD*%
D11*
%TO.P,R3,1*%
%TO.N,Net-(R1-Pad2)*%
X46085000Y-104175000D03*
%TO.P,R3,2*%
%TO.N,GND*%
X38465000Y-104175000D03*
%TD*%
D12*
%TO.P,C8,1*%
%TO.N,DC_SENSE_R*%
X68750000Y-115750000D03*
%TO.P,C8,2*%
%TO.N,GND*%
X68750000Y-120750000D03*
%TD*%
D28*
%TO.P,D3,1,K_1*%
%TO.N,DC_SENSE_L*%
X48465000Y-103925000D03*
D12*
%TO.P,D3,2,A_2*%
%TO.N,GND*%
X56085000Y-103925000D03*
%TD*%
D11*
%TO.P,R17,1*%
%TO.N,TEMP2_FAIL_LED*%
X95000000Y-167750000D03*
%TO.P,R17,2*%
%TO.N,Net-(LED1-A)*%
X102620000Y-167750000D03*
%TD*%
D10*
%TO.P,J8,1,Pin_1_1*%
%TO.N,Net-(J8-Pin_1)*%
X29250000Y-137250000D03*
%TD*%
D11*
%TO.P,R9,1*%
%TO.N,+3.3V*%
X116630000Y-60250000D03*
%TO.P,R9,2*%
%TO.N,TEMP1_ADC*%
X124250000Y-60250000D03*
%TD*%
%TO.P,R18,1*%
%TO.N,TEMP1_FAIL_LED*%
X95250000Y-176000000D03*
%TO.P,R18,2*%
%TO.N,Net-(LED2-A)*%
X102870000Y-176000000D03*
%TD*%
D33*
%TO.N,+12V*%
X111500000Y-76250000D03*
D34*
%TO.N,DC_SENSE_L*%
X75750000Y-99000000D03*
%TD*%
%TO.N,Net-(J5-Pin_1)*%
D35*
X23750000Y-100500000D02*
X24750000Y-99500000D01*
X64462500Y-142437500D02*
X64462500Y-146287500D01*
X23750000Y-147000000D02*
X23750000Y-100500000D01*
D36*
X29500000Y-99500000D02*
X38040000Y-99500000D01*
D35*
X64462500Y-142437500D02*
X64462500Y-134937500D01*
X64462500Y-146287500D02*
X63750000Y-147000000D01*
D36*
X38040000Y-99500000D02*
X38465000Y-99925000D01*
D35*
X63750000Y-147000000D02*
X23750000Y-147000000D01*
X24750000Y-99500000D02*
X29500000Y-99500000D01*
%TO.N,Net-(R1-Pad2)*%
D36*
X48175000Y-99925000D02*
X48250000Y-100000000D01*
X46085000Y-99925000D02*
X48175000Y-99925000D01*
X46085000Y-96235000D02*
X46025000Y-96175000D01*
X46085000Y-99925000D02*
X46085000Y-96235000D01*
X46085000Y-104175000D02*
X46085000Y-99925000D01*
%TO.N,Net-(BR1-+)*%
X131590000Y-31323959D02*
X133550000Y-33283959D01*
X128500000Y-31323959D02*
X131590000Y-31323959D01*
X118750000Y-31500000D02*
X128323959Y-31500000D01*
X128323959Y-31500000D02*
X128500000Y-31323959D01*
%TO.N,Net-(J6-Pin_1)*%
X29500000Y-116250000D02*
X37130000Y-116250000D01*
X37130000Y-116250000D02*
X38380000Y-117500000D01*
D35*
X64462500Y-166187500D02*
X64462500Y-173687500D01*
%TO.N,Net-(R5-Pad2)*%
D36*
X48190000Y-117500000D02*
X46000000Y-117500000D01*
X46000000Y-121250000D02*
X46000000Y-117500000D01*
X46000000Y-117500000D02*
X46000000Y-113750000D01*
%TO.N,TEMP2_ADC*%
X116000000Y-77750000D02*
X125750000Y-77750000D01*
X112990000Y-116150000D02*
X110400000Y-116150000D01*
X124500000Y-74750000D02*
X124500000Y-72500000D01*
X107250000Y-113000000D02*
X107250000Y-73750000D01*
X125750000Y-76000000D02*
X124500000Y-74750000D01*
X107250000Y-73750000D02*
X112000000Y-73750000D01*
X110400000Y-116150000D02*
X107250000Y-113000000D01*
X112000000Y-73750000D02*
X116000000Y-77750000D01*
X125750000Y-77750000D02*
X125750000Y-76000000D01*
X132500000Y-76000000D02*
X125750000Y-76000000D01*
%TO.N,OVERHEAT_LED*%
X94250000Y-158750000D02*
X95250000Y-159750000D01*
X97750000Y-126310000D02*
X94250000Y-129810000D01*
X94250000Y-129810000D02*
X94250000Y-158750000D01*
%TO.N,Net-(LED5-A)*%
X102870000Y-159750000D02*
X107080000Y-159750000D01*
%TO.N,MUTE{slash}ENABLE*%
X97250000Y-140250000D02*
X97250000Y-147500000D01*
X98250000Y-148500000D02*
X99000000Y-148500000D01*
X97750000Y-111070000D02*
X100570000Y-111070000D01*
X99000000Y-148500000D02*
X100000000Y-149500000D01*
X100750000Y-111250000D02*
X100750000Y-139000000D01*
X106500000Y-149500000D02*
X100000000Y-149500000D01*
X99500000Y-140250000D02*
X97250000Y-140250000D01*
X100570000Y-111070000D02*
X100750000Y-111250000D01*
X100750000Y-139000000D02*
X99500000Y-140250000D01*
X97250000Y-147500000D02*
X98250000Y-148500000D01*
%TO.N,+12V*%
X111500000Y-89260000D02*
X112990000Y-90750000D01*
X44462500Y-134937500D02*
X40122500Y-134937500D01*
X44462500Y-166187500D02*
X39767500Y-166187500D01*
X40122500Y-134937500D02*
X38712500Y-133527500D01*
X134000000Y-48756338D02*
X132932379Y-49823959D01*
X39767500Y-166187500D02*
X38750000Y-165170000D01*
X111500000Y-76250000D02*
X111500000Y-89260000D01*
X134000000Y-43323959D02*
X134000000Y-48756338D01*
X133550000Y-38363959D02*
X133550000Y-42873959D01*
X133550000Y-42873959D02*
X134000000Y-43323959D01*
%TO.N,Net-(D7-A)*%
X44462500Y-173687500D02*
X40392500Y-173687500D01*
X40392500Y-173687500D02*
X38750000Y-175330000D01*
X48250000Y-169900000D02*
X44462500Y-173687500D01*
X48250000Y-161290000D02*
X48250000Y-169900000D01*
%TO.N,WAIT_LED*%
X122520000Y-173980000D02*
X116500000Y-180000000D01*
X112990000Y-108530000D02*
X116780000Y-108530000D01*
X93250000Y-180000000D02*
X93250000Y-190000000D01*
X93500000Y-190000000D02*
X95500000Y-192000000D01*
X93250000Y-190000000D02*
X93500000Y-190000000D01*
X116500000Y-180000000D02*
X93250000Y-180000000D01*
X122520000Y-114270000D02*
X122520000Y-173980000D01*
X116780000Y-108530000D02*
X122520000Y-114270000D01*
%TO.N,Net-(LED4-A)*%
X106850000Y-192000000D02*
X103120000Y-192000000D01*
%TO.N,Net-(D6-A)*%
X39962500Y-142437500D02*
X38712500Y-143687500D01*
X48322500Y-138577500D02*
X44462500Y-142437500D01*
X44462500Y-142437500D02*
X39962500Y-142437500D01*
X48322500Y-130207500D02*
X48322500Y-138577500D01*
%TO.N,Net-(J8-Pin_1)*%
D35*
X69250000Y-125500000D02*
X35250000Y-125500000D01*
X69462500Y-142437500D02*
X69462500Y-134937500D01*
X69462500Y-125712500D02*
X69250000Y-125500000D01*
X35250000Y-125500000D02*
X29250000Y-131500000D01*
X29250000Y-131500000D02*
X29250000Y-137250000D01*
X69462500Y-134937500D02*
X69462500Y-125712500D01*
%TO.N,Net-(BR1-Pad2)*%
D36*
X91250000Y-51175000D02*
X91250000Y-48260000D01*
X91250000Y-51175000D02*
X91250000Y-64000000D01*
X91250000Y-48260000D02*
X102225000Y-37285000D01*
X90735000Y-64000000D02*
X87245000Y-67490000D01*
X87245000Y-47170000D02*
X91250000Y-51175000D01*
X91250000Y-64000000D02*
X90735000Y-64000000D01*
%TO.N,Net-(BR1-Pad4)*%
X101850000Y-26750000D02*
X107305000Y-32205000D01*
X87245000Y-37010000D02*
X92250000Y-32005000D01*
X77000000Y-47085000D02*
X87245000Y-57330000D01*
X87245000Y-37010000D02*
X78490000Y-37010000D01*
X92250000Y-26750000D02*
X101850000Y-26750000D01*
X78490000Y-37010000D02*
X77000000Y-38500000D01*
X77000000Y-38500000D02*
X77000000Y-47085000D01*
X92250000Y-32005000D02*
X92250000Y-26750000D01*
%TO.N,DC_SENSE_R*%
X55810000Y-117500000D02*
X61067621Y-117500000D01*
X51810000Y-121500000D02*
X55810000Y-117500000D01*
X61067621Y-117500000D02*
X61750000Y-116817621D01*
X55810000Y-117500000D02*
X52690000Y-117500000D01*
X48190000Y-121500000D02*
X51810000Y-121500000D01*
X61750000Y-116817621D02*
X67682379Y-116817621D01*
X52690000Y-117500000D02*
X48690000Y-113500000D01*
X67682379Y-116817621D02*
X68750000Y-115750000D01*
%TO.N,RELAY_R_CTRL*%
X75000000Y-160000000D02*
X59250000Y-160000000D01*
X75000000Y-109500000D02*
X75000000Y-160000000D01*
X97750000Y-108530000D02*
X94720000Y-108530000D01*
X93750000Y-109500000D02*
X75000000Y-109500000D01*
X94720000Y-108530000D02*
X93750000Y-109500000D01*
%TO.N,Net-(Q2-B)*%
X51630000Y-160000000D02*
X48270000Y-160000000D01*
X48270000Y-160000000D02*
X48250000Y-160020000D01*
%TO.N,Net-(Q1-B)*%
X51630000Y-129000000D02*
X51567500Y-128937500D01*
X51567500Y-128937500D02*
X48322500Y-128937500D01*
%TO.N,DC_SENSE_L*%
X61532379Y-100000000D02*
X62025000Y-100492621D01*
X51945000Y-103925000D02*
X55870000Y-100000000D01*
X55870000Y-100000000D02*
X61532379Y-100000000D01*
X48465000Y-103925000D02*
X51945000Y-103925000D01*
X49250000Y-96000000D02*
X48465000Y-96000000D01*
X53250000Y-100000000D02*
X49250000Y-96000000D01*
X55870000Y-100000000D02*
X53250000Y-100000000D01*
X75750000Y-99000000D02*
X68850000Y-99000000D01*
X68850000Y-99000000D02*
X68775000Y-98925000D01*
X62025000Y-100492621D02*
X67207379Y-100492621D01*
X67207379Y-100492621D02*
X68775000Y-98925000D01*
%TO.N,Net-(J1-Pin_1)*%
X23000000Y-43250000D02*
X34015000Y-43250000D01*
X34015000Y-43250000D02*
X40255000Y-37010000D01*
%TO.N,Net-(J10-Pin_1)*%
D35*
X69462500Y-166187500D02*
X69462500Y-173687500D01*
X28250000Y-176500000D02*
X28250000Y-169750000D01*
X66500000Y-180250000D02*
X32000000Y-180250000D01*
X69462500Y-177287500D02*
X66500000Y-180250000D01*
X69462500Y-173687500D02*
X69462500Y-177287500D01*
X32000000Y-180250000D02*
X28250000Y-176500000D01*
%TO.N,TEMP1_ADC*%
D36*
X127250000Y-65000000D02*
X127250000Y-64000000D01*
X105500000Y-117750000D02*
X105500000Y-68250000D01*
X132500000Y-64000000D02*
X127250000Y-64000000D01*
X106440000Y-118690000D02*
X105500000Y-117750000D01*
X124250000Y-60250000D02*
X124250000Y-62500000D01*
X112990000Y-118690000D02*
X106440000Y-118690000D01*
X108000000Y-65750000D02*
X126500000Y-65750000D01*
X105500000Y-68250000D02*
X108000000Y-65750000D01*
X125750000Y-64000000D02*
X124250000Y-62500000D01*
X127250000Y-64000000D02*
X125750000Y-64000000D01*
X126500000Y-65750000D02*
X127250000Y-65000000D01*
%TO.N,Net-(LED2-A)*%
X106830000Y-176000000D02*
X102870000Y-176000000D01*
%TO.N,FAULT_RESET*%
X113500000Y-140250000D02*
X111250000Y-140250000D01*
X107750000Y-133500000D02*
X110750000Y-136500000D01*
X97750000Y-103450000D02*
X97750000Y-103500000D01*
X111000000Y-140000000D02*
X110750000Y-140250000D01*
X110750000Y-147500000D02*
X112000000Y-147500000D01*
X110750000Y-136500000D02*
X110750000Y-140250000D01*
X112000000Y-147500000D02*
X114000000Y-149500000D01*
X111250000Y-140250000D02*
X111000000Y-140000000D01*
X102750000Y-108500000D02*
X102750000Y-133500000D01*
X110750000Y-140250000D02*
X110750000Y-147500000D01*
X120500000Y-149500000D02*
X114000000Y-149500000D01*
X102750000Y-133500000D02*
X107750000Y-133500000D01*
X97750000Y-103500000D02*
X102750000Y-108500000D01*
%TO.N,TEMP1_FAIL_LED*%
X88250000Y-173750000D02*
X93000000Y-173750000D01*
X97750000Y-116150000D02*
X90850000Y-116150000D01*
X93000000Y-173750000D02*
X95250000Y-176000000D01*
X88250000Y-118750000D02*
X88250000Y-173750000D01*
X90850000Y-116150000D02*
X88250000Y-118750000D01*
%TO.N,TEMP2_FAIL_LED*%
X97980000Y-121230000D02*
X98000000Y-121250000D01*
X92250000Y-127250000D02*
X92250000Y-165000000D01*
X97750000Y-121500000D02*
X94750000Y-121500000D01*
X97750000Y-121230000D02*
X97980000Y-121230000D01*
X92250000Y-165000000D02*
X95000000Y-167750000D01*
X98000000Y-121250000D02*
X97750000Y-121500000D01*
X94750000Y-121500000D02*
X94750000Y-124750000D01*
X94750000Y-124750000D02*
X92250000Y-127250000D01*
%TO.N,DC_FAULT_LED*%
X118000000Y-182250000D02*
X95750000Y-182250000D01*
X125250000Y-112750000D02*
X125250000Y-175000000D01*
X125250000Y-175000000D02*
X118000000Y-182250000D01*
X95500000Y-182500000D02*
X95500000Y-184000000D01*
X95750000Y-182250000D02*
X95500000Y-182500000D01*
X112990000Y-105990000D02*
X118490000Y-105990000D01*
X118490000Y-105990000D02*
X125250000Y-112750000D01*
%TO.N,Net-(LED3-A)*%
X106830000Y-184000000D02*
X103120000Y-184000000D01*
%TO.N,Net-(LED1-A)*%
X106850000Y-167750000D02*
X102620000Y-167750000D01*
%TO.N,Net-(T1-Pad2)*%
X40255000Y-57330000D02*
X40255000Y-47170000D01*
%TO.N,Net-(J3-Pin_1)*%
X28015000Y-55250000D02*
X40255000Y-67490000D01*
X23000000Y-55250000D02*
X28015000Y-55250000D01*
%TD*%
M02*
