%TF.GenerationSoftware,KiCad,Pcbnew,10.0.6*%
%TF.CreationDate,2026-09-12T14:19:38+03:00*%
%TF.ProjectId,Power Amplifier Rod Elltior Project 3A,506f7765-7220-4416-9d70-6c6966696572,1*%
%TF.SameCoordinates,Original*%
%TF.FileFunction,Copper,L2,Bot*%
%TF.FilePolarity,Positive*%
%FSLAX46Y46*%
G04 Gerber Fmt 4.6, Leading zero omitted, Abs format (unit mm)*
G04 Created by KiCad (PCBNEW 10.0.6) date 2026-09-12 14:19:38*
%MOMM*%
%LPD*%
G01*
G04 APERTURE LIST*
G04 Aperture macros list*
%AMRoundRect*
0 Rectangle with rounded corners*
0 $1 Rounding radius*
0 $2 $3 $4 $5 $6 $7 $8 $9 X,Y pos of 4 corners*
0 Add a 4 corners polygon primitive as box body*
4,1,4,$2,$3,$4,$5,$6,$7,$8,$9,$2,$3,0*
0 Add four circle primitives for the rounded corners*
1,1,$1+$1,$2,$3*
1,1,$1+$1,$4,$5*
1,1,$1+$1,$6,$7*
1,1,$1+$1,$8,$9*
0 Add four rect primitives between the rounded corners*
20,1,$1+$1,$2,$3,$4,$5,0*
20,1,$1+$1,$4,$5,$6,$7,0*
20,1,$1+$1,$6,$7,$8,$9,0*
20,1,$1+$1,$8,$9,$2,$3,0*%
G04 Aperture macros list end*
%TA.AperFunction,ComponentPad*%
%ADD10R,1.560000X1.560000*%
%TD*%
%TA.AperFunction,ComponentPad*%
%ADD11C,1.560000*%
%TD*%
%TA.AperFunction,ComponentPad*%
%ADD12RoundRect,0.250000X-1.750000X1.750000X-1.750000X-1.750000X1.750000X-1.750000X1.750000X1.750000X0*%
%TD*%
%TA.AperFunction,ComponentPad*%
%ADD13C,4.000000*%
%TD*%
%TA.AperFunction,ComponentPad*%
%ADD14RoundRect,0.249998X-3.250002X-3.250002X3.250002X-3.250002X3.250002X3.250002X-3.250002X3.250002X0*%
%TD*%
%TA.AperFunction,ComponentPad*%
%ADD15C,1.400000*%
%TD*%
%TA.AperFunction,ComponentPad*%
%ADD16R,1.800000X1.710000*%
%TD*%
%TA.AperFunction,ComponentPad*%
%ADD17O,1.800000X1.710000*%
%TD*%
%TA.AperFunction,ComponentPad*%
%ADD18R,1.800000X1.800000*%
%TD*%
%TA.AperFunction,ComponentPad*%
%ADD19C,1.800000*%
%TD*%
%TA.AperFunction,ComponentPad*%
%ADD20C,1.600000*%
%TD*%
%TA.AperFunction,ComponentPad*%
%ADD21RoundRect,0.250001X0.949999X-0.949999X0.949999X0.949999X-0.949999X0.949999X-0.949999X-0.949999X0*%
%TD*%
%TA.AperFunction,ComponentPad*%
%ADD22C,2.400000*%
%TD*%
%TA.AperFunction,ComponentPad*%
%ADD23C,3.000000*%
%TD*%
%TA.AperFunction,ComponentPad*%
%ADD24R,1.050000X1.500000*%
%TD*%
%TA.AperFunction,ComponentPad*%
%ADD25O,1.050000X1.500000*%
%TD*%
%TA.AperFunction,ComponentPad*%
%ADD26R,4.500000X2.500000*%
%TD*%
%TA.AperFunction,ComponentPad*%
%ADD27O,4.500000X2.500000*%
%TD*%
%TA.AperFunction,ComponentPad*%
%ADD28RoundRect,0.250000X-0.600000X-0.600000X0.600000X-0.600000X0.600000X0.600000X-0.600000X0.600000X0*%
%TD*%
%TA.AperFunction,ComponentPad*%
%ADD29RoundRect,0.250001X-0.949999X-0.949999X0.949999X-0.949999X0.949999X0.949999X-0.949999X0.949999X0*%
%TD*%
%TA.AperFunction,ComponentPad*%
%ADD30RoundRect,0.250001X-0.949999X0.949999X-0.949999X-0.949999X0.949999X-0.949999X0.949999X0.949999X0*%
%TD*%
%TA.AperFunction,ComponentPad*%
%ADD31R,1.500000X1.050000*%
%TD*%
%TA.AperFunction,ComponentPad*%
%ADD32O,1.500000X1.050000*%
%TD*%
%TA.AperFunction,ComponentPad*%
%ADD33RoundRect,0.250000X-0.750000X-0.750000X0.750000X-0.750000X0.750000X0.750000X-0.750000X0.750000X0*%
%TD*%
%TA.AperFunction,ComponentPad*%
%ADD34C,2.000000*%
%TD*%
%TA.AperFunction,ComponentPad*%
%ADD35R,2.800000X2.800000*%
%TD*%
%TA.AperFunction,ComponentPad*%
%ADD36C,2.800000*%
%TD*%
%TA.AperFunction,ViaPad*%
%ADD37C,1.000000*%
%TD*%
%TA.AperFunction,ViaPad*%
%ADD38C,1.800000*%
%TD*%
%TA.AperFunction,Conductor*%
%ADD39C,1.000000*%
%TD*%
%TA.AperFunction,Conductor*%
%ADD40C,2.500000*%
%TD*%
G04 APERTURE END LIST*
D10*
%TO.P,VR1,1,1_1*%
%TO.N,Net-(Q9-B)*%
X155000000Y-69000000D03*
D11*
%TO.P,VR1,2,2_2*%
X152500000Y-64000000D03*
%TO.P,VR1,3,3_3*%
%TO.N,Net-(Q6-B)*%
X150000000Y-69000000D03*
%TD*%
D12*
%TO.P,C16,1*%
%TO.N,+35V*%
X185500000Y-93394630D03*
D13*
%TO.P,C16,2*%
%TO.N,GND*%
X185500000Y-103394630D03*
%TD*%
D14*
%TO.P,J7,1,Pin_1_1*%
%TO.N,GND*%
X97000000Y-120000000D03*
%TD*%
D15*
%TO.P,R10,1*%
%TO.N,Net-(D1-K)*%
X163500000Y-75000000D03*
%TO.P,R10,2*%
%TO.N,Net-(C5-Pad2)*%
X163500000Y-67380000D03*
%TD*%
D16*
%TO.P,Q4,1,E_1*%
%TO.N,Net-(Q2-C)*%
X143875000Y-61780000D03*
D17*
%TO.P,Q4,2,C_2*%
%TO.N,Net-(Q4-C)*%
X143875000Y-59500000D03*
%TO.P,Q4,3,B_3*%
%TO.N,Net-(Q1-C)*%
X143875000Y-57220000D03*
%TD*%
D18*
%TO.P,D1,1,K_1*%
%TO.N,Net-(D1-K)*%
X110960000Y-82000000D03*
D19*
%TO.P,D1,2,A_2*%
%TO.N,Net-(D1-A)*%
X113500000Y-82000000D03*
%TD*%
D14*
%TO.P,J8,1,Pin_1_1*%
%TO.N,Net-(J8-Pin_1)*%
X97000000Y-133500000D03*
%TD*%
%TO.P,J5,1,Pin_1_1*%
%TO.N,Net-(J5-Pin_1)*%
X127500000Y-85500000D03*
%TD*%
%TO.P,J6,1,Pin_1_1*%
%TO.N,Net-(J6-Pin_1)*%
X97000000Y-95500000D03*
%TD*%
D20*
%TO.P,C4,1*%
%TO.N,Net-(Q1-C)*%
X158500000Y-59750000D03*
%TO.P,C4,2*%
%TO.N,Net-(Q4-C)*%
X158500000Y-57250000D03*
%TD*%
D21*
%TO.P,C10,1*%
%TO.N,Net-(Q2-C)*%
X124500000Y-48000000D03*
D22*
%TO.P,C10,2*%
%TO.N,GND*%
X124500000Y-43000000D03*
%TD*%
D23*
%TO.P,F1,1*%
%TO.N,Net-(Q2-C)*%
X225300000Y-106500000D03*
%TO.P,F1,2*%
%TO.N,+35V*%
X202700000Y-106500000D03*
%TD*%
%TO.P,F2,1*%
%TO.N,Net-(D1-K)*%
X225800000Y-131500000D03*
%TO.P,F2,2*%
%TO.N,-35V*%
X203200000Y-131500000D03*
%TD*%
D24*
%TO.P,Q9,1,C_1*%
%TO.N,Net-(Q4-C)*%
X151500000Y-57000000D03*
D25*
%TO.P,Q9,2,B_2*%
%TO.N,Net-(Q9-B)*%
X152770000Y-57000000D03*
%TO.P,Q9,3,E_3*%
%TO.N,Net-(Q6-B)*%
X154040000Y-57000000D03*
%TD*%
D26*
%TO.P,Q8,1,B_1*%
%TO.N,Net-(Q6-C)*%
X225125000Y-73550000D03*
D27*
%TO.P,Q8,2,C_2*%
%TO.N,Net-(Q6-E)*%
X225125000Y-79000000D03*
%TO.P,Q8,3,E_3*%
%TO.N,Net-(D1-K)*%
X225125000Y-84450000D03*
%TD*%
D28*
%TO.P,J10,1,Pin_1_1*%
%TO.N,+35V*%
X214000000Y-116000000D03*
%TD*%
D29*
%TO.P,C5,1*%
%TO.N,Net-(J5-Pin_1)*%
X138184785Y-87500000D03*
D22*
%TO.P,C5,2*%
%TO.N,Net-(C5-Pad2)*%
X143184785Y-87500000D03*
%TD*%
D20*
%TO.P,C7,1*%
%TO.N,Net-(Q2-C)*%
X114500000Y-47500000D03*
%TO.P,C7,2*%
%TO.N,GND*%
X114500000Y-45000000D03*
%TD*%
D22*
%TO.P,R15,1*%
%TO.N,Net-(C8-Pad1)*%
X176340000Y-68500000D03*
%TO.P,R15,2*%
%TO.N,Net-(J5-Pin_1)*%
X196660000Y-68500000D03*
%TD*%
D14*
%TO.P,J7,1,Pin_1_1*%
%TO.N,GND*%
X97000000Y-109000000D03*
%TD*%
D26*
%TO.P,Q7,1,B_1*%
%TO.N,Net-(Q5-C)*%
X225125000Y-54500000D03*
D27*
%TO.P,Q7,2,C_2*%
%TO.N,Net-(Q5-E)*%
X225125000Y-59950000D03*
%TO.P,Q7,3,E_3*%
%TO.N,Net-(Q2-C)*%
X225125000Y-65400000D03*
%TD*%
D28*
%TO.P,J4,1,Pin_1_1*%
%TO.N,-35V*%
X214000000Y-124500000D03*
%TD*%
D21*
%TO.P,C3,1*%
%TO.N,GND*%
X137000000Y-75500000D03*
D22*
%TO.P,C3,2*%
%TO.N,Net-(C3-Pad2)*%
X137000000Y-70500000D03*
%TD*%
D12*
%TO.P,C14,1*%
%TO.N,+35V*%
X158000000Y-94000000D03*
D13*
%TO.P,C14,2*%
%TO.N,GND*%
X158000000Y-104000000D03*
%TD*%
D30*
%TO.P,C11,1*%
%TO.N,GND*%
X197500000Y-138500000D03*
D22*
%TO.P,C11,2*%
%TO.N,Net-(D1-K)*%
X197500000Y-143500000D03*
%TD*%
D15*
%TO.P,R6,1*%
%TO.N,Net-(Q1-C)*%
X133000000Y-56190000D03*
%TO.P,R6,2*%
%TO.N,Net-(Q2-C)*%
X133000000Y-63810000D03*
%TD*%
D20*
%TO.P,C2,1*%
%TO.N,Net-(C2-Pad1)*%
X108500000Y-70000000D03*
%TO.P,C2,2*%
%TO.N,SIGNAL_GND*%
X108500000Y-72500000D03*
%TD*%
D16*
%TO.P,Q5,1,E_1*%
%TO.N,Net-(Q5-E)*%
X227000000Y-48280000D03*
D17*
%TO.P,Q5,2,C_2*%
%TO.N,Net-(Q5-C)*%
X227000000Y-46000000D03*
%TO.P,Q5,3,B_3*%
%TO.N,Net-(Q4-C)*%
X227000000Y-43720000D03*
%TD*%
D12*
%TO.P,C15,1*%
%TO.N,GND*%
X157500000Y-119894630D03*
D13*
%TO.P,C15,2*%
%TO.N,-35V*%
X157500000Y-129894630D03*
%TD*%
D14*
%TO.P,Jw1,1,Pin_1_1*%
%TO.N,GND*%
X127500000Y-96000000D03*
%TD*%
D20*
%TO.P,C18,1*%
%TO.N,GND*%
X187500000Y-140250000D03*
%TO.P,C18,2*%
%TO.N,Net-(D1-K)*%
X187500000Y-142750000D03*
%TD*%
D24*
%TO.P,Q2,1,C_1*%
%TO.N,Net-(Q2-C)*%
X129270000Y-63140000D03*
D25*
%TO.P,Q2,2,B_2*%
%TO.N,Net-(Q2-B)*%
X128000000Y-63140000D03*
%TO.P,Q2,3,E_3*%
%TO.N,Net-(Q1-E)*%
X126730000Y-63140000D03*
%TD*%
D15*
%TO.P,R3,1*%
%TO.N,Net-(C2-Pad1)*%
X120500000Y-58000000D03*
%TO.P,R3,2*%
%TO.N,Net-(Q1-B)*%
X120500000Y-65620000D03*
%TD*%
%TO.P,R7,1*%
%TO.N,Net-(D1-K)*%
X106500000Y-78690000D03*
%TO.P,R7,2*%
%TO.N,Net-(Q3-E)*%
X106500000Y-86310000D03*
%TD*%
D22*
%TO.P,R14,1*%
%TO.N,Net-(Q6-E)*%
X204660000Y-78500000D03*
%TO.P,R14,2*%
%TO.N,Net-(J5-Pin_1)*%
X184340000Y-78500000D03*
%TD*%
D15*
%TO.P,R8,1*%
%TO.N,SIGNAL_GND*%
X115880000Y-75500000D03*
%TO.P,R8,2*%
%TO.N,Net-(D1-A)*%
X123500000Y-75500000D03*
%TD*%
D31*
%TO.P,Q3,1,C_1*%
%TO.N,Net-(Q1-E)*%
X118140000Y-80730000D03*
D32*
%TO.P,Q3,2,B_2*%
%TO.N,Net-(D1-A)*%
X118140000Y-82000000D03*
%TO.P,Q3,3,E_3*%
%TO.N,Net-(Q3-E)*%
X118140000Y-83270000D03*
%TD*%
D15*
%TO.P,R4,1*%
%TO.N,Net-(C3-Pad2)*%
X127500000Y-77120000D03*
%TO.P,R4,2*%
%TO.N,Net-(Q2-B)*%
X127500000Y-69500000D03*
%TD*%
D20*
%TO.P,C12,1*%
%TO.N,Net-(J6-Pin_1)*%
X109000000Y-97382323D03*
%TO.P,C12,2*%
%TO.N,Net-(J8-Pin_1)*%
X109000000Y-99882323D03*
%TD*%
D15*
%TO.P,R12,1*%
%TO.N,Net-(Q5-C)*%
X164000000Y-54190000D03*
%TO.P,R12,2*%
%TO.N,Net-(Q2-C)*%
X164000000Y-61810000D03*
%TD*%
D20*
%TO.P,C6,1*%
%TO.N,Net-(Q6-B)*%
X159250000Y-77500000D03*
%TO.P,C6,2*%
%TO.N,Net-(Q6-C)*%
X161750000Y-77500000D03*
%TD*%
D14*
%TO.P,J1,1,Pin_1_1*%
%TO.N,Net-(J1-Pin_1)*%
X97000000Y-59000000D03*
%TD*%
D20*
%TO.P,C13,1*%
%TO.N,Net-(J6-Pin_1)*%
X109000000Y-129382323D03*
%TO.P,C13,2*%
%TO.N,Net-(J8-Pin_1)*%
X109000000Y-131882323D03*
%TD*%
D33*
%TO.P,C1,1*%
%TO.N,Net-(J1-Pin_1)*%
X107500000Y-60500000D03*
D34*
%TO.P,C1,2*%
%TO.N,Net-(C1-Pad2)*%
X111000000Y-60500000D03*
%TD*%
D20*
%TO.P,C8,1*%
%TO.N,Net-(C8-Pad1)*%
X176250000Y-74500000D03*
%TO.P,C8,2*%
%TO.N,GND*%
X178750000Y-74500000D03*
%TD*%
D14*
%TO.P,J2,1,Pin_1_1*%
%TO.N,SIGNAL_GND*%
X97000000Y-71000000D03*
%TD*%
D15*
%TO.P,R5,1*%
%TO.N,Net-(Q2-B)*%
X145000000Y-69190000D03*
%TO.P,R5,2*%
%TO.N,Net-(J5-Pin_1)*%
X145000000Y-76810000D03*
%TD*%
D24*
%TO.P,Q1,1,C_1*%
%TO.N,Net-(Q1-C)*%
X126730000Y-58860000D03*
D25*
%TO.P,Q1,2,B_2*%
%TO.N,Net-(Q1-B)*%
X128000000Y-58860000D03*
%TO.P,Q1,3,E_3*%
%TO.N,Net-(Q1-E)*%
X129270000Y-58860000D03*
%TD*%
D15*
%TO.P,R11,1*%
%TO.N,Net-(D1-K)*%
X167000000Y-67190000D03*
%TO.P,R11,2*%
%TO.N,Net-(Q6-C)*%
X167000000Y-74810000D03*
%TD*%
D28*
%TO.P,J3,1,Pin_1_1*%
%TO.N,+35V*%
X218500000Y-116000000D03*
%TD*%
D22*
%TO.P,R13,1*%
%TO.N,Net-(J5-Pin_1)*%
X184340000Y-59500000D03*
%TO.P,R13,2*%
%TO.N,Net-(Q5-E)*%
X204660000Y-59500000D03*
%TD*%
D28*
%TO.P,J9,1,Pin_1_1*%
%TO.N,GND*%
X214000000Y-120000000D03*
%TD*%
D15*
%TO.P,R16,1*%
%TO.N,Net-(Q9-B)*%
X138000000Y-63810000D03*
%TO.P,R16,2*%
%TO.N,Net-(Q4-C)*%
X138000000Y-56190000D03*
%TD*%
%TO.P,R9,1*%
%TO.N,Net-(C5-Pad2)*%
X158000000Y-67190000D03*
%TO.P,R9,2*%
%TO.N,Net-(Q6-B)*%
X158000000Y-74810000D03*
%TD*%
D28*
%TO.P,J11,1,Pin_1_1*%
%TO.N,-35V*%
X218000000Y-124500000D03*
%TD*%
D15*
%TO.P,R1,1*%
%TO.N,Net-(C1-Pad2)*%
X117000000Y-58190000D03*
%TO.P,R1,2*%
%TO.N,Net-(C2-Pad1)*%
X117000000Y-65810000D03*
%TD*%
D35*
%TO.P,BR1,1,+_1*%
%TO.N,+35V*%
X120500000Y-118400000D03*
D36*
%TO.P,BR1,2*%
%TO.N,Net-(J8-Pin_1)*%
X120500000Y-130000000D03*
%TO.P,BR1,3,-_3*%
%TO.N,-35V*%
X138500000Y-130000000D03*
%TO.P,BR1,4*%
%TO.N,Net-(J6-Pin_1)*%
X138500000Y-112000000D03*
%TD*%
D12*
%TO.P,C17,1*%
%TO.N,GND*%
X185000000Y-119894630D03*
D13*
%TO.P,C17,2*%
%TO.N,-35V*%
X185000000Y-129894630D03*
%TD*%
D16*
%TO.P,Q6,1,E_1*%
%TO.N,Net-(Q6-E)*%
X227000000Y-95000000D03*
D17*
%TO.P,Q6,2,C_2*%
%TO.N,Net-(Q6-C)*%
X227000000Y-92720000D03*
%TO.P,Q6,3,B_3*%
%TO.N,Net-(Q6-B)*%
X227000000Y-90440000D03*
%TD*%
D15*
%TO.P,R2,1*%
%TO.N,SIGNAL_GND*%
X115880000Y-71500000D03*
%TO.P,R2,2*%
%TO.N,Net-(C2-Pad1)*%
X123500000Y-71500000D03*
%TD*%
D37*
%TO.N,Net-(Q6-B)*%
X221000000Y-90500000D03*
D38*
%TO.N,Net-(J5-Pin_1)*%
X164000000Y-83000000D03*
X155500000Y-83000000D03*
X155500000Y-77000000D03*
X184500000Y-84000000D03*
D37*
%TO.N,Net-(Q6-E)*%
X219000000Y-91000000D03*
X219000000Y-95000000D03*
%TD*%
%TO.N,Net-(Q9-B)*%
D39*
X152770000Y-63730000D02*
X152500000Y-64000000D01*
X152770000Y-57000000D02*
X152770000Y-63730000D01*
X138000000Y-63810000D02*
X138000000Y-64000000D01*
X138000000Y-64000000D02*
X152500000Y-64000000D01*
%TO.N,Net-(Q6-B)*%
X221000000Y-90500000D02*
X220000000Y-89500000D01*
X159250000Y-89250000D02*
X159250000Y-77500000D01*
X150000000Y-69000000D02*
X151500000Y-69000000D01*
X151500000Y-69000000D02*
X154040000Y-66460000D01*
X220000000Y-89500000D02*
X159500000Y-89500000D01*
X159500000Y-89500000D02*
X159250000Y-89250000D01*
X154040000Y-66460000D02*
X154040000Y-57000000D01*
%TO.N,Net-(D1-K)*%
D40*
X187500000Y-142750000D02*
X196750000Y-142750000D01*
X225800000Y-116300000D02*
X222350000Y-112850000D01*
D39*
X110960000Y-82000000D02*
X109810000Y-82000000D01*
D40*
X209500000Y-131500000D02*
X197500000Y-143500000D01*
X225800000Y-131500000D02*
X225800000Y-116300000D01*
X225800000Y-131500000D02*
X209500000Y-131500000D01*
X223000000Y-86950000D02*
X225500000Y-84450000D01*
X222350000Y-112850000D02*
X222350000Y-105278069D01*
X196750000Y-142750000D02*
X197500000Y-143500000D01*
D39*
X109810000Y-82000000D02*
X106500000Y-78690000D01*
D40*
X223000000Y-104628069D02*
X223000000Y-86950000D01*
X222350000Y-105278069D02*
X223000000Y-104628069D01*
%TO.N,Net-(C5-Pad2)*%
D39*
X143184785Y-85565215D02*
X143184785Y-87500000D01*
X153700000Y-73800000D02*
X153700000Y-75050000D01*
X158000000Y-67190000D02*
X158000000Y-69500000D01*
X153700000Y-75050000D02*
X143184785Y-85565215D01*
X158000000Y-69500000D02*
X153700000Y-73800000D01*
%TO.N,Net-(Q2-C)*%
X129270000Y-63140000D02*
X129860000Y-63140000D01*
X129860000Y-63140000D02*
X131500000Y-61500000D01*
X124500000Y-48000000D02*
X121500000Y-48000000D01*
X131500000Y-55000000D02*
X124500000Y-48000000D01*
X131500000Y-61500000D02*
X131500000Y-55000000D01*
X121000000Y-47500000D02*
X114500000Y-47500000D01*
X121500000Y-48000000D02*
X121000000Y-47500000D01*
%TO.N,Net-(Q4-C)*%
X143875000Y-59500000D02*
X149000000Y-59500000D01*
X143875000Y-59500000D02*
X141310000Y-59500000D01*
X141310000Y-59500000D02*
X138000000Y-56190000D01*
X149000000Y-59500000D02*
X151500000Y-57000000D01*
%TO.N,Net-(D1-A)*%
X120500000Y-82000000D02*
X118140000Y-82000000D01*
X118140000Y-82000000D02*
X113500000Y-82000000D01*
X120500000Y-78500000D02*
X120500000Y-82000000D01*
X123500000Y-75500000D02*
X120500000Y-78500000D01*
%TO.N,Net-(J5-Pin_1)*%
D40*
X165000000Y-84000000D02*
X184500000Y-84000000D01*
X145000000Y-80684785D02*
X138184785Y-87500000D01*
X155500000Y-77000000D02*
X155500000Y-83000000D01*
X164000000Y-83000000D02*
X165000000Y-84000000D01*
X145000000Y-76810000D02*
X145000000Y-80684785D01*
%TO.N,Net-(Q6-C)*%
D39*
X195250000Y-80750000D02*
X202500000Y-73500000D01*
X161750000Y-77500000D02*
X164310000Y-77500000D01*
X205000000Y-73500000D02*
X205050000Y-73550000D01*
X202500000Y-73500000D02*
X205000000Y-73500000D01*
X205050000Y-73550000D02*
X225500000Y-73550000D01*
X167000000Y-74810000D02*
X172940000Y-80750000D01*
X172940000Y-80750000D02*
X195250000Y-80750000D01*
X164310000Y-77500000D02*
X167000000Y-74810000D01*
%TO.N,Net-(Q6-E)*%
D40*
X204660000Y-78500000D02*
X206000000Y-78500000D01*
D39*
X219000000Y-95000000D02*
X219000000Y-91000000D01*
D40*
X206500000Y-79000000D02*
X225500000Y-79000000D01*
X206000000Y-78500000D02*
X206500000Y-79000000D01*
%TO.N,Net-(Q5-E)*%
X225050000Y-59500000D02*
X225500000Y-59950000D01*
D39*
X222000000Y-56450000D02*
X225500000Y-59950000D01*
D40*
X204660000Y-59500000D02*
X225050000Y-59500000D01*
D39*
X223220000Y-48280000D02*
X222000000Y-49500000D01*
X227000000Y-48280000D02*
X223220000Y-48280000D01*
X222000000Y-49500000D02*
X222000000Y-56450000D01*
%TO.N,Net-(Q3-E)*%
X115100000Y-86310000D02*
X118140000Y-83270000D01*
X106500000Y-86310000D02*
X115100000Y-86310000D01*
%TD*%
%TA.AperFunction,Conductor*%
%TO.N,GND*%
G36*
X203443039Y-37519685D02*
G01*
X203488794Y-37572489D01*
X203500000Y-37624000D01*
X203500000Y-49500000D01*
X217875349Y-49500000D01*
X217942388Y-49519685D01*
X217988143Y-49572489D01*
X217999347Y-49624649D01*
X217997084Y-50056961D01*
X217957509Y-57615908D01*
X217957455Y-57626149D01*
X217937420Y-57693085D01*
X217884377Y-57738563D01*
X217833457Y-57749500D01*
X204545258Y-57749500D01*
X204328715Y-57778009D01*
X204317762Y-57779452D01*
X204224076Y-57804554D01*
X204096112Y-57838842D01*
X203884123Y-57926650D01*
X203884109Y-57926657D01*
X203685382Y-58041392D01*
X203503338Y-58181081D01*
X203341081Y-58343338D01*
X203201392Y-58525382D01*
X203086657Y-58724109D01*
X203086650Y-58724123D01*
X202998842Y-58936112D01*
X202989206Y-58972074D01*
X202953405Y-59105690D01*
X202939453Y-59157759D01*
X202939451Y-59157770D01*
X202909500Y-59385258D01*
X202909500Y-59614741D01*
X202923027Y-59717483D01*
X202939452Y-59842238D01*
X202973027Y-59967544D01*
X202998842Y-60063887D01*
X203086650Y-60275876D01*
X203086657Y-60275890D01*
X203201392Y-60474617D01*
X203341081Y-60656661D01*
X203341089Y-60656670D01*
X203503330Y-60818911D01*
X203503338Y-60818918D01*
X203685382Y-60958607D01*
X203685385Y-60958608D01*
X203685388Y-60958611D01*
X203884112Y-61073344D01*
X203884117Y-61073346D01*
X203884123Y-61073349D01*
X203951497Y-61101256D01*
X204096113Y-61161158D01*
X204317762Y-61220548D01*
X204545266Y-61250500D01*
X204545273Y-61250500D01*
X217813828Y-61250500D01*
X217880867Y-61270185D01*
X217926622Y-61322989D01*
X217937826Y-61375149D01*
X217901252Y-68360940D01*
X217884170Y-71623629D01*
X217879968Y-72426149D01*
X217859933Y-72493085D01*
X217806890Y-72538563D01*
X217755970Y-72549500D01*
X205344388Y-72549500D01*
X205296935Y-72540061D01*
X205291836Y-72537949D01*
X205291834Y-72537948D01*
X205291833Y-72537948D01*
X205291829Y-72537947D01*
X205195188Y-72518724D01*
X205098544Y-72499500D01*
X205098541Y-72499500D01*
X202598540Y-72499500D01*
X202401459Y-72499500D01*
X202401456Y-72499500D01*
X202208171Y-72537947D01*
X202208168Y-72537948D01*
X202208167Y-72537948D01*
X202208164Y-72537949D01*
X202180278Y-72549500D01*
X202180276Y-72549501D01*
X202180275Y-72549500D01*
X202026088Y-72613366D01*
X202026079Y-72613371D01*
X201895685Y-72700499D01*
X201862216Y-72722862D01*
X201862212Y-72722865D01*
X194871899Y-79713181D01*
X194810576Y-79746666D01*
X194784218Y-79749500D01*
X185776106Y-79749500D01*
X185709067Y-79729815D01*
X185663312Y-79677011D01*
X185653368Y-79607853D01*
X185677730Y-79550014D01*
X185735587Y-79474612D01*
X185756948Y-79446774D01*
X185868405Y-79253726D01*
X185953710Y-79047781D01*
X186011404Y-78832463D01*
X186040500Y-78611457D01*
X186040500Y-78388543D01*
X186011404Y-78167537D01*
X185953710Y-77952219D01*
X185935362Y-77907924D01*
X185916092Y-77861400D01*
X185868405Y-77746274D01*
X185756948Y-77553226D01*
X185640232Y-77401118D01*
X185621248Y-77376377D01*
X185621242Y-77376370D01*
X185463629Y-77218757D01*
X185463622Y-77218751D01*
X185286782Y-77083058D01*
X185286780Y-77083057D01*
X185286774Y-77083052D01*
X185093726Y-76971595D01*
X185093722Y-76971593D01*
X184887790Y-76886293D01*
X184887783Y-76886291D01*
X184887781Y-76886290D01*
X184672463Y-76828596D01*
X184672457Y-76828595D01*
X184672452Y-76828594D01*
X184451466Y-76799501D01*
X184451463Y-76799500D01*
X184451457Y-76799500D01*
X184228543Y-76799500D01*
X184228537Y-76799500D01*
X184228533Y-76799501D01*
X184007547Y-76828594D01*
X184007540Y-76828595D01*
X184007537Y-76828596D01*
X183796041Y-76885266D01*
X183792219Y-76886290D01*
X183792209Y-76886293D01*
X183586277Y-76971593D01*
X183586273Y-76971595D01*
X183393226Y-77083052D01*
X183393217Y-77083058D01*
X183216377Y-77218751D01*
X183216370Y-77218757D01*
X183058757Y-77376370D01*
X183058751Y-77376377D01*
X182923058Y-77553217D01*
X182923052Y-77553226D01*
X182811595Y-77746273D01*
X182811593Y-77746277D01*
X182726293Y-77952209D01*
X182726290Y-77952219D01*
X182668597Y-78167536D01*
X182668594Y-78167547D01*
X182639501Y-78388533D01*
X182639500Y-78388549D01*
X182639500Y-78611450D01*
X182639501Y-78611466D01*
X182668594Y-78832452D01*
X182668595Y-78832457D01*
X182668596Y-78832463D01*
X182726290Y-79047780D01*
X182726293Y-79047790D01*
X182811593Y-79253722D01*
X182811595Y-79253726D01*
X182923052Y-79446774D01*
X182923057Y-79446780D01*
X182923058Y-79446782D01*
X183002270Y-79550014D01*
X183027464Y-79615183D01*
X183013425Y-79683628D01*
X182964611Y-79733618D01*
X182903894Y-79749500D01*
X173405783Y-79749500D01*
X173338744Y-79729815D01*
X173318102Y-79713181D01*
X168206419Y-74601499D01*
X168199038Y-74589215D01*
X168190533Y-74582009D01*
X168182950Y-74562440D01*
X168175517Y-74550068D01*
X168172981Y-74541774D01*
X168170940Y-74528882D01*
X168128299Y-74397648D01*
X174949500Y-74397648D01*
X174949500Y-74602351D01*
X174981522Y-74804534D01*
X175044781Y-74999223D01*
X175091605Y-75091118D01*
X175137585Y-75181359D01*
X175137715Y-75181613D01*
X175258028Y-75347213D01*
X175402786Y-75491971D01*
X175540569Y-75592074D01*
X175568390Y-75612287D01*
X175684607Y-75671503D01*
X175750776Y-75705218D01*
X175750778Y-75705218D01*
X175750781Y-75705220D01*
X175831943Y-75731591D01*
X175945465Y-75768477D01*
X176025277Y-75781118D01*
X176147648Y-75800500D01*
X176147649Y-75800500D01*
X176352351Y-75800500D01*
X176352352Y-75800500D01*
X176554534Y-75768477D01*
X176749219Y-75705220D01*
X176931610Y-75612287D01*
X177029194Y-75541389D01*
X177097213Y-75491971D01*
X177097215Y-75491968D01*
X177097219Y-75491966D01*
X177241966Y-75347219D01*
X177241968Y-75347215D01*
X177241971Y-75347213D01*
X177335205Y-75218885D01*
X177362287Y-75181610D01*
X177389795Y-75127621D01*
X177437769Y-75076826D01*
X177505589Y-75060030D01*
X177571725Y-75082567D01*
X177610765Y-75127621D01*
X177638141Y-75181350D01*
X177638147Y-75181359D01*
X177670523Y-75225921D01*
X177670524Y-75225922D01*
X178350000Y-74546446D01*
X178350000Y-74552661D01*
X178377259Y-74654394D01*
X178429920Y-74745606D01*
X178504394Y-74820080D01*
X178595606Y-74872741D01*
X178697339Y-74900000D01*
X178703553Y-74900000D01*
X178024076Y-75579474D01*
X178068650Y-75611859D01*
X178250968Y-75704755D01*
X178445582Y-75767990D01*
X178647683Y-75800000D01*
X178852317Y-75800000D01*
X179054417Y-75767990D01*
X179249031Y-75704755D01*
X179431349Y-75611859D01*
X179475921Y-75579474D01*
X178796447Y-74900000D01*
X178802661Y-74900000D01*
X178904394Y-74872741D01*
X178995606Y-74820080D01*
X179070080Y-74745606D01*
X179122741Y-74654394D01*
X179150000Y-74552661D01*
X179150000Y-74546447D01*
X179829474Y-75225921D01*
X179861859Y-75181349D01*
X179954755Y-74999031D01*
X180017990Y-74804417D01*
X180050000Y-74602317D01*
X180050000Y-74397682D01*
X180017990Y-74195582D01*
X179954755Y-74000968D01*
X179861859Y-73818650D01*
X179829474Y-73774077D01*
X179829474Y-73774076D01*
X179150000Y-74453551D01*
X179150000Y-74447339D01*
X179122741Y-74345606D01*
X179070080Y-74254394D01*
X178995606Y-74179920D01*
X178904394Y-74127259D01*
X178802661Y-74100000D01*
X178796446Y-74100000D01*
X179475922Y-73420524D01*
X179475921Y-73420523D01*
X179431359Y-73388147D01*
X179431350Y-73388141D01*
X179249031Y-73295244D01*
X179054417Y-73232009D01*
X178852317Y-73200000D01*
X178647683Y-73200000D01*
X178445582Y-73232009D01*
X178250968Y-73295244D01*
X178068644Y-73388143D01*
X178024077Y-73420523D01*
X178024077Y-73420524D01*
X178703554Y-74100000D01*
X178697339Y-74100000D01*
X178595606Y-74127259D01*
X178504394Y-74179920D01*
X178429920Y-74254394D01*
X178377259Y-74345606D01*
X178350000Y-74447339D01*
X178350000Y-74453553D01*
X177670524Y-73774077D01*
X177670523Y-73774077D01*
X177638143Y-73818644D01*
X177610765Y-73872378D01*
X177562790Y-73923174D01*
X177494969Y-73939969D01*
X177428834Y-73917431D01*
X177389795Y-73872378D01*
X177362287Y-73818390D01*
X177362285Y-73818387D01*
X177362284Y-73818385D01*
X177241971Y-73652786D01*
X177097213Y-73508028D01*
X176931613Y-73387715D01*
X176931612Y-73387714D01*
X176931610Y-73387713D01*
X176874653Y-73358691D01*
X176749223Y-73294781D01*
X176554534Y-73231522D01*
X176379995Y-73203878D01*
X176352352Y-73199500D01*
X176147648Y-73199500D01*
X176123329Y-73203351D01*
X175945465Y-73231522D01*
X175750776Y-73294781D01*
X175568386Y-73387715D01*
X175402786Y-73508028D01*
X175258028Y-73652786D01*
X175137715Y-73818386D01*
X175044781Y-74000776D01*
X174981522Y-74195465D01*
X174949500Y-74397648D01*
X168128299Y-74397648D01*
X168112547Y-74349168D01*
X168112545Y-74349165D01*
X168112545Y-74349163D01*
X168052274Y-74230876D01*
X168026760Y-74180801D01*
X167915690Y-74027927D01*
X167782073Y-73894310D01*
X167629199Y-73783240D01*
X167600225Y-73768477D01*
X167460836Y-73697454D01*
X167281118Y-73639059D01*
X167094486Y-73609500D01*
X167094481Y-73609500D01*
X166905519Y-73609500D01*
X166905514Y-73609500D01*
X166718881Y-73639059D01*
X166539163Y-73697454D01*
X166370800Y-73783240D01*
X166307737Y-73829059D01*
X166217927Y-73894310D01*
X166217925Y-73894312D01*
X166217924Y-73894312D01*
X166084312Y-74027924D01*
X166084312Y-74027925D01*
X166084310Y-74027927D01*
X166045274Y-74081655D01*
X165973240Y-74180800D01*
X165887454Y-74349165D01*
X165829059Y-74528885D01*
X165828372Y-74533222D01*
X165798437Y-74596355D01*
X165793581Y-74601496D01*
X164822928Y-75572150D01*
X164761605Y-75605635D01*
X164691914Y-75600651D01*
X164635980Y-75558779D01*
X164611563Y-75493315D01*
X164617315Y-75446157D01*
X164670940Y-75281118D01*
X164671204Y-75279451D01*
X164700500Y-75094486D01*
X164700500Y-74905513D01*
X164670940Y-74718881D01*
X164633077Y-74602352D01*
X164612547Y-74539168D01*
X164612545Y-74539165D01*
X164612545Y-74539163D01*
X164543064Y-74402800D01*
X164526760Y-74370801D01*
X164415690Y-74217927D01*
X164282073Y-74084310D01*
X164129199Y-73973240D01*
X164098669Y-73957684D01*
X163960836Y-73887454D01*
X163781118Y-73829059D01*
X163594486Y-73799500D01*
X163594481Y-73799500D01*
X163405519Y-73799500D01*
X163405514Y-73799500D01*
X163218881Y-73829059D01*
X163039163Y-73887454D01*
X162870800Y-73973240D01*
X162795535Y-74027924D01*
X162717927Y-74084310D01*
X162717925Y-74084312D01*
X162717924Y-74084312D01*
X162584312Y-74217924D01*
X162584312Y-74217925D01*
X162584310Y-74217927D01*
X162557815Y-74254394D01*
X162473240Y-74370800D01*
X162387454Y-74539163D01*
X162329059Y-74718881D01*
X162299500Y-74905513D01*
X162299500Y-75094486D01*
X162329059Y-75281118D01*
X162387454Y-75460836D01*
X162464405Y-75611859D01*
X162473240Y-75629199D01*
X162584310Y-75782073D01*
X162717927Y-75915690D01*
X162870801Y-76026760D01*
X162934294Y-76059111D01*
X163039163Y-76112545D01*
X163039165Y-76112545D01*
X163039168Y-76112547D01*
X163135497Y-76143846D01*
X163218881Y-76170940D01*
X163405514Y-76200500D01*
X163405519Y-76200500D01*
X163594486Y-76200500D01*
X163781118Y-76170940D01*
X163946154Y-76117315D01*
X164015992Y-76115320D01*
X164075825Y-76151400D01*
X164106654Y-76214101D01*
X164098690Y-76283515D01*
X164072152Y-76322927D01*
X163931897Y-76463182D01*
X163870577Y-76496666D01*
X163844218Y-76499500D01*
X162625762Y-76499500D01*
X162558723Y-76479815D01*
X162552877Y-76475818D01*
X162431613Y-76387715D01*
X162431612Y-76387714D01*
X162431610Y-76387713D01*
X162333894Y-76337924D01*
X162249223Y-76294781D01*
X162054534Y-76231522D01*
X161879995Y-76203878D01*
X161852352Y-76199500D01*
X161647648Y-76199500D01*
X161623329Y-76203351D01*
X161445465Y-76231522D01*
X161250776Y-76294781D01*
X161068386Y-76387715D01*
X160902786Y-76508028D01*
X160758028Y-76652786D01*
X160637713Y-76818388D01*
X160610484Y-76871828D01*
X160562510Y-76922623D01*
X160494688Y-76939418D01*
X160428554Y-76916880D01*
X160389516Y-76871828D01*
X160362286Y-76818388D01*
X160241971Y-76652786D01*
X160097213Y-76508028D01*
X159931613Y-76387715D01*
X159931612Y-76387714D01*
X159931610Y-76387713D01*
X159833894Y-76337924D01*
X159749223Y-76294781D01*
X159554534Y-76231522D01*
X159379995Y-76203878D01*
X159352352Y-76199500D01*
X159147648Y-76199500D01*
X159123329Y-76203351D01*
X158945465Y-76231522D01*
X158750776Y-76294781D01*
X158568386Y-76387715D01*
X158402786Y-76508028D01*
X158258028Y-76652786D01*
X158137715Y-76818386D01*
X158044781Y-77000776D01*
X157981522Y-77195465D01*
X157949500Y-77397648D01*
X157949500Y-77602351D01*
X157981522Y-77804534D01*
X158044781Y-77999223D01*
X158137713Y-78181610D01*
X158225819Y-78302877D01*
X158249298Y-78368681D01*
X158249500Y-78375761D01*
X158249500Y-89348541D01*
X158249500Y-89348543D01*
X158249499Y-89348543D01*
X158287947Y-89541829D01*
X158287950Y-89541839D01*
X158363364Y-89723907D01*
X158363371Y-89723920D01*
X158472859Y-89887780D01*
X158472860Y-89887781D01*
X158472861Y-89887782D01*
X158612218Y-90027139D01*
X158722860Y-90137781D01*
X158722861Y-90137781D01*
X158722861Y-90137782D01*
X158862218Y-90277139D01*
X158862219Y-90277140D01*
X159026079Y-90386628D01*
X159026086Y-90386632D01*
X159121045Y-90425965D01*
X159208164Y-90462051D01*
X159401454Y-90500499D01*
X159401457Y-90500500D01*
X159401459Y-90500500D01*
X159598540Y-90500500D01*
X217660687Y-90500500D01*
X217727726Y-90520185D01*
X217773481Y-90572989D01*
X217784685Y-90625149D01*
X217659160Y-114600282D01*
X217639125Y-114667218D01*
X217587075Y-114711843D01*
X217587211Y-114712134D01*
X217586172Y-114712618D01*
X217586082Y-114712696D01*
X217585609Y-114712880D01*
X217580669Y-114715184D01*
X217431342Y-114807289D01*
X217307289Y-114931342D01*
X217215187Y-115080663D01*
X217215186Y-115080666D01*
X217160001Y-115247203D01*
X217160001Y-115247204D01*
X217160000Y-115247204D01*
X217149500Y-115349983D01*
X217149500Y-116650001D01*
X217149501Y-116650018D01*
X217160000Y-116752796D01*
X217160001Y-116752799D01*
X217206299Y-116892516D01*
X217215186Y-116919334D01*
X217307288Y-117068656D01*
X217431344Y-117192712D01*
X217580666Y-117284814D01*
X217580667Y-117284814D01*
X217585631Y-117287876D01*
X217632356Y-117339824D01*
X217644533Y-117394064D01*
X217615045Y-123026149D01*
X217595010Y-123093085D01*
X217541967Y-123138563D01*
X217491048Y-123149500D01*
X217349999Y-123149500D01*
X217349980Y-123149501D01*
X217247203Y-123160000D01*
X217247200Y-123160001D01*
X217080668Y-123215185D01*
X217080663Y-123215187D01*
X216931342Y-123307289D01*
X216807289Y-123431342D01*
X216715187Y-123580663D01*
X216715186Y-123580666D01*
X216660001Y-123747203D01*
X216660001Y-123747204D01*
X216660000Y-123747204D01*
X216649500Y-123849983D01*
X216649500Y-125150001D01*
X216649501Y-125150018D01*
X216660000Y-125252796D01*
X216660001Y-125252799D01*
X216715185Y-125419331D01*
X216715186Y-125419334D01*
X216807288Y-125568656D01*
X216931344Y-125692712D01*
X217080666Y-125784814D01*
X217247203Y-125839999D01*
X217349991Y-125850500D01*
X217475610Y-125850499D01*
X217542647Y-125870183D01*
X217588402Y-125922987D01*
X217599606Y-125975148D01*
X217591685Y-127488073D01*
X217580491Y-129626151D01*
X217560457Y-129693085D01*
X217507414Y-129738562D01*
X217456494Y-129749500D01*
X209385265Y-129749500D01*
X209157771Y-129779449D01*
X209157764Y-129779450D01*
X209157761Y-129779451D01*
X209108727Y-129792589D01*
X208974779Y-129828480D01*
X208957634Y-129833075D01*
X208936114Y-129838841D01*
X208936101Y-129838846D01*
X208874019Y-129864560D01*
X208874019Y-129864561D01*
X208847794Y-129875424D01*
X208724117Y-129926652D01*
X208724107Y-129926657D01*
X208672665Y-129956358D01*
X208525395Y-130041384D01*
X208525377Y-130041396D01*
X208472742Y-130081786D01*
X208472741Y-130081787D01*
X208343340Y-130181078D01*
X208343333Y-130181084D01*
X199411681Y-139112737D01*
X199350358Y-139146222D01*
X199280666Y-139141238D01*
X199224733Y-139099366D01*
X199200316Y-139033902D01*
X199200000Y-139025056D01*
X199200000Y-138750000D01*
X198048482Y-138750000D01*
X198059111Y-138731591D01*
X198100000Y-138578991D01*
X198100000Y-138421009D01*
X198059111Y-138268409D01*
X198048482Y-138250000D01*
X199200000Y-138250000D01*
X199200000Y-137500027D01*
X199199999Y-137500014D01*
X199189506Y-137397310D01*
X199189505Y-137397303D01*
X199134358Y-137230881D01*
X199134356Y-137230876D01*
X199042315Y-137081655D01*
X198918344Y-136957684D01*
X198769123Y-136865643D01*
X198769118Y-136865641D01*
X198602696Y-136810494D01*
X198602689Y-136810493D01*
X198499985Y-136800000D01*
X197750000Y-136800000D01*
X197750000Y-137951517D01*
X197731591Y-137940889D01*
X197578991Y-137900000D01*
X197421009Y-137900000D01*
X197268409Y-137940889D01*
X197250000Y-137951517D01*
X197250000Y-136800000D01*
X196500014Y-136800000D01*
X196397310Y-136810493D01*
X196397303Y-136810494D01*
X196230881Y-136865641D01*
X196230876Y-136865643D01*
X196081655Y-136957684D01*
X195957684Y-137081655D01*
X195865643Y-137230876D01*
X195865641Y-137230881D01*
X195810494Y-137397303D01*
X195810493Y-137397310D01*
X195800000Y-137500014D01*
X195800000Y-138250000D01*
X196951518Y-138250000D01*
X196940889Y-138268409D01*
X196900000Y-138421009D01*
X196900000Y-138578991D01*
X196940889Y-138731591D01*
X196951518Y-138750000D01*
X195800000Y-138750000D01*
X195800000Y-139499985D01*
X195810493Y-139602689D01*
X195810494Y-139602696D01*
X195865641Y-139769118D01*
X195865643Y-139769123D01*
X195957684Y-139918344D01*
X196081655Y-140042315D01*
X196230876Y-140134356D01*
X196230881Y-140134358D01*
X196397303Y-140189505D01*
X196397310Y-140189506D01*
X196500014Y-140199999D01*
X196500027Y-140200000D01*
X197250000Y-140200000D01*
X197250000Y-139048482D01*
X197268409Y-139059111D01*
X197421009Y-139100000D01*
X197578991Y-139100000D01*
X197731591Y-139059111D01*
X197750000Y-139048482D01*
X197750000Y-140200000D01*
X198025056Y-140200000D01*
X198092095Y-140219685D01*
X198137850Y-140272489D01*
X198147794Y-140341647D01*
X198118769Y-140405203D01*
X198112737Y-140411681D01*
X197458520Y-141065897D01*
X197397197Y-141099382D01*
X197327505Y-141094398D01*
X197323389Y-141092778D01*
X197313887Y-141088842D01*
X197092239Y-141029452D01*
X197092233Y-141029451D01*
X197092232Y-141029451D01*
X197082362Y-141028151D01*
X197065771Y-141025967D01*
X197065770Y-141025966D01*
X196864744Y-140999501D01*
X196864739Y-140999500D01*
X196864734Y-140999500D01*
X188779485Y-140999500D01*
X188712446Y-140979815D01*
X188666691Y-140927011D01*
X188656747Y-140857853D01*
X188669000Y-140819206D01*
X188704754Y-140749034D01*
X188767990Y-140554417D01*
X188800000Y-140352317D01*
X188800000Y-140147682D01*
X188767990Y-139945582D01*
X188704755Y-139750968D01*
X188611859Y-139568650D01*
X188579474Y-139524077D01*
X188579474Y-139524076D01*
X187900000Y-140203553D01*
X187900000Y-140197339D01*
X187872741Y-140095606D01*
X187820080Y-140004394D01*
X187745606Y-139929920D01*
X187654394Y-139877259D01*
X187552661Y-139850000D01*
X187546446Y-139850000D01*
X188225922Y-139170524D01*
X188225921Y-139170523D01*
X188181359Y-139138147D01*
X188181350Y-139138141D01*
X187999031Y-139045244D01*
X187804417Y-138982009D01*
X187602317Y-138950000D01*
X187397683Y-138950000D01*
X187195582Y-138982009D01*
X187000968Y-139045244D01*
X186818644Y-139138143D01*
X186774077Y-139170523D01*
X186774077Y-139170524D01*
X187453554Y-139850000D01*
X187447339Y-139850000D01*
X187345606Y-139877259D01*
X187254394Y-139929920D01*
X187179920Y-140004394D01*
X187127259Y-140095606D01*
X187100000Y-140197339D01*
X187100000Y-140203553D01*
X186420524Y-139524077D01*
X186420523Y-139524077D01*
X186388143Y-139568644D01*
X186295244Y-139750968D01*
X186232009Y-139945582D01*
X186200000Y-140147682D01*
X186200000Y-140352317D01*
X186232009Y-140554417D01*
X186295244Y-140749031D01*
X186388141Y-140931350D01*
X186388147Y-140931359D01*
X186420523Y-140975921D01*
X186420524Y-140975922D01*
X187100000Y-140296446D01*
X187100000Y-140302661D01*
X187127259Y-140404394D01*
X187179920Y-140495606D01*
X187254394Y-140570080D01*
X187345606Y-140622741D01*
X187447339Y-140650000D01*
X187453553Y-140650000D01*
X187066973Y-141036578D01*
X187011387Y-141068671D01*
X186936119Y-141088839D01*
X186936116Y-141088840D01*
X186724118Y-141176653D01*
X186724109Y-141176657D01*
X186525382Y-141291392D01*
X186343338Y-141431081D01*
X186181081Y-141593338D01*
X186041392Y-141775382D01*
X185926657Y-141974109D01*
X185926650Y-141974123D01*
X185838842Y-142186112D01*
X185779453Y-142407759D01*
X185779451Y-142407770D01*
X185749500Y-142635258D01*
X185749500Y-142864741D01*
X185774446Y-143054215D01*
X185779452Y-143092238D01*
X185779453Y-143092240D01*
X185838842Y-143313887D01*
X185926650Y-143525876D01*
X185926657Y-143525890D01*
X186041392Y-143724617D01*
X186181081Y-143906661D01*
X186181089Y-143906670D01*
X186343330Y-144068911D01*
X186343338Y-144068918D01*
X186525382Y-144208607D01*
X186525385Y-144208608D01*
X186525388Y-144208611D01*
X186724112Y-144323344D01*
X186724117Y-144323346D01*
X186724123Y-144323349D01*
X186815480Y-144361190D01*
X186936113Y-144411158D01*
X187157762Y-144470548D01*
X187385266Y-144500500D01*
X195973558Y-144500500D01*
X196040597Y-144520185D01*
X196061239Y-144536819D01*
X196140467Y-144616047D01*
X196173952Y-144677370D01*
X196168968Y-144747062D01*
X196127096Y-144802995D01*
X196061632Y-144827412D01*
X196051790Y-144827724D01*
X93123504Y-144000991D01*
X93056625Y-143980769D01*
X93011296Y-143927599D01*
X93000500Y-143876995D01*
X93000500Y-137361230D01*
X93020185Y-137294191D01*
X93072989Y-137248436D01*
X93142147Y-137238492D01*
X93205703Y-137267517D01*
X93212181Y-137273549D01*
X93281343Y-137342711D01*
X93281347Y-137342714D01*
X93430656Y-137434810D01*
X93430659Y-137434811D01*
X93430665Y-137434815D01*
X93597201Y-137489999D01*
X93699989Y-137500500D01*
X100300010Y-137500499D01*
X100402799Y-137489999D01*
X100569335Y-137434815D01*
X100630151Y-137397303D01*
X100639840Y-137391327D01*
X100688634Y-137361230D01*
X100718656Y-137342712D01*
X100842712Y-137218656D01*
X100934815Y-137069335D01*
X100989999Y-136902799D01*
X101000500Y-136800011D01*
X101000499Y-130199990D01*
X100998567Y-130181081D01*
X100989999Y-130097201D01*
X100989998Y-130097198D01*
X100969408Y-130035061D01*
X100934815Y-129930665D01*
X100934811Y-129930659D01*
X100934810Y-129930656D01*
X100842714Y-129781347D01*
X100842711Y-129781343D01*
X100718656Y-129657288D01*
X100718652Y-129657285D01*
X100569343Y-129565189D01*
X100569337Y-129565186D01*
X100569335Y-129565185D01*
X100569332Y-129565184D01*
X100402800Y-129510001D01*
X100300012Y-129499500D01*
X93699996Y-129499500D01*
X93699979Y-129499501D01*
X93597201Y-129510000D01*
X93597198Y-129510001D01*
X93430667Y-129565184D01*
X93430656Y-129565189D01*
X93281347Y-129657285D01*
X93281343Y-129657288D01*
X93212181Y-129726451D01*
X93150858Y-129759936D01*
X93081166Y-129754952D01*
X93025233Y-129713080D01*
X93000816Y-129647616D01*
X93000500Y-129638770D01*
X93000500Y-129279971D01*
X107699500Y-129279971D01*
X107699500Y-129484674D01*
X107731522Y-129686857D01*
X107794781Y-129881546D01*
X107851427Y-129992718D01*
X107876226Y-130041389D01*
X107887715Y-130063936D01*
X108008028Y-130229536D01*
X108152786Y-130374294D01*
X108318388Y-130494609D01*
X108371828Y-130521839D01*
X108422623Y-130569813D01*
X108439418Y-130637635D01*
X108416880Y-130703769D01*
X108371828Y-130742807D01*
X108318388Y-130770036D01*
X108152786Y-130890351D01*
X108008028Y-131035109D01*
X107887715Y-131200709D01*
X107794781Y-131383099D01*
X107731522Y-131577788D01*
X107699500Y-131779971D01*
X107699500Y-131984674D01*
X107731522Y-132186857D01*
X107794781Y-132381546D01*
X107887715Y-132563936D01*
X108008028Y-132729536D01*
X108152786Y-132874294D01*
X108268841Y-132958611D01*
X108318390Y-132994610D01*
X108434607Y-133053826D01*
X108500776Y-133087541D01*
X108500778Y-133087541D01*
X108500781Y-133087543D01*
X108605137Y-133121450D01*
X108695465Y-133150800D01*
X108796557Y-133166811D01*
X108897648Y-133182823D01*
X108897649Y-133182823D01*
X109102351Y-133182823D01*
X109102352Y-133182823D01*
X109304534Y-133150800D01*
X109499219Y-133087543D01*
X109681610Y-132994610D01*
X109774590Y-132927055D01*
X109847213Y-132874294D01*
X109847215Y-132874291D01*
X109847219Y-132874289D01*
X109991966Y-132729542D01*
X109991968Y-132729538D01*
X109991971Y-132729536D01*
X110044917Y-132656661D01*
X110112287Y-132563933D01*
X110205220Y-132381542D01*
X110268477Y-132186857D01*
X110300500Y-131984675D01*
X110300500Y-131779971D01*
X110297661Y-131762046D01*
X110268477Y-131577788D01*
X110221087Y-131431938D01*
X110205220Y-131383104D01*
X110205218Y-131383101D01*
X110205218Y-131383099D01*
X110162290Y-131298849D01*
X110112287Y-131200713D01*
X110045571Y-131108885D01*
X109991971Y-131035109D01*
X109847213Y-130890351D01*
X109681613Y-130770038D01*
X109681612Y-130770037D01*
X109681610Y-130770036D01*
X109628171Y-130742807D01*
X109577376Y-130694833D01*
X109560581Y-130627012D01*
X109583118Y-130560877D01*
X109628172Y-130521838D01*
X109681610Y-130494610D01*
X109774590Y-130427055D01*
X109847213Y-130374294D01*
X109847215Y-130374291D01*
X109847219Y-130374289D01*
X109991966Y-130229542D01*
X109991968Y-130229538D01*
X109991971Y-130229536D01*
X110068228Y-130124575D01*
X110112287Y-130063933D01*
X110205220Y-129881542D01*
X110207202Y-129875441D01*
X118599500Y-129875441D01*
X118599500Y-130124558D01*
X118599501Y-130124575D01*
X118632017Y-130371561D01*
X118696498Y-130612207D01*
X118791830Y-130842361D01*
X118791837Y-130842376D01*
X118916400Y-131058126D01*
X119068060Y-131255774D01*
X119068066Y-131255781D01*
X119244218Y-131431933D01*
X119244225Y-131431939D01*
X119441873Y-131583599D01*
X119657623Y-131708162D01*
X119657638Y-131708169D01*
X119756825Y-131749253D01*
X119887793Y-131803502D01*
X120128435Y-131867982D01*
X120375435Y-131900500D01*
X120375442Y-131900500D01*
X120624558Y-131900500D01*
X120624565Y-131900500D01*
X120871565Y-131867982D01*
X121112207Y-131803502D01*
X121342373Y-131708164D01*
X121558127Y-131583599D01*
X121755776Y-131431938D01*
X121931938Y-131255776D01*
X122083599Y-131058127D01*
X122208164Y-130842373D01*
X122303502Y-130612207D01*
X122367982Y-130371565D01*
X122400500Y-130124565D01*
X122400500Y-129875441D01*
X136599500Y-129875441D01*
X136599500Y-130124558D01*
X136599501Y-130124575D01*
X136632017Y-130371561D01*
X136696498Y-130612207D01*
X136791830Y-130842361D01*
X136791837Y-130842376D01*
X136916400Y-131058126D01*
X137068060Y-131255774D01*
X137068066Y-131255781D01*
X137244218Y-131431933D01*
X137244225Y-131431939D01*
X137441873Y-131583599D01*
X137657623Y-131708162D01*
X137657638Y-131708169D01*
X137756825Y-131749253D01*
X137887793Y-131803502D01*
X138128435Y-131867982D01*
X138375435Y-131900500D01*
X138375442Y-131900500D01*
X138624558Y-131900500D01*
X138624565Y-131900500D01*
X138871565Y-131867982D01*
X139112207Y-131803502D01*
X139342373Y-131708164D01*
X139558127Y-131583599D01*
X139755776Y-131431938D01*
X139931938Y-131255776D01*
X140083599Y-131058127D01*
X140208164Y-130842373D01*
X140303502Y-130612207D01*
X140367982Y-130371565D01*
X140400500Y-130124565D01*
X140400500Y-129875435D01*
X140387864Y-129779451D01*
X140386213Y-129766911D01*
X140384539Y-129754198D01*
X154999500Y-129754198D01*
X154999500Y-130035061D01*
X155030942Y-130314124D01*
X155030945Y-130314142D01*
X155093439Y-130587947D01*
X155093443Y-130587959D01*
X155186200Y-130853041D01*
X155308053Y-131106072D01*
X155308055Y-131106075D01*
X155457477Y-131343878D01*
X155632584Y-131563455D01*
X155831175Y-131762046D01*
X156050752Y-131937153D01*
X156288555Y-132086575D01*
X156541592Y-132208431D01*
X156734373Y-132275888D01*
X156806670Y-132301186D01*
X156806682Y-132301190D01*
X157080491Y-132363685D01*
X157080497Y-132363685D01*
X157080505Y-132363687D01*
X157266547Y-132384648D01*
X157359569Y-132395129D01*
X157359572Y-132395130D01*
X157359575Y-132395130D01*
X157640428Y-132395130D01*
X157640429Y-132395129D01*
X157783055Y-132379059D01*
X157919494Y-132363687D01*
X157919499Y-132363686D01*
X157919509Y-132363685D01*
X158193318Y-132301190D01*
X158458408Y-132208431D01*
X158711445Y-132086575D01*
X158949248Y-131937153D01*
X159168825Y-131762046D01*
X159367416Y-131563455D01*
X159542523Y-131343878D01*
X159691945Y-131106075D01*
X159813801Y-130853038D01*
X159906560Y-130587948D01*
X159969055Y-130314139D01*
X159978588Y-130229536D01*
X159984429Y-130177685D01*
X160000500Y-130035055D01*
X160000500Y-129754205D01*
X160000499Y-129754198D01*
X182499500Y-129754198D01*
X182499500Y-130035061D01*
X182530942Y-130314124D01*
X182530945Y-130314142D01*
X182593439Y-130587947D01*
X182593443Y-130587959D01*
X182686200Y-130853041D01*
X182808053Y-131106072D01*
X182808055Y-131106075D01*
X182957477Y-131343878D01*
X183132584Y-131563455D01*
X183331175Y-131762046D01*
X183550752Y-131937153D01*
X183788555Y-132086575D01*
X184041592Y-132208431D01*
X184234373Y-132275888D01*
X184306670Y-132301186D01*
X184306682Y-132301190D01*
X184580491Y-132363685D01*
X184580497Y-132363685D01*
X184580505Y-132363687D01*
X184766547Y-132384648D01*
X184859569Y-132395129D01*
X184859572Y-132395130D01*
X184859575Y-132395130D01*
X185140428Y-132395130D01*
X185140429Y-132395129D01*
X185283055Y-132379059D01*
X185419494Y-132363687D01*
X185419499Y-132363686D01*
X185419509Y-132363685D01*
X185693318Y-132301190D01*
X185958408Y-132208431D01*
X186211445Y-132086575D01*
X186449248Y-131937153D01*
X186668825Y-131762046D01*
X186867416Y-131563455D01*
X187022591Y-131368872D01*
X201199500Y-131368872D01*
X201199500Y-131631127D01*
X201216737Y-131762046D01*
X201233730Y-131891116D01*
X201246066Y-131937153D01*
X201301602Y-132144418D01*
X201301605Y-132144428D01*
X201401953Y-132386690D01*
X201401958Y-132386700D01*
X201533075Y-132613803D01*
X201692718Y-132821851D01*
X201692726Y-132821860D01*
X201878140Y-133007274D01*
X201878148Y-133007281D01*
X202086196Y-133166924D01*
X202313299Y-133298041D01*
X202313309Y-133298046D01*
X202555571Y-133398394D01*
X202555581Y-133398398D01*
X202808884Y-133466270D01*
X203068880Y-133500500D01*
X203068887Y-133500500D01*
X203331113Y-133500500D01*
X203331120Y-133500500D01*
X203591116Y-133466270D01*
X203844419Y-133398398D01*
X204086697Y-133298043D01*
X204313803Y-133166924D01*
X204521851Y-133007282D01*
X204521855Y-133007277D01*
X204521860Y-133007274D01*
X204707274Y-132821860D01*
X204707277Y-132821855D01*
X204707282Y-132821851D01*
X204866924Y-132613803D01*
X204998043Y-132386697D01*
X205098398Y-132144419D01*
X205166270Y-131891116D01*
X205200500Y-131631120D01*
X205200500Y-131368880D01*
X205166270Y-131108884D01*
X205098398Y-130855581D01*
X205051686Y-130742808D01*
X204998046Y-130613309D01*
X204998041Y-130613299D01*
X204866924Y-130386196D01*
X204709531Y-130181080D01*
X204707282Y-130178149D01*
X204707281Y-130178148D01*
X204707274Y-130178140D01*
X204521860Y-129992726D01*
X204521851Y-129992718D01*
X204313803Y-129833075D01*
X204086700Y-129701958D01*
X204086690Y-129701953D01*
X203844428Y-129601605D01*
X203844421Y-129601603D01*
X203844419Y-129601602D01*
X203591116Y-129533730D01*
X203533339Y-129526123D01*
X203331127Y-129499500D01*
X203331120Y-129499500D01*
X203068880Y-129499500D01*
X203068872Y-129499500D01*
X202837772Y-129529926D01*
X202808884Y-129533730D01*
X202691492Y-129565185D01*
X202555581Y-129601602D01*
X202555571Y-129601605D01*
X202313309Y-129701953D01*
X202313299Y-129701958D01*
X202086196Y-129833075D01*
X201878148Y-129992718D01*
X201692718Y-130178148D01*
X201533075Y-130386196D01*
X201401958Y-130613299D01*
X201401953Y-130613309D01*
X201301605Y-130855571D01*
X201301602Y-130855581D01*
X201234484Y-131106072D01*
X201233730Y-131108885D01*
X201199500Y-131368872D01*
X187022591Y-131368872D01*
X187042523Y-131343878D01*
X187042526Y-131343872D01*
X187042530Y-131343868D01*
X187070815Y-131298852D01*
X187070817Y-131298849D01*
X187132482Y-131200709D01*
X187191945Y-131106075D01*
X187313801Y-130853038D01*
X187406560Y-130587948D01*
X187469055Y-130314139D01*
X187478588Y-130229536D01*
X187484429Y-130177685D01*
X187500500Y-130035055D01*
X187500500Y-129754205D01*
X187486330Y-129628438D01*
X187469057Y-129475135D01*
X187469054Y-129475117D01*
X187406560Y-129201312D01*
X187406556Y-129201300D01*
X187315778Y-128941873D01*
X187313801Y-128936222D01*
X187191945Y-128683185D01*
X187042523Y-128445382D01*
X186867416Y-128225805D01*
X186668825Y-128027214D01*
X186449248Y-127852107D01*
X186211445Y-127702685D01*
X186211442Y-127702683D01*
X185958411Y-127580830D01*
X185693329Y-127488073D01*
X185693317Y-127488069D01*
X185419512Y-127425575D01*
X185419494Y-127425572D01*
X185140431Y-127394130D01*
X185140425Y-127394130D01*
X184859575Y-127394130D01*
X184859568Y-127394130D01*
X184580505Y-127425572D01*
X184580487Y-127425575D01*
X184306682Y-127488069D01*
X184306670Y-127488073D01*
X184041588Y-127580830D01*
X183788557Y-127702683D01*
X183550753Y-127852106D01*
X183331175Y-128027213D01*
X183132583Y-128225805D01*
X182957476Y-128445383D01*
X182808053Y-128683187D01*
X182686200Y-128936218D01*
X182593443Y-129201300D01*
X182593439Y-129201312D01*
X182530945Y-129475117D01*
X182530942Y-129475135D01*
X182499500Y-129754198D01*
X160000499Y-129754198D01*
X159986330Y-129628438D01*
X159969057Y-129475135D01*
X159969054Y-129475117D01*
X159906560Y-129201312D01*
X159906556Y-129201300D01*
X159815778Y-128941873D01*
X159813801Y-128936222D01*
X159691945Y-128683185D01*
X159542523Y-128445382D01*
X159367416Y-128225805D01*
X159168825Y-128027214D01*
X158949248Y-127852107D01*
X158711445Y-127702685D01*
X158711442Y-127702683D01*
X158458411Y-127580830D01*
X158193329Y-127488073D01*
X158193317Y-127488069D01*
X157919512Y-127425575D01*
X157919494Y-127425572D01*
X157640431Y-127394130D01*
X157640425Y-127394130D01*
X157359575Y-127394130D01*
X157359568Y-127394130D01*
X157080505Y-127425572D01*
X157080487Y-127425575D01*
X156806682Y-127488069D01*
X156806670Y-127488073D01*
X156541588Y-127580830D01*
X156288557Y-127702683D01*
X156050753Y-127852106D01*
X155831175Y-128027213D01*
X155632583Y-128225805D01*
X155457476Y-128445383D01*
X155308053Y-128683187D01*
X155186200Y-128936218D01*
X155093443Y-129201300D01*
X155093439Y-129201312D01*
X155030945Y-129475117D01*
X155030942Y-129475135D01*
X154999500Y-129754198D01*
X140384539Y-129754198D01*
X140375417Y-129684910D01*
X140367982Y-129628435D01*
X140303502Y-129387793D01*
X140208164Y-129157627D01*
X140083599Y-128941873D01*
X139931938Y-128744224D01*
X139931933Y-128744218D01*
X139755781Y-128568066D01*
X139755774Y-128568060D01*
X139558126Y-128416400D01*
X139342376Y-128291837D01*
X139342361Y-128291830D01*
X139112207Y-128196498D01*
X138871561Y-128132017D01*
X138624575Y-128099501D01*
X138624570Y-128099500D01*
X138624565Y-128099500D01*
X138375435Y-128099500D01*
X138375429Y-128099500D01*
X138375424Y-128099501D01*
X138128438Y-128132017D01*
X137887792Y-128196498D01*
X137657638Y-128291830D01*
X137657623Y-128291837D01*
X137441873Y-128416400D01*
X137244225Y-128568060D01*
X137244218Y-128568066D01*
X137068066Y-128744218D01*
X137068060Y-128744225D01*
X136916400Y-128941873D01*
X136791837Y-129157623D01*
X136791830Y-129157638D01*
X136696498Y-129387792D01*
X136632017Y-129628438D01*
X136599501Y-129875424D01*
X136599500Y-129875441D01*
X122400500Y-129875441D01*
X122400500Y-129875435D01*
X122367982Y-129628435D01*
X122303502Y-129387793D01*
X122208164Y-129157627D01*
X122083599Y-128941873D01*
X121931938Y-128744224D01*
X121931933Y-128744218D01*
X121755781Y-128568066D01*
X121755774Y-128568060D01*
X121558126Y-128416400D01*
X121342376Y-128291837D01*
X121342361Y-128291830D01*
X121112207Y-128196498D01*
X120871561Y-128132017D01*
X120624575Y-128099501D01*
X120624570Y-128099500D01*
X120624565Y-128099500D01*
X120375435Y-128099500D01*
X120375429Y-128099500D01*
X120375424Y-128099501D01*
X120128438Y-128132017D01*
X119887792Y-128196498D01*
X119657638Y-128291830D01*
X119657623Y-128291837D01*
X119441873Y-128416400D01*
X119244225Y-128568060D01*
X119244218Y-128568066D01*
X119068066Y-128744218D01*
X119068060Y-128744225D01*
X118916400Y-128941873D01*
X118791837Y-129157623D01*
X118791830Y-129157638D01*
X118696498Y-129387792D01*
X118632017Y-129628438D01*
X118599501Y-129875424D01*
X118599500Y-129875441D01*
X110207202Y-129875441D01*
X110268477Y-129686857D01*
X110300500Y-129484675D01*
X110300500Y-129279971D01*
X110268477Y-129077789D01*
X110205220Y-128883104D01*
X110205218Y-128883101D01*
X110205218Y-128883099D01*
X110171503Y-128816930D01*
X110112287Y-128700713D01*
X110099552Y-128683185D01*
X109991971Y-128535109D01*
X109847213Y-128390351D01*
X109681613Y-128270038D01*
X109681612Y-128270037D01*
X109681610Y-128270036D01*
X109594802Y-128225805D01*
X109499223Y-128177104D01*
X109304534Y-128113845D01*
X109129995Y-128086201D01*
X109102352Y-128081823D01*
X108897648Y-128081823D01*
X108873329Y-128085674D01*
X108695465Y-128113845D01*
X108500776Y-128177104D01*
X108318386Y-128270038D01*
X108152786Y-128390351D01*
X108008028Y-128535109D01*
X107887715Y-128700709D01*
X107794781Y-128883099D01*
X107731522Y-129077788D01*
X107699500Y-129279971D01*
X93000500Y-129279971D01*
X93000500Y-123860524D01*
X93020185Y-123793485D01*
X93072989Y-123747730D01*
X93142147Y-123737786D01*
X93205703Y-123766811D01*
X93212181Y-123772843D01*
X93281653Y-123842315D01*
X93430873Y-123934357D01*
X93597301Y-123989505D01*
X93700012Y-123999999D01*
X93700025Y-124000000D01*
X96750000Y-124000000D01*
X96750000Y-122186070D01*
X96855804Y-122200000D01*
X97144196Y-122200000D01*
X97250000Y-122186070D01*
X97250000Y-124000000D01*
X100299975Y-124000000D01*
X100299987Y-123999999D01*
X100402698Y-123989505D01*
X100569126Y-123934357D01*
X100705915Y-123849983D01*
X212649500Y-123849983D01*
X212649500Y-125150001D01*
X212649501Y-125150018D01*
X212660000Y-125252796D01*
X212660001Y-125252799D01*
X212715185Y-125419331D01*
X212715186Y-125419334D01*
X212807288Y-125568656D01*
X212931344Y-125692712D01*
X213080666Y-125784814D01*
X213247203Y-125839999D01*
X213349991Y-125850500D01*
X214650008Y-125850499D01*
X214752797Y-125839999D01*
X214919334Y-125784814D01*
X215068656Y-125692712D01*
X215192712Y-125568656D01*
X215284814Y-125419334D01*
X215339999Y-125252797D01*
X215350500Y-125150009D01*
X215350499Y-123849992D01*
X215339999Y-123747203D01*
X215284814Y-123580666D01*
X215192712Y-123431344D01*
X215068656Y-123307288D01*
X214919334Y-123215186D01*
X214752797Y-123160001D01*
X214752795Y-123160000D01*
X214650010Y-123149500D01*
X213349998Y-123149500D01*
X213349981Y-123149501D01*
X213247203Y-123160000D01*
X213247200Y-123160001D01*
X213080668Y-123215185D01*
X213080663Y-123215187D01*
X212931342Y-123307289D01*
X212807289Y-123431342D01*
X212715187Y-123580663D01*
X212715186Y-123580666D01*
X212660001Y-123747203D01*
X212660001Y-123747204D01*
X212660000Y-123747204D01*
X212649500Y-123849983D01*
X100705915Y-123849983D01*
X100718346Y-123842315D01*
X100801509Y-123759153D01*
X100842315Y-123718346D01*
X100934357Y-123569126D01*
X100989505Y-123402698D01*
X100999999Y-123299987D01*
X101000000Y-123299974D01*
X101000000Y-120250000D01*
X99186070Y-120250000D01*
X99200000Y-120144196D01*
X99200000Y-119855804D01*
X99186070Y-119750000D01*
X101000000Y-119750000D01*
X101000000Y-116952135D01*
X118599500Y-116952135D01*
X118599500Y-119847870D01*
X118599501Y-119847876D01*
X118605908Y-119907483D01*
X118656202Y-120042328D01*
X118656206Y-120042335D01*
X118742452Y-120157544D01*
X118742455Y-120157547D01*
X118857664Y-120243793D01*
X118857671Y-120243797D01*
X118992517Y-120294091D01*
X118992516Y-120294091D01*
X118999444Y-120294835D01*
X119052127Y-120300500D01*
X121947872Y-120300499D01*
X122007483Y-120294091D01*
X122142331Y-120243796D01*
X122257546Y-120157546D01*
X122343796Y-120042331D01*
X122394091Y-119907483D01*
X122400500Y-119847873D01*
X122400499Y-118094643D01*
X155000000Y-118094643D01*
X155000000Y-119644630D01*
X156530137Y-119644630D01*
X156500000Y-119796139D01*
X156500000Y-119993121D01*
X156530137Y-120144630D01*
X155000001Y-120144630D01*
X155000001Y-121694616D01*
X155010494Y-121797327D01*
X155065641Y-121963749D01*
X155065643Y-121963754D01*
X155157684Y-122112975D01*
X155281654Y-122236945D01*
X155430875Y-122328986D01*
X155430880Y-122328988D01*
X155597302Y-122384135D01*
X155597309Y-122384136D01*
X155700019Y-122394629D01*
X157249999Y-122394629D01*
X157250000Y-122394628D01*
X157250000Y-120864493D01*
X157401509Y-120894630D01*
X157598491Y-120894630D01*
X157750000Y-120864493D01*
X157750000Y-122394629D01*
X159299972Y-122394629D01*
X159299986Y-122394628D01*
X159402697Y-122384135D01*
X159569119Y-122328988D01*
X159569124Y-122328986D01*
X159718345Y-122236945D01*
X159842315Y-122112975D01*
X159934356Y-121963754D01*
X159934358Y-121963749D01*
X159989505Y-121797327D01*
X159989506Y-121797320D01*
X159999999Y-121694616D01*
X160000000Y-121694603D01*
X160000000Y-120144630D01*
X158469863Y-120144630D01*
X158500000Y-119993121D01*
X158500000Y-119796139D01*
X158469863Y-119644630D01*
X159999999Y-119644630D01*
X159999999Y-118094659D01*
X159999998Y-118094643D01*
X182500000Y-118094643D01*
X182500000Y-119644630D01*
X184030137Y-119644630D01*
X184000000Y-119796139D01*
X184000000Y-119993121D01*
X184030137Y-120144630D01*
X182500001Y-120144630D01*
X182500001Y-121694616D01*
X182510494Y-121797327D01*
X182565641Y-121963749D01*
X182565643Y-121963754D01*
X182657684Y-122112975D01*
X182781654Y-122236945D01*
X182930875Y-122328986D01*
X182930880Y-122328988D01*
X183097302Y-122384135D01*
X183097309Y-122384136D01*
X183200019Y-122394629D01*
X184749999Y-122394629D01*
X184750000Y-122394628D01*
X184750000Y-120864493D01*
X184901509Y-120894630D01*
X185098491Y-120894630D01*
X185250000Y-120864493D01*
X185250000Y-122394629D01*
X186799972Y-122394629D01*
X186799986Y-122394628D01*
X186902697Y-122384135D01*
X187069119Y-122328988D01*
X187069124Y-122328986D01*
X187218345Y-122236945D01*
X187342315Y-122112975D01*
X187434356Y-121963754D01*
X187434358Y-121963749D01*
X187489505Y-121797327D01*
X187489506Y-121797320D01*
X187499999Y-121694616D01*
X187500000Y-121694603D01*
X187500000Y-120649986D01*
X212650001Y-120649986D01*
X212660494Y-120752697D01*
X212715641Y-120919119D01*
X212715643Y-120919124D01*
X212807684Y-121068345D01*
X212931654Y-121192315D01*
X213080875Y-121284356D01*
X213080880Y-121284358D01*
X213247302Y-121339505D01*
X213247309Y-121339506D01*
X213350019Y-121349999D01*
X213749999Y-121349999D01*
X214250000Y-121349999D01*
X214649972Y-121349999D01*
X214649986Y-121349998D01*
X214752697Y-121339505D01*
X214919119Y-121284358D01*
X214919124Y-121284356D01*
X215068345Y-121192315D01*
X215192315Y-121068345D01*
X215284356Y-120919124D01*
X215284358Y-120919119D01*
X215339505Y-120752697D01*
X215339506Y-120752690D01*
X215349999Y-120649986D01*
X215350000Y-120649973D01*
X215350000Y-120250000D01*
X214250000Y-120250000D01*
X214250000Y-121349999D01*
X213749999Y-121349999D01*
X213750000Y-121349998D01*
X213750000Y-120250000D01*
X212650001Y-120250000D01*
X212650001Y-120649986D01*
X187500000Y-120649986D01*
X187500000Y-120144630D01*
X185969863Y-120144630D01*
X186000000Y-119993121D01*
X186000000Y-119953922D01*
X213650000Y-119953922D01*
X213650000Y-120046078D01*
X213673852Y-120135095D01*
X213719930Y-120214905D01*
X213785095Y-120280070D01*
X213864905Y-120326148D01*
X213953922Y-120350000D01*
X214046078Y-120350000D01*
X214135095Y-120326148D01*
X214214905Y-120280070D01*
X214280070Y-120214905D01*
X214326148Y-120135095D01*
X214350000Y-120046078D01*
X214350000Y-119953922D01*
X214326148Y-119864905D01*
X214280070Y-119785095D01*
X214244975Y-119750000D01*
X214250000Y-119750000D01*
X215349999Y-119750000D01*
X215349999Y-119350028D01*
X215349998Y-119350013D01*
X215339505Y-119247302D01*
X215284358Y-119080880D01*
X215284356Y-119080875D01*
X215192315Y-118931654D01*
X215068345Y-118807684D01*
X214919124Y-118715643D01*
X214919119Y-118715641D01*
X214752697Y-118660494D01*
X214752690Y-118660493D01*
X214649986Y-118650000D01*
X214250000Y-118650000D01*
X214250000Y-119750000D01*
X214244975Y-119750000D01*
X214214905Y-119719930D01*
X214135095Y-119673852D01*
X214046078Y-119650000D01*
X213953922Y-119650000D01*
X213864905Y-119673852D01*
X213785095Y-119719930D01*
X213719930Y-119785095D01*
X213673852Y-119864905D01*
X213650000Y-119953922D01*
X186000000Y-119953922D01*
X186000000Y-119796139D01*
X185969863Y-119644630D01*
X187499999Y-119644630D01*
X187499999Y-119350013D01*
X212650000Y-119350013D01*
X212650000Y-119750000D01*
X213750000Y-119750000D01*
X213750000Y-118650000D01*
X213350028Y-118650000D01*
X213350012Y-118650001D01*
X213247302Y-118660494D01*
X213080880Y-118715641D01*
X213080875Y-118715643D01*
X212931654Y-118807684D01*
X212807684Y-118931654D01*
X212715643Y-119080875D01*
X212715641Y-119080880D01*
X212660494Y-119247302D01*
X212660493Y-119247309D01*
X212650000Y-119350013D01*
X187499999Y-119350013D01*
X187499999Y-118094658D01*
X187499998Y-118094643D01*
X187489505Y-117991932D01*
X187434358Y-117825510D01*
X187434356Y-117825505D01*
X187342315Y-117676284D01*
X187218345Y-117552314D01*
X187069124Y-117460273D01*
X187069119Y-117460271D01*
X186902697Y-117405124D01*
X186902690Y-117405123D01*
X186799986Y-117394630D01*
X185250000Y-117394630D01*
X185250000Y-118924766D01*
X185098491Y-118894630D01*
X184901509Y-118894630D01*
X184750000Y-118924766D01*
X184750000Y-117394630D01*
X183200028Y-117394630D01*
X183200012Y-117394631D01*
X183097302Y-117405124D01*
X182930880Y-117460271D01*
X182930875Y-117460273D01*
X182781654Y-117552314D01*
X182657684Y-117676284D01*
X182565643Y-117825505D01*
X182565641Y-117825510D01*
X182510494Y-117991932D01*
X182510493Y-117991939D01*
X182500000Y-118094643D01*
X159999998Y-118094643D01*
X159999998Y-118094642D01*
X159989505Y-117991932D01*
X159934358Y-117825510D01*
X159934356Y-117825505D01*
X159842315Y-117676284D01*
X159718345Y-117552314D01*
X159569124Y-117460273D01*
X159569119Y-117460271D01*
X159402697Y-117405124D01*
X159402690Y-117405123D01*
X159299986Y-117394630D01*
X157750000Y-117394630D01*
X157750000Y-118924766D01*
X157598491Y-118894630D01*
X157401509Y-118894630D01*
X157250000Y-118924766D01*
X157250000Y-117394630D01*
X155700028Y-117394630D01*
X155700012Y-117394631D01*
X155597302Y-117405124D01*
X155430880Y-117460271D01*
X155430875Y-117460273D01*
X155281654Y-117552314D01*
X155157684Y-117676284D01*
X155065643Y-117825505D01*
X155065641Y-117825510D01*
X155010494Y-117991932D01*
X155010493Y-117991939D01*
X155000000Y-118094643D01*
X122400499Y-118094643D01*
X122400499Y-116952128D01*
X122394091Y-116892517D01*
X122343796Y-116757669D01*
X122343795Y-116757668D01*
X122343793Y-116757664D01*
X122257547Y-116642455D01*
X122257544Y-116642452D01*
X122142335Y-116556206D01*
X122142328Y-116556202D01*
X122007482Y-116505908D01*
X122007483Y-116505908D01*
X121947883Y-116499501D01*
X121947881Y-116499500D01*
X121947873Y-116499500D01*
X121947864Y-116499500D01*
X119052129Y-116499500D01*
X119052123Y-116499501D01*
X118992516Y-116505908D01*
X118857671Y-116556202D01*
X118857664Y-116556206D01*
X118742455Y-116642452D01*
X118742452Y-116642455D01*
X118656206Y-116757664D01*
X118656202Y-116757671D01*
X118605908Y-116892517D01*
X118599501Y-116952116D01*
X118599501Y-116952123D01*
X118599500Y-116952135D01*
X101000000Y-116952135D01*
X101000000Y-116700025D01*
X100999999Y-116700012D01*
X100989505Y-116597301D01*
X100934357Y-116430873D01*
X100842315Y-116281653D01*
X100718346Y-116157684D01*
X100569126Y-116065642D01*
X100402698Y-116010494D01*
X100299987Y-116000000D01*
X97250000Y-116000000D01*
X97250000Y-117813929D01*
X97144196Y-117800000D01*
X96855804Y-117800000D01*
X96750000Y-117813929D01*
X96750000Y-116000000D01*
X93700012Y-116000000D01*
X93597301Y-116010494D01*
X93430873Y-116065642D01*
X93281653Y-116157684D01*
X93212181Y-116227157D01*
X93150858Y-116260642D01*
X93081166Y-116255658D01*
X93025233Y-116213786D01*
X93000816Y-116148322D01*
X93000500Y-116139476D01*
X93000500Y-115349983D01*
X212649500Y-115349983D01*
X212649500Y-116650001D01*
X212649501Y-116650018D01*
X212660000Y-116752796D01*
X212660001Y-116752799D01*
X212706299Y-116892516D01*
X212715186Y-116919334D01*
X212807288Y-117068656D01*
X212931344Y-117192712D01*
X213080666Y-117284814D01*
X213247203Y-117339999D01*
X213349991Y-117350500D01*
X214650008Y-117350499D01*
X214752797Y-117339999D01*
X214919334Y-117284814D01*
X215068656Y-117192712D01*
X215192712Y-117068656D01*
X215284814Y-116919334D01*
X215339999Y-116752797D01*
X215350500Y-116650009D01*
X215350499Y-115349992D01*
X215339999Y-115247203D01*
X215284814Y-115080666D01*
X215192712Y-114931344D01*
X215068656Y-114807288D01*
X214919334Y-114715186D01*
X214752797Y-114660001D01*
X214752795Y-114660000D01*
X214650010Y-114649500D01*
X213349998Y-114649500D01*
X213349981Y-114649501D01*
X213247203Y-114660000D01*
X213247200Y-114660001D01*
X213080668Y-114715185D01*
X213080663Y-114715187D01*
X212931342Y-114807289D01*
X212807289Y-114931342D01*
X212715187Y-115080663D01*
X212715186Y-115080666D01*
X212660001Y-115247203D01*
X212660001Y-115247204D01*
X212660000Y-115247204D01*
X212649500Y-115349983D01*
X93000500Y-115349983D01*
X93000500Y-112860524D01*
X93020185Y-112793485D01*
X93072989Y-112747730D01*
X93142147Y-112737786D01*
X93205703Y-112766811D01*
X93212181Y-112772843D01*
X93281653Y-112842315D01*
X93430873Y-112934357D01*
X93597301Y-112989505D01*
X93700012Y-112999999D01*
X93700025Y-113000000D01*
X96750000Y-113000000D01*
X96750000Y-111186070D01*
X96855804Y-111200000D01*
X97144196Y-111200000D01*
X97250000Y-111186070D01*
X97250000Y-113000000D01*
X100299975Y-113000000D01*
X100299987Y-112999999D01*
X100402698Y-112989505D01*
X100569126Y-112934357D01*
X100718346Y-112842315D01*
X100842315Y-112718346D01*
X100934357Y-112569126D01*
X100989505Y-112402698D01*
X100999999Y-112299987D01*
X101000000Y-112299974D01*
X101000000Y-111875441D01*
X136599500Y-111875441D01*
X136599500Y-112124558D01*
X136599501Y-112124575D01*
X136632017Y-112371561D01*
X136696498Y-112612207D01*
X136791830Y-112842361D01*
X136791837Y-112842376D01*
X136916400Y-113058126D01*
X137068060Y-113255774D01*
X137068066Y-113255781D01*
X137244218Y-113431933D01*
X137244225Y-113431939D01*
X137441873Y-113583599D01*
X137657623Y-113708162D01*
X137657638Y-113708169D01*
X137756825Y-113749253D01*
X137887793Y-113803502D01*
X138128435Y-113867982D01*
X138375435Y-113900500D01*
X138375442Y-113900500D01*
X138624558Y-113900500D01*
X138624565Y-113900500D01*
X138871565Y-113867982D01*
X139112207Y-113803502D01*
X139342373Y-113708164D01*
X139558127Y-113583599D01*
X139755776Y-113431938D01*
X139931938Y-113255776D01*
X140083599Y-113058127D01*
X140208164Y-112842373D01*
X140303502Y-112612207D01*
X140367982Y-112371565D01*
X140400500Y-112124565D01*
X140400500Y-111875435D01*
X140367982Y-111628435D01*
X140303502Y-111387793D01*
X140249253Y-111256825D01*
X140208169Y-111157638D01*
X140208162Y-111157623D01*
X140083599Y-110941873D01*
X139931939Y-110744225D01*
X139931933Y-110744218D01*
X139755781Y-110568066D01*
X139755774Y-110568060D01*
X139558126Y-110416400D01*
X139342376Y-110291837D01*
X139342361Y-110291830D01*
X139112207Y-110196498D01*
X138871561Y-110132017D01*
X138624575Y-110099501D01*
X138624570Y-110099500D01*
X138624565Y-110099500D01*
X138375435Y-110099500D01*
X138375429Y-110099500D01*
X138375424Y-110099501D01*
X138128438Y-110132017D01*
X137887792Y-110196498D01*
X137657638Y-110291830D01*
X137657623Y-110291837D01*
X137441873Y-110416400D01*
X137244225Y-110568060D01*
X137244218Y-110568066D01*
X137068066Y-110744218D01*
X137068060Y-110744225D01*
X136916400Y-110941873D01*
X136791837Y-111157623D01*
X136791830Y-111157638D01*
X136696498Y-111387792D01*
X136632017Y-111628438D01*
X136599501Y-111875424D01*
X136599500Y-111875441D01*
X101000000Y-111875441D01*
X101000000Y-109250000D01*
X99186070Y-109250000D01*
X99200000Y-109144196D01*
X99200000Y-108855804D01*
X99186070Y-108750000D01*
X101000000Y-108750000D01*
X101000000Y-105700025D01*
X100999999Y-105700012D01*
X100989505Y-105597301D01*
X100934357Y-105430873D01*
X100842315Y-105281653D01*
X100718346Y-105157684D01*
X100569126Y-105065642D01*
X100402698Y-105010494D01*
X100299987Y-105000000D01*
X97250000Y-105000000D01*
X97250000Y-106813929D01*
X97144196Y-106800000D01*
X96855804Y-106800000D01*
X96750000Y-106813929D01*
X96750000Y-105000000D01*
X93700012Y-105000000D01*
X93597301Y-105010494D01*
X93430873Y-105065642D01*
X93281653Y-105157684D01*
X93212181Y-105227157D01*
X93150858Y-105260642D01*
X93081166Y-105255658D01*
X93025233Y-105213786D01*
X93000816Y-105148322D01*
X93000500Y-105139476D01*
X93000500Y-103859598D01*
X155500000Y-103859598D01*
X155500000Y-104140401D01*
X155531437Y-104419412D01*
X155531439Y-104419424D01*
X155593921Y-104693178D01*
X155593922Y-104693180D01*
X155686662Y-104958217D01*
X155808492Y-105211200D01*
X155957884Y-105448956D01*
X156064187Y-105582257D01*
X157137425Y-104509019D01*
X157223249Y-104637463D01*
X157362537Y-104776751D01*
X157490979Y-104862573D01*
X156417741Y-105935810D01*
X156417741Y-105935811D01*
X156551043Y-106042115D01*
X156788799Y-106191507D01*
X157041782Y-106313337D01*
X157306819Y-106406077D01*
X157306821Y-106406078D01*
X157580575Y-106468560D01*
X157580587Y-106468562D01*
X157859598Y-106499999D01*
X157859600Y-106500000D01*
X158140400Y-106500000D01*
X158140401Y-106499999D01*
X158419412Y-106468562D01*
X158419424Y-106468560D01*
X158693178Y-106406078D01*
X158693180Y-106406077D01*
X158799506Y-106368872D01*
X200699500Y-106368872D01*
X200699500Y-106631127D01*
X200721734Y-106800000D01*
X200733730Y-106891116D01*
X200801602Y-107144418D01*
X200801605Y-107144428D01*
X200901953Y-107386690D01*
X200901958Y-107386700D01*
X201033075Y-107613803D01*
X201192718Y-107821851D01*
X201192726Y-107821860D01*
X201378140Y-108007274D01*
X201378148Y-108007281D01*
X201586196Y-108166924D01*
X201813299Y-108298041D01*
X201813309Y-108298046D01*
X202055571Y-108398394D01*
X202055581Y-108398398D01*
X202308884Y-108466270D01*
X202568880Y-108500500D01*
X202568887Y-108500500D01*
X202831113Y-108500500D01*
X202831120Y-108500500D01*
X203091116Y-108466270D01*
X203344419Y-108398398D01*
X203586697Y-108298043D01*
X203813803Y-108166924D01*
X204021851Y-108007282D01*
X204021855Y-108007277D01*
X204021860Y-108007274D01*
X204207274Y-107821860D01*
X204207277Y-107821855D01*
X204207282Y-107821851D01*
X204366924Y-107613803D01*
X204498043Y-107386697D01*
X204598398Y-107144419D01*
X204666270Y-106891116D01*
X204700500Y-106631120D01*
X204700500Y-106368880D01*
X204666270Y-106108884D01*
X204598398Y-105855581D01*
X204575669Y-105800708D01*
X204498046Y-105613309D01*
X204498041Y-105613299D01*
X204366924Y-105386196D01*
X204207281Y-105178148D01*
X204207274Y-105178140D01*
X204021860Y-104992726D01*
X204021851Y-104992718D01*
X203813803Y-104833075D01*
X203586700Y-104701958D01*
X203586690Y-104701953D01*
X203344428Y-104601605D01*
X203344421Y-104601603D01*
X203344419Y-104601602D01*
X203091116Y-104533730D01*
X203033339Y-104526123D01*
X202831127Y-104499500D01*
X202831120Y-104499500D01*
X202568880Y-104499500D01*
X202568872Y-104499500D01*
X202337772Y-104529926D01*
X202308884Y-104533730D01*
X202055581Y-104601602D01*
X202055571Y-104601605D01*
X201813309Y-104701953D01*
X201813299Y-104701958D01*
X201586196Y-104833075D01*
X201378148Y-104992718D01*
X201192718Y-105178148D01*
X201033075Y-105386196D01*
X200901958Y-105613299D01*
X200901953Y-105613309D01*
X200801605Y-105855571D01*
X200801602Y-105855581D01*
X200751621Y-106042116D01*
X200733730Y-106108885D01*
X200699500Y-106368872D01*
X158799506Y-106368872D01*
X158958217Y-106313337D01*
X159083300Y-106253101D01*
X159211200Y-106191507D01*
X159448956Y-106042116D01*
X159582257Y-105935810D01*
X158509020Y-104862573D01*
X158637463Y-104776751D01*
X158776751Y-104637463D01*
X158862573Y-104509020D01*
X159935810Y-105582257D01*
X160042116Y-105448956D01*
X160188478Y-105216022D01*
X160188479Y-105216020D01*
X160191504Y-105211205D01*
X160191505Y-105211204D01*
X160313337Y-104958217D01*
X160406077Y-104693180D01*
X160406078Y-104693178D01*
X160468560Y-104419424D01*
X160468562Y-104419412D01*
X160499999Y-104140401D01*
X160500000Y-104140399D01*
X160500000Y-103859600D01*
X160499999Y-103859598D01*
X160468562Y-103580587D01*
X160468560Y-103580575D01*
X160406078Y-103306821D01*
X160406077Y-103306819D01*
X160400790Y-103291708D01*
X160387675Y-103254228D01*
X183000000Y-103254228D01*
X183000000Y-103535031D01*
X183031437Y-103814042D01*
X183031439Y-103814054D01*
X183093921Y-104087808D01*
X183093922Y-104087810D01*
X183186662Y-104352847D01*
X183308492Y-104605830D01*
X183457884Y-104843586D01*
X183564187Y-104976887D01*
X184637425Y-103903649D01*
X184723249Y-104032093D01*
X184862537Y-104171381D01*
X184990979Y-104257203D01*
X183917741Y-105330440D01*
X183917741Y-105330441D01*
X184051043Y-105436745D01*
X184288799Y-105586137D01*
X184541782Y-105707967D01*
X184806819Y-105800707D01*
X184806821Y-105800708D01*
X185080575Y-105863190D01*
X185080587Y-105863192D01*
X185359598Y-105894629D01*
X185359600Y-105894630D01*
X185640400Y-105894630D01*
X185640401Y-105894629D01*
X185919412Y-105863192D01*
X185919424Y-105863190D01*
X186193178Y-105800708D01*
X186193180Y-105800707D01*
X186458217Y-105707967D01*
X186711200Y-105586137D01*
X186948956Y-105436746D01*
X187082257Y-105330440D01*
X186009020Y-104257203D01*
X186137463Y-104171381D01*
X186276751Y-104032093D01*
X186362573Y-103903650D01*
X187435810Y-104976887D01*
X187542116Y-104843586D01*
X187691507Y-104605830D01*
X187813337Y-104352847D01*
X187906077Y-104087810D01*
X187906078Y-104087808D01*
X187968560Y-103814054D01*
X187968562Y-103814042D01*
X187999999Y-103535031D01*
X188000000Y-103535029D01*
X188000000Y-103254230D01*
X187999999Y-103254228D01*
X187968562Y-102975217D01*
X187968560Y-102975205D01*
X187906078Y-102701451D01*
X187906077Y-102701449D01*
X187813337Y-102436412D01*
X187691507Y-102183429D01*
X187542115Y-101945673D01*
X187435810Y-101812371D01*
X186362573Y-102885608D01*
X186276751Y-102757167D01*
X186137463Y-102617879D01*
X186009020Y-102532055D01*
X187082257Y-101458817D01*
X186948956Y-101352514D01*
X186711200Y-101203122D01*
X186458217Y-101081292D01*
X186193180Y-100988552D01*
X186193178Y-100988551D01*
X185919424Y-100926069D01*
X185919412Y-100926067D01*
X185640401Y-100894630D01*
X185359598Y-100894630D01*
X185080587Y-100926067D01*
X185080575Y-100926069D01*
X184806821Y-100988551D01*
X184806819Y-100988552D01*
X184541782Y-101081292D01*
X184288799Y-101203122D01*
X184051043Y-101352514D01*
X183917741Y-101458817D01*
X184990979Y-102532055D01*
X184862537Y-102617879D01*
X184723249Y-102757167D01*
X184637425Y-102885609D01*
X183564187Y-101812371D01*
X183457884Y-101945673D01*
X183308492Y-102183429D01*
X183186662Y-102436412D01*
X183093922Y-102701449D01*
X183093921Y-102701451D01*
X183031439Y-102975205D01*
X183031437Y-102975217D01*
X183000000Y-103254228D01*
X160387675Y-103254228D01*
X160313337Y-103041782D01*
X160191507Y-102788799D01*
X160042115Y-102551043D01*
X159935810Y-102417741D01*
X158862573Y-103490978D01*
X158776751Y-103362537D01*
X158637463Y-103223249D01*
X158509020Y-103137425D01*
X159582257Y-102064187D01*
X159448956Y-101957884D01*
X159211200Y-101808492D01*
X158958217Y-101686662D01*
X158780012Y-101624306D01*
X158780011Y-101624306D01*
X158693176Y-101593921D01*
X158419424Y-101531439D01*
X158419412Y-101531437D01*
X158140401Y-101500000D01*
X157859598Y-101500000D01*
X157580587Y-101531437D01*
X157580575Y-101531439D01*
X157306821Y-101593921D01*
X157306819Y-101593922D01*
X157041782Y-101686662D01*
X156788799Y-101808492D01*
X156551043Y-101957884D01*
X156417741Y-102064187D01*
X157490979Y-103137425D01*
X157362537Y-103223249D01*
X157223249Y-103362537D01*
X157137425Y-103490979D01*
X156064187Y-102417741D01*
X155957884Y-102551043D01*
X155808492Y-102788799D01*
X155686662Y-103041782D01*
X155593922Y-103306819D01*
X155593921Y-103306821D01*
X155531439Y-103580575D01*
X155531437Y-103580587D01*
X155500000Y-103859598D01*
X93000500Y-103859598D01*
X93000500Y-99361230D01*
X93020185Y-99294191D01*
X93072989Y-99248436D01*
X93142147Y-99238492D01*
X93205703Y-99267517D01*
X93212181Y-99273549D01*
X93281343Y-99342711D01*
X93281347Y-99342714D01*
X93430656Y-99434810D01*
X93430659Y-99434811D01*
X93430665Y-99434815D01*
X93597201Y-99489999D01*
X93699989Y-99500500D01*
X100300010Y-99500499D01*
X100402799Y-99489999D01*
X100569335Y-99434815D01*
X100718656Y-99342712D01*
X100842712Y-99218656D01*
X100934815Y-99069335D01*
X100989999Y-98902799D01*
X101000500Y-98800011D01*
X101000500Y-97279971D01*
X107699500Y-97279971D01*
X107699500Y-97484674D01*
X107731522Y-97686857D01*
X107794781Y-97881546D01*
X107887715Y-98063936D01*
X108008028Y-98229536D01*
X108152786Y-98374294D01*
X108318388Y-98494609D01*
X108371828Y-98521839D01*
X108422623Y-98569813D01*
X108439418Y-98637635D01*
X108416880Y-98703769D01*
X108371828Y-98742807D01*
X108318388Y-98770036D01*
X108152786Y-98890351D01*
X108008028Y-99035109D01*
X107887715Y-99200709D01*
X107794781Y-99383099D01*
X107731522Y-99577788D01*
X107699500Y-99779971D01*
X107699500Y-99984674D01*
X107731522Y-100186857D01*
X107794781Y-100381546D01*
X107887715Y-100563936D01*
X108008028Y-100729536D01*
X108152786Y-100874294D01*
X108307749Y-100986879D01*
X108318390Y-100994610D01*
X108434607Y-101053826D01*
X108500776Y-101087541D01*
X108500778Y-101087541D01*
X108500781Y-101087543D01*
X108605137Y-101121450D01*
X108695465Y-101150800D01*
X108796557Y-101166811D01*
X108897648Y-101182823D01*
X108897649Y-101182823D01*
X109102351Y-101182823D01*
X109102352Y-101182823D01*
X109304534Y-101150800D01*
X109499219Y-101087543D01*
X109681610Y-100994610D01*
X109819222Y-100894630D01*
X109847213Y-100874294D01*
X109847215Y-100874291D01*
X109847219Y-100874289D01*
X109991966Y-100729542D01*
X109991968Y-100729538D01*
X109991971Y-100729536D01*
X110044732Y-100656913D01*
X110112287Y-100563933D01*
X110205220Y-100381542D01*
X110268477Y-100186857D01*
X110300500Y-99984675D01*
X110300500Y-99779971D01*
X110268477Y-99577789D01*
X110265662Y-99569126D01*
X110205218Y-99383099D01*
X110159916Y-99294191D01*
X110112287Y-99200713D01*
X110104556Y-99190072D01*
X109991971Y-99035109D01*
X109847213Y-98890351D01*
X109681613Y-98770038D01*
X109681612Y-98770037D01*
X109681610Y-98770036D01*
X109628171Y-98742807D01*
X109577376Y-98694833D01*
X109560581Y-98627012D01*
X109583118Y-98560877D01*
X109628172Y-98521838D01*
X109681610Y-98494610D01*
X109774590Y-98427055D01*
X109847213Y-98374294D01*
X109847215Y-98374291D01*
X109847219Y-98374289D01*
X109991966Y-98229542D01*
X109991968Y-98229538D01*
X109991971Y-98229536D01*
X110044732Y-98156913D01*
X110112287Y-98063933D01*
X110205220Y-97881542D01*
X110268477Y-97686857D01*
X110300500Y-97484675D01*
X110300500Y-97279971D01*
X110268477Y-97077789D01*
X110205220Y-96883104D01*
X110205218Y-96883101D01*
X110205218Y-96883099D01*
X110116348Y-96708684D01*
X110112287Y-96700713D01*
X110104556Y-96690072D01*
X109991971Y-96535109D01*
X109847219Y-96390357D01*
X109847211Y-96390351D01*
X109721415Y-96298956D01*
X109721414Y-96298954D01*
X109681613Y-96270038D01*
X109681612Y-96270037D01*
X109681610Y-96270036D01*
X109624653Y-96241014D01*
X109499223Y-96177104D01*
X109304534Y-96113845D01*
X109129995Y-96086201D01*
X109102352Y-96081823D01*
X108897648Y-96081823D01*
X108873329Y-96085674D01*
X108695465Y-96113845D01*
X108500776Y-96177104D01*
X108318386Y-96270038D01*
X108152786Y-96390351D01*
X108008028Y-96535109D01*
X107887715Y-96700709D01*
X107794781Y-96883099D01*
X107731522Y-97077788D01*
X107699500Y-97279971D01*
X101000500Y-97279971D01*
X101000499Y-95473914D01*
X101000499Y-92700012D01*
X123500000Y-92700012D01*
X123500000Y-95750000D01*
X125313930Y-95750000D01*
X125300000Y-95855804D01*
X125300000Y-96144196D01*
X125313930Y-96250000D01*
X123500000Y-96250000D01*
X123500000Y-99299987D01*
X123510494Y-99402698D01*
X123565642Y-99569126D01*
X123657684Y-99718346D01*
X123781653Y-99842315D01*
X123930873Y-99934357D01*
X124097301Y-99989505D01*
X124200012Y-99999999D01*
X124200025Y-100000000D01*
X127250000Y-100000000D01*
X127250000Y-98186070D01*
X127355804Y-98200000D01*
X127644196Y-98200000D01*
X127750000Y-98186070D01*
X127750000Y-100000000D01*
X130799975Y-100000000D01*
X130799987Y-99999999D01*
X130902698Y-99989505D01*
X131069126Y-99934357D01*
X131218346Y-99842315D01*
X131342315Y-99718346D01*
X131434357Y-99569126D01*
X131489505Y-99402698D01*
X131499999Y-99299987D01*
X131500000Y-99299974D01*
X131500000Y-96250000D01*
X129686070Y-96250000D01*
X129700000Y-96144196D01*
X129700000Y-95855804D01*
X129686070Y-95750000D01*
X131500000Y-95750000D01*
X131500000Y-92700025D01*
X131499999Y-92700012D01*
X131489505Y-92597301D01*
X131434357Y-92430873D01*
X131342315Y-92281653D01*
X131260645Y-92199983D01*
X155499500Y-92199983D01*
X155499500Y-95800001D01*
X155499501Y-95800018D01*
X155510000Y-95902796D01*
X155510001Y-95902799D01*
X155565185Y-96069331D01*
X155565186Y-96069334D01*
X155657288Y-96218656D01*
X155781344Y-96342712D01*
X155930666Y-96434814D01*
X156097203Y-96489999D01*
X156199991Y-96500500D01*
X159800008Y-96500499D01*
X159902797Y-96489999D01*
X160069334Y-96434814D01*
X160218656Y-96342712D01*
X160342712Y-96218656D01*
X160434814Y-96069334D01*
X160489999Y-95902797D01*
X160500500Y-95800009D01*
X160500499Y-92199992D01*
X160489999Y-92097203D01*
X160434814Y-91930666D01*
X160342712Y-91781344D01*
X160218656Y-91657288D01*
X160117043Y-91594613D01*
X182999500Y-91594613D01*
X182999500Y-95194631D01*
X182999501Y-95194648D01*
X183010000Y-95297426D01*
X183010001Y-95297429D01*
X183065185Y-95463961D01*
X183065186Y-95463964D01*
X183157288Y-95613286D01*
X183281344Y-95737342D01*
X183430666Y-95829444D01*
X183597203Y-95884629D01*
X183699991Y-95895130D01*
X187300008Y-95895129D01*
X187402797Y-95884629D01*
X187569334Y-95829444D01*
X187718656Y-95737342D01*
X187842712Y-95613286D01*
X187934814Y-95463964D01*
X187989999Y-95297427D01*
X188000500Y-95194639D01*
X188000499Y-91594622D01*
X187989999Y-91491833D01*
X187934814Y-91325296D01*
X187842712Y-91175974D01*
X187718656Y-91051918D01*
X187569334Y-90959816D01*
X187402797Y-90904631D01*
X187402795Y-90904630D01*
X187300010Y-90894130D01*
X183699998Y-90894130D01*
X183699981Y-90894131D01*
X183597203Y-90904630D01*
X183597200Y-90904631D01*
X183430668Y-90959815D01*
X183430663Y-90959817D01*
X183281342Y-91051919D01*
X183157289Y-91175972D01*
X183065187Y-91325293D01*
X183065186Y-91325296D01*
X183010001Y-91491833D01*
X183010001Y-91491834D01*
X183010000Y-91491834D01*
X182999500Y-91594613D01*
X160117043Y-91594613D01*
X160069334Y-91565186D01*
X159902797Y-91510001D01*
X159902795Y-91510000D01*
X159800010Y-91499500D01*
X156199998Y-91499500D01*
X156199981Y-91499501D01*
X156097203Y-91510000D01*
X156097200Y-91510001D01*
X155930668Y-91565185D01*
X155930663Y-91565187D01*
X155781342Y-91657289D01*
X155657289Y-91781342D01*
X155565187Y-91930663D01*
X155565186Y-91930667D01*
X155510001Y-92097203D01*
X155510001Y-92097204D01*
X155510000Y-92097204D01*
X155499500Y-92199983D01*
X131260645Y-92199983D01*
X131218346Y-92157684D01*
X131069126Y-92065642D01*
X130902698Y-92010494D01*
X130799987Y-92000000D01*
X127750000Y-92000000D01*
X127750000Y-93813929D01*
X127644196Y-93800000D01*
X127355804Y-93800000D01*
X127250000Y-93813929D01*
X127250000Y-92000000D01*
X124200012Y-92000000D01*
X124097301Y-92010494D01*
X123930873Y-92065642D01*
X123781653Y-92157684D01*
X123657684Y-92281653D01*
X123565642Y-92430873D01*
X123510494Y-92597301D01*
X123500000Y-92700012D01*
X101000499Y-92700012D01*
X101000499Y-92696863D01*
X101000499Y-92199996D01*
X101000498Y-92199979D01*
X100989999Y-92097201D01*
X100989998Y-92097198D01*
X100957790Y-92000000D01*
X100934815Y-91930665D01*
X100934811Y-91930659D01*
X100934810Y-91930656D01*
X100842714Y-91781347D01*
X100842711Y-91781343D01*
X100718656Y-91657288D01*
X100718652Y-91657285D01*
X100569343Y-91565189D01*
X100569337Y-91565186D01*
X100569335Y-91565185D01*
X100569332Y-91565184D01*
X100402800Y-91510001D01*
X100300012Y-91499500D01*
X93699996Y-91499500D01*
X93699979Y-91499501D01*
X93597201Y-91510000D01*
X93597198Y-91510001D01*
X93430667Y-91565184D01*
X93430656Y-91565189D01*
X93281347Y-91657285D01*
X93281343Y-91657288D01*
X93212181Y-91726451D01*
X93150858Y-91759936D01*
X93081166Y-91754952D01*
X93025233Y-91713080D01*
X93000816Y-91647616D01*
X93000500Y-91638770D01*
X93000500Y-78595513D01*
X105299500Y-78595513D01*
X105299500Y-78784486D01*
X105329059Y-78971118D01*
X105387454Y-79150836D01*
X105439878Y-79253722D01*
X105473240Y-79319199D01*
X105584310Y-79472073D01*
X105717927Y-79605690D01*
X105870801Y-79716760D01*
X105903887Y-79733618D01*
X106039163Y-79802545D01*
X106039165Y-79802545D01*
X106039168Y-79802547D01*
X106218882Y-79860940D01*
X106221177Y-79861303D01*
X106223212Y-79861626D01*
X106286348Y-79891554D01*
X106291499Y-79896419D01*
X109029735Y-82634655D01*
X109029764Y-82634686D01*
X109172217Y-82777139D01*
X109271293Y-82843339D01*
X109336086Y-82886632D01*
X109445031Y-82931758D01*
X109483936Y-82947873D01*
X109504724Y-82956484D01*
X109559128Y-83000326D01*
X109573453Y-83027712D01*
X109616202Y-83142328D01*
X109616206Y-83142335D01*
X109702452Y-83257544D01*
X109702455Y-83257547D01*
X109817664Y-83343793D01*
X109817671Y-83343797D01*
X109952517Y-83394091D01*
X109952516Y-83394091D01*
X109959444Y-83394835D01*
X110012127Y-83400500D01*
X111907872Y-83400499D01*
X111967483Y-83394091D01*
X112102331Y-83343796D01*
X112217546Y-83257546D01*
X112303796Y-83142331D01*
X112303865Y-83142147D01*
X112333601Y-83062420D01*
X112375471Y-83006486D01*
X112440936Y-82982068D01*
X112509209Y-82996919D01*
X112537464Y-83018071D01*
X112587636Y-83068243D01*
X112587641Y-83068247D01*
X112689357Y-83142147D01*
X112765978Y-83197815D01*
X112894375Y-83263237D01*
X112962393Y-83297895D01*
X112962396Y-83297896D01*
X113067221Y-83331955D01*
X113172049Y-83366015D01*
X113389778Y-83400500D01*
X113389779Y-83400500D01*
X113610221Y-83400500D01*
X113610222Y-83400500D01*
X113827951Y-83366015D01*
X114037606Y-83297895D01*
X114234022Y-83197815D01*
X114412365Y-83068242D01*
X114443788Y-83036819D01*
X114505111Y-83003334D01*
X114531469Y-83000500D01*
X116695217Y-83000500D01*
X116762256Y-83020185D01*
X116808011Y-83072989D01*
X116817955Y-83142147D01*
X116788930Y-83205703D01*
X116782898Y-83212181D01*
X114721899Y-85273181D01*
X114660576Y-85306666D01*
X114634218Y-85309500D01*
X107205633Y-85309500D01*
X107138594Y-85289815D01*
X107132746Y-85285817D01*
X107129200Y-85283240D01*
X106960836Y-85197454D01*
X106781118Y-85139059D01*
X106594486Y-85109500D01*
X106594481Y-85109500D01*
X106405519Y-85109500D01*
X106405514Y-85109500D01*
X106218881Y-85139059D01*
X106039163Y-85197454D01*
X105870800Y-85283240D01*
X105783579Y-85346610D01*
X105717927Y-85394310D01*
X105717925Y-85394312D01*
X105717924Y-85394312D01*
X105584312Y-85527924D01*
X105584312Y-85527925D01*
X105584310Y-85527927D01*
X105551312Y-85573345D01*
X105473240Y-85680800D01*
X105387454Y-85849163D01*
X105329059Y-86028881D01*
X105299500Y-86215513D01*
X105299500Y-86404486D01*
X105329059Y-86591118D01*
X105387454Y-86770836D01*
X105473240Y-86939199D01*
X105584310Y-87092073D01*
X105717927Y-87225690D01*
X105870801Y-87336760D01*
X105950347Y-87377290D01*
X106039163Y-87422545D01*
X106039165Y-87422545D01*
X106039168Y-87422547D01*
X106135497Y-87453846D01*
X106218881Y-87480940D01*
X106405514Y-87510500D01*
X106405519Y-87510500D01*
X106594486Y-87510500D01*
X106781118Y-87480940D01*
X106960832Y-87422547D01*
X107129199Y-87336760D01*
X107132746Y-87334183D01*
X107198552Y-87310702D01*
X107205633Y-87310500D01*
X115198542Y-87310500D01*
X115217870Y-87306655D01*
X115295188Y-87291275D01*
X115391836Y-87272051D01*
X115463663Y-87242299D01*
X115573914Y-87196632D01*
X115737782Y-87087139D01*
X115877139Y-86947782D01*
X115877140Y-86947779D01*
X115884206Y-86940714D01*
X115884209Y-86940710D01*
X118518569Y-84306349D01*
X118579890Y-84272866D01*
X118581955Y-84272435D01*
X118664127Y-84256091D01*
X118850756Y-84178786D01*
X119018718Y-84066558D01*
X119161558Y-83923718D01*
X119273786Y-83755756D01*
X119351091Y-83569127D01*
X119390500Y-83371003D01*
X119390500Y-83168997D01*
X119386461Y-83148691D01*
X119392688Y-83079101D01*
X119435550Y-83023923D01*
X119501439Y-83000678D01*
X119508078Y-83000500D01*
X120598543Y-83000500D01*
X120748042Y-82970762D01*
X120791835Y-82962051D01*
X120973914Y-82886632D01*
X121137782Y-82777139D01*
X121277139Y-82637782D01*
X121386632Y-82473914D01*
X121462051Y-82291835D01*
X121475522Y-82224111D01*
X121480322Y-82199981D01*
X123499500Y-82199981D01*
X123499500Y-88800003D01*
X123499501Y-88800020D01*
X123510000Y-88902798D01*
X123510001Y-88902801D01*
X123565184Y-89069332D01*
X123565189Y-89069343D01*
X123657285Y-89218652D01*
X123657288Y-89218656D01*
X123781343Y-89342711D01*
X123781347Y-89342714D01*
X123930656Y-89434810D01*
X123930659Y-89434811D01*
X123930665Y-89434815D01*
X124097201Y-89489999D01*
X124199989Y-89500500D01*
X130800010Y-89500499D01*
X130902799Y-89489999D01*
X131069335Y-89434815D01*
X131218656Y-89342712D01*
X131342712Y-89218656D01*
X131434815Y-89069335D01*
X131489999Y-88902799D01*
X131500500Y-88800011D01*
X131500500Y-87385265D01*
X136434286Y-87385265D01*
X136434286Y-87614734D01*
X136464236Y-87842237D01*
X136480060Y-87901291D01*
X136484285Y-87933384D01*
X136484285Y-88500015D01*
X136494785Y-88602795D01*
X136494786Y-88602797D01*
X136501689Y-88623629D01*
X136549971Y-88769335D01*
X136549972Y-88769337D01*
X136642071Y-88918651D01*
X136642074Y-88918655D01*
X136766129Y-89042710D01*
X136766133Y-89042713D01*
X136915447Y-89134812D01*
X136915449Y-89134813D01*
X136915451Y-89134814D01*
X137081988Y-89189999D01*
X137184777Y-89200500D01*
X137751400Y-89200500D01*
X137783492Y-89204724D01*
X137842546Y-89220548D01*
X138013174Y-89243011D01*
X138070050Y-89250499D01*
X138070051Y-89250499D01*
X138299520Y-89250499D01*
X138345020Y-89244508D01*
X138527024Y-89220548D01*
X138586077Y-89204724D01*
X138618170Y-89200500D01*
X139184788Y-89200500D01*
X139184793Y-89200500D01*
X139287582Y-89189999D01*
X139454119Y-89134814D01*
X139603440Y-89042711D01*
X139727496Y-88918655D01*
X139819599Y-88769334D01*
X139874784Y-88602797D01*
X139885285Y-88500008D01*
X139885285Y-88326443D01*
X139904970Y-88259404D01*
X139921604Y-88238762D01*
X140649866Y-87510500D01*
X141386902Y-86773463D01*
X141448223Y-86739980D01*
X141517915Y-86744964D01*
X141573848Y-86786836D01*
X141598265Y-86852300D01*
X141589143Y-86908597D01*
X141571078Y-86952210D01*
X141571075Y-86952219D01*
X141516001Y-87157761D01*
X141513382Y-87167534D01*
X141513379Y-87167547D01*
X141484286Y-87388533D01*
X141484285Y-87388549D01*
X141484285Y-87611450D01*
X141484286Y-87611466D01*
X141513379Y-87832452D01*
X141513380Y-87832457D01*
X141513381Y-87832463D01*
X141540423Y-87933384D01*
X141571075Y-88047780D01*
X141571078Y-88047790D01*
X141656378Y-88253722D01*
X141656380Y-88253726D01*
X141767837Y-88446774D01*
X141767842Y-88446780D01*
X141767843Y-88446782D01*
X141903536Y-88623622D01*
X141903542Y-88623629D01*
X142061155Y-88781242D01*
X142061162Y-88781248D01*
X142166685Y-88862218D01*
X142238011Y-88916948D01*
X142431059Y-89028405D01*
X142637004Y-89113710D01*
X142852322Y-89171404D01*
X143073328Y-89200500D01*
X143073335Y-89200500D01*
X143296235Y-89200500D01*
X143296242Y-89200500D01*
X143517248Y-89171404D01*
X143732566Y-89113710D01*
X143938511Y-89028405D01*
X144131559Y-88916948D01*
X144308409Y-88781247D01*
X144466032Y-88623624D01*
X144601733Y-88446774D01*
X144713190Y-88253726D01*
X144798495Y-88047781D01*
X144856189Y-87832463D01*
X144885285Y-87611457D01*
X144885285Y-87388543D01*
X144856189Y-87167537D01*
X144798495Y-86952219D01*
X144796655Y-86947778D01*
X144713191Y-86746277D01*
X144713190Y-86746274D01*
X144601733Y-86553226D01*
X144560879Y-86499984D01*
X144466033Y-86376377D01*
X144466027Y-86376370D01*
X144308414Y-86218757D01*
X144304186Y-86215513D01*
X144233798Y-86161502D01*
X144192596Y-86105074D01*
X144185285Y-86063126D01*
X144185285Y-86030997D01*
X144204970Y-85963958D01*
X144221604Y-85943316D01*
X148885470Y-81279450D01*
X153562437Y-76602482D01*
X153623758Y-76568999D01*
X153693450Y-76573983D01*
X153749383Y-76615855D01*
X153773800Y-76681319D01*
X153773055Y-76706351D01*
X153749500Y-76885258D01*
X153749500Y-83114741D01*
X153768302Y-83257546D01*
X153779452Y-83342238D01*
X153838842Y-83563887D01*
X153926650Y-83775876D01*
X153926656Y-83775888D01*
X154041388Y-83974611D01*
X154041392Y-83974617D01*
X154181081Y-84156661D01*
X154181089Y-84156670D01*
X154343330Y-84318911D01*
X154343338Y-84318918D01*
X154525382Y-84458607D01*
X154525385Y-84458608D01*
X154525388Y-84458611D01*
X154724112Y-84573344D01*
X154724117Y-84573346D01*
X154724123Y-84573349D01*
X154815480Y-84611190D01*
X154936113Y-84661158D01*
X155157762Y-84720548D01*
X155385266Y-84750500D01*
X155385273Y-84750500D01*
X155614727Y-84750500D01*
X155614734Y-84750500D01*
X155842238Y-84720548D01*
X156063887Y-84661158D01*
X156275888Y-84573344D01*
X156474612Y-84458611D01*
X156656661Y-84318919D01*
X156656665Y-84318914D01*
X156656670Y-84318911D01*
X156818911Y-84156670D01*
X156818914Y-84156665D01*
X156818919Y-84156661D01*
X156958611Y-83974612D01*
X157073344Y-83775888D01*
X157161158Y-83563887D01*
X157220548Y-83342238D01*
X157250500Y-83114734D01*
X157250500Y-76885266D01*
X157220548Y-76657762D01*
X157161158Y-76436113D01*
X157096127Y-76279115D01*
X157073349Y-76224123D01*
X157073346Y-76224117D01*
X157073344Y-76224112D01*
X156958611Y-76025388D01*
X156958608Y-76025385D01*
X156958607Y-76025382D01*
X156818918Y-75843338D01*
X156818911Y-75843330D01*
X156656670Y-75681089D01*
X156656661Y-75681081D01*
X156474617Y-75541392D01*
X156275890Y-75426657D01*
X156275876Y-75426650D01*
X156063887Y-75338842D01*
X156063880Y-75338840D01*
X155842238Y-75279452D01*
X155804215Y-75274446D01*
X155614741Y-75249500D01*
X155614734Y-75249500D01*
X155385266Y-75249500D01*
X155385258Y-75249500D01*
X155168715Y-75278009D01*
X155157762Y-75279452D01*
X155119844Y-75289612D01*
X154936118Y-75338840D01*
X154852420Y-75373509D01*
X154782950Y-75380977D01*
X154720471Y-75349701D01*
X154684819Y-75289612D01*
X154683351Y-75234756D01*
X154686509Y-75218881D01*
X154700500Y-75148540D01*
X154700500Y-74951459D01*
X154700500Y-74715513D01*
X156799500Y-74715513D01*
X156799500Y-74904486D01*
X156829059Y-75091118D01*
X156887454Y-75270836D01*
X156973240Y-75439199D01*
X157084310Y-75592073D01*
X157217927Y-75725690D01*
X157370801Y-75836760D01*
X157432914Y-75868408D01*
X157539163Y-75922545D01*
X157539165Y-75922545D01*
X157539168Y-75922547D01*
X157620763Y-75949059D01*
X157718881Y-75980940D01*
X157905514Y-76010500D01*
X157905519Y-76010500D01*
X158094486Y-76010500D01*
X158281118Y-75980940D01*
X158342991Y-75960836D01*
X158460832Y-75922547D01*
X158629199Y-75836760D01*
X158782073Y-75725690D01*
X158915690Y-75592073D01*
X159026760Y-75439199D01*
X159112547Y-75270832D01*
X159170940Y-75091118D01*
X159179168Y-75039168D01*
X159200500Y-74904486D01*
X159200500Y-74715513D01*
X159170940Y-74528881D01*
X159124987Y-74387454D01*
X159112547Y-74349168D01*
X159112545Y-74349165D01*
X159112545Y-74349163D01*
X159052274Y-74230876D01*
X159026760Y-74180801D01*
X158915690Y-74027927D01*
X158782073Y-73894310D01*
X158629199Y-73783240D01*
X158600225Y-73768477D01*
X158460836Y-73697454D01*
X158281118Y-73639059D01*
X158094486Y-73609500D01*
X158094481Y-73609500D01*
X157905519Y-73609500D01*
X157905514Y-73609500D01*
X157718881Y-73639059D01*
X157539163Y-73697454D01*
X157370800Y-73783240D01*
X157307737Y-73829059D01*
X157217927Y-73894310D01*
X157217925Y-73894312D01*
X157217924Y-73894312D01*
X157084312Y-74027924D01*
X157084312Y-74027925D01*
X157084310Y-74027927D01*
X157045274Y-74081655D01*
X156973240Y-74180800D01*
X156887454Y-74349163D01*
X156829059Y-74528881D01*
X156799500Y-74715513D01*
X154700500Y-74715513D01*
X154700500Y-74265782D01*
X154720185Y-74198743D01*
X154736819Y-74178101D01*
X156743516Y-72171405D01*
X158777139Y-70137782D01*
X158798582Y-70105690D01*
X158886632Y-69973914D01*
X158962051Y-69791835D01*
X158981978Y-69691659D01*
X159000500Y-69598541D01*
X159000500Y-69401460D01*
X159000500Y-67895632D01*
X159020185Y-67828593D01*
X159024177Y-67822753D01*
X159026760Y-67819199D01*
X159112547Y-67650832D01*
X159170940Y-67471118D01*
X159177347Y-67430665D01*
X159200337Y-67285513D01*
X162299500Y-67285513D01*
X162299500Y-67474486D01*
X162329059Y-67661118D01*
X162387454Y-67840836D01*
X162457172Y-67977664D01*
X162473240Y-68009199D01*
X162584310Y-68162073D01*
X162717927Y-68295690D01*
X162870801Y-68406760D01*
X162950347Y-68447290D01*
X163039163Y-68492545D01*
X163039165Y-68492545D01*
X163039168Y-68492547D01*
X163088137Y-68508458D01*
X163218881Y-68550940D01*
X163405514Y-68580500D01*
X163405519Y-68580500D01*
X163594486Y-68580500D01*
X163781118Y-68550940D01*
X163960832Y-68492547D01*
X164129199Y-68406760D01*
X164282073Y-68295690D01*
X164415690Y-68162073D01*
X164526760Y-68009199D01*
X164612547Y-67840832D01*
X164670940Y-67661118D01*
X164700500Y-67474486D01*
X164700500Y-67285513D01*
X164672708Y-67110045D01*
X164670940Y-67098882D01*
X164669845Y-67095513D01*
X165799500Y-67095513D01*
X165799500Y-67284486D01*
X165829059Y-67471118D01*
X165887454Y-67650836D01*
X165938506Y-67751030D01*
X165973240Y-67819199D01*
X166084310Y-67972073D01*
X166217927Y-68105690D01*
X166370801Y-68216760D01*
X166450347Y-68257290D01*
X166539163Y-68302545D01*
X166539165Y-68302545D01*
X166539168Y-68302547D01*
X166620763Y-68329059D01*
X166718881Y-68360940D01*
X166905514Y-68390500D01*
X166905519Y-68390500D01*
X167094486Y-68390500D01*
X167106804Y-68388549D01*
X174639500Y-68388549D01*
X174639500Y-68611450D01*
X174639501Y-68611466D01*
X174668594Y-68832452D01*
X174668595Y-68832457D01*
X174668596Y-68832463D01*
X174723981Y-69039163D01*
X174726290Y-69047780D01*
X174726293Y-69047790D01*
X174797162Y-69218882D01*
X174811595Y-69253726D01*
X174923052Y-69446774D01*
X174923057Y-69446780D01*
X174923058Y-69446782D01*
X175058751Y-69623622D01*
X175058757Y-69623629D01*
X175216370Y-69781242D01*
X175216377Y-69781248D01*
X175277139Y-69827872D01*
X175393226Y-69916948D01*
X175586274Y-70028405D01*
X175716140Y-70082197D01*
X175772849Y-70105687D01*
X175792219Y-70113710D01*
X176007537Y-70171404D01*
X176228543Y-70200500D01*
X176228550Y-70200500D01*
X176451450Y-70200500D01*
X176451457Y-70200500D01*
X176672463Y-70171404D01*
X176887781Y-70113710D01*
X177093726Y-70028405D01*
X177286774Y-69916948D01*
X177463624Y-69781247D01*
X177621247Y-69623624D01*
X177756948Y-69446774D01*
X177868405Y-69253726D01*
X177953710Y-69047781D01*
X178011404Y-68832463D01*
X178040500Y-68611457D01*
X178040500Y-68388549D01*
X194959500Y-68388549D01*
X194959500Y-68611450D01*
X194959501Y-68611466D01*
X194988594Y-68832452D01*
X194988595Y-68832457D01*
X194988596Y-68832463D01*
X195043981Y-69039163D01*
X195046290Y-69047780D01*
X195046293Y-69047790D01*
X195117162Y-69218882D01*
X195131595Y-69253726D01*
X195243052Y-69446774D01*
X195243057Y-69446780D01*
X195243058Y-69446782D01*
X195378751Y-69623622D01*
X195378757Y-69623629D01*
X195536370Y-69781242D01*
X195536377Y-69781248D01*
X195597139Y-69827872D01*
X195713226Y-69916948D01*
X195906274Y-70028405D01*
X196036140Y-70082197D01*
X196092849Y-70105687D01*
X196112219Y-70113710D01*
X196327537Y-70171404D01*
X196548543Y-70200500D01*
X196548550Y-70200500D01*
X196771450Y-70200500D01*
X196771457Y-70200500D01*
X196992463Y-70171404D01*
X197207781Y-70113710D01*
X197413726Y-70028405D01*
X197606774Y-69916948D01*
X197783624Y-69781247D01*
X197941247Y-69623624D01*
X198076948Y-69446774D01*
X198188405Y-69253726D01*
X198273710Y-69047781D01*
X198331404Y-68832463D01*
X198360500Y-68611457D01*
X198360500Y-68388543D01*
X198331404Y-68167537D01*
X198273710Y-67952219D01*
X198188405Y-67746274D01*
X198076948Y-67553226D01*
X197941247Y-67376376D01*
X197941242Y-67376370D01*
X197783629Y-67218757D01*
X197783622Y-67218751D01*
X197606782Y-67083058D01*
X197606780Y-67083057D01*
X197606774Y-67083052D01*
X197413726Y-66971595D01*
X197413722Y-66971593D01*
X197207790Y-66886293D01*
X197207783Y-66886291D01*
X197207781Y-66886290D01*
X196992463Y-66828596D01*
X196992457Y-66828595D01*
X196992452Y-66828594D01*
X196771466Y-66799501D01*
X196771463Y-66799500D01*
X196771457Y-66799500D01*
X196548543Y-66799500D01*
X196548537Y-66799500D01*
X196548533Y-66799501D01*
X196327547Y-66828594D01*
X196327540Y-66828595D01*
X196327537Y-66828596D01*
X196112219Y-66886290D01*
X196112209Y-66886293D01*
X195906277Y-66971593D01*
X195906273Y-66971595D01*
X195713226Y-67083052D01*
X195713217Y-67083058D01*
X195536377Y-67218751D01*
X195536370Y-67218757D01*
X195378757Y-67376370D01*
X195378751Y-67376377D01*
X195243058Y-67553217D01*
X195243052Y-67553226D01*
X195131595Y-67746273D01*
X195131593Y-67746277D01*
X195046293Y-67952209D01*
X195046290Y-67952219D01*
X194989748Y-68163240D01*
X194988597Y-68167534D01*
X194988594Y-68167547D01*
X194959501Y-68388533D01*
X194959500Y-68388549D01*
X178040500Y-68388549D01*
X178040500Y-68388543D01*
X178011404Y-68167537D01*
X177953710Y-67952219D01*
X177868405Y-67746274D01*
X177756948Y-67553226D01*
X177621247Y-67376376D01*
X177621242Y-67376370D01*
X177463629Y-67218757D01*
X177463622Y-67218751D01*
X177286782Y-67083058D01*
X177286780Y-67083057D01*
X177286774Y-67083052D01*
X177093726Y-66971595D01*
X177093722Y-66971593D01*
X176887790Y-66886293D01*
X176887783Y-66886291D01*
X176887781Y-66886290D01*
X176672463Y-66828596D01*
X176672457Y-66828595D01*
X176672452Y-66828594D01*
X176451466Y-66799501D01*
X176451463Y-66799500D01*
X176451457Y-66799500D01*
X176228543Y-66799500D01*
X176228537Y-66799500D01*
X176228533Y-66799501D01*
X176007547Y-66828594D01*
X176007540Y-66828595D01*
X176007537Y-66828596D01*
X175792219Y-66886290D01*
X175792209Y-66886293D01*
X175586277Y-66971593D01*
X175586273Y-66971595D01*
X175393226Y-67083052D01*
X175393217Y-67083058D01*
X175216377Y-67218751D01*
X175216370Y-67218757D01*
X175058757Y-67376370D01*
X175058751Y-67376377D01*
X174923058Y-67553217D01*
X174923052Y-67553226D01*
X174811595Y-67746273D01*
X174811593Y-67746277D01*
X174726293Y-67952209D01*
X174726290Y-67952219D01*
X174669748Y-68163240D01*
X174668597Y-68167534D01*
X174668594Y-68167547D01*
X174639501Y-68388533D01*
X174639500Y-68388549D01*
X167106804Y-68388549D01*
X167281118Y-68360940D01*
X167460832Y-68302547D01*
X167474296Y-68295687D01*
X167516861Y-68273999D01*
X167528094Y-68268275D01*
X167629199Y-68216760D01*
X167782073Y-68105690D01*
X167915690Y-67972073D01*
X168026760Y-67819199D01*
X168112547Y-67650832D01*
X168170940Y-67471118D01*
X168177347Y-67430665D01*
X168200500Y-67284486D01*
X168200500Y-67095513D01*
X168170940Y-66908881D01*
X168132618Y-66790940D01*
X168112547Y-66729168D01*
X168112545Y-66729165D01*
X168112545Y-66729163D01*
X168067290Y-66640347D01*
X168026760Y-66560801D01*
X167915690Y-66407927D01*
X167782073Y-66274310D01*
X167629199Y-66163240D01*
X167460836Y-66077454D01*
X167281118Y-66019059D01*
X167094486Y-65989500D01*
X167094481Y-65989500D01*
X166905519Y-65989500D01*
X166905514Y-65989500D01*
X166718881Y-66019059D01*
X166539163Y-66077454D01*
X166370800Y-66163240D01*
X166307737Y-66209059D01*
X166217927Y-66274310D01*
X166217925Y-66274312D01*
X166217924Y-66274312D01*
X166084312Y-66407924D01*
X166084312Y-66407925D01*
X166084310Y-66407927D01*
X166043345Y-66464310D01*
X165973240Y-66560800D01*
X165887454Y-66729163D01*
X165829059Y-66908881D01*
X165799500Y-67095513D01*
X164669845Y-67095513D01*
X164612547Y-66919168D01*
X164612545Y-66919165D01*
X164612545Y-66919163D01*
X164526759Y-66750800D01*
X164415690Y-66597927D01*
X164282073Y-66464310D01*
X164129199Y-66353240D01*
X163960836Y-66267454D01*
X163781118Y-66209059D01*
X163594486Y-66179500D01*
X163594481Y-66179500D01*
X163405519Y-66179500D01*
X163405514Y-66179500D01*
X163218881Y-66209059D01*
X163039163Y-66267454D01*
X162870800Y-66353240D01*
X162795535Y-66407924D01*
X162717927Y-66464310D01*
X162717925Y-66464312D01*
X162717924Y-66464312D01*
X162584312Y-66597924D01*
X162584312Y-66597925D01*
X162584310Y-66597927D01*
X162548831Y-66646759D01*
X162473240Y-66750800D01*
X162387454Y-66919163D01*
X162329059Y-67098881D01*
X162299500Y-67285513D01*
X159200337Y-67285513D01*
X159200500Y-67284486D01*
X159200500Y-67095513D01*
X159170940Y-66908881D01*
X159132618Y-66790940D01*
X159112547Y-66729168D01*
X159112545Y-66729165D01*
X159112545Y-66729163D01*
X159067290Y-66640347D01*
X159026760Y-66560801D01*
X158915690Y-66407927D01*
X158782073Y-66274310D01*
X158629199Y-66163240D01*
X158460836Y-66077454D01*
X158281118Y-66019059D01*
X158094486Y-65989500D01*
X158094481Y-65989500D01*
X157905519Y-65989500D01*
X157905514Y-65989500D01*
X157718881Y-66019059D01*
X157539163Y-66077454D01*
X157370800Y-66163240D01*
X157307737Y-66209059D01*
X157217927Y-66274310D01*
X157217925Y-66274312D01*
X157217924Y-66274312D01*
X157084312Y-66407924D01*
X157084312Y-66407925D01*
X157084310Y-66407927D01*
X157043345Y-66464310D01*
X156973240Y-66560800D01*
X156887454Y-66729163D01*
X156829059Y-66908881D01*
X156799500Y-67095513D01*
X156799500Y-67284486D01*
X156829059Y-67471118D01*
X156887454Y-67650836D01*
X156970240Y-67813312D01*
X156973240Y-67819199D01*
X156975814Y-67822742D01*
X156999297Y-67888546D01*
X156999500Y-67895632D01*
X156999500Y-69034216D01*
X156979815Y-69101255D01*
X156963181Y-69121897D01*
X156492180Y-69592898D01*
X156430857Y-69626383D01*
X156361165Y-69621399D01*
X156305232Y-69579527D01*
X156280815Y-69514063D01*
X156280499Y-69505217D01*
X156280499Y-68172129D01*
X156280498Y-68172123D01*
X156280006Y-68167547D01*
X156274091Y-68112517D01*
X156261013Y-68077454D01*
X156223797Y-67977671D01*
X156223793Y-67977664D01*
X156137547Y-67862455D01*
X156137544Y-67862452D01*
X156022335Y-67776206D01*
X156022328Y-67776202D01*
X155887482Y-67725908D01*
X155887483Y-67725908D01*
X155827883Y-67719501D01*
X155827881Y-67719500D01*
X155827873Y-67719500D01*
X155827865Y-67719500D01*
X154494782Y-67719500D01*
X154427743Y-67699815D01*
X154381988Y-67647011D01*
X154372044Y-67577853D01*
X154401069Y-67514297D01*
X154407101Y-67507819D01*
X154817136Y-67097785D01*
X154817136Y-67097784D01*
X154817139Y-67097782D01*
X154901454Y-66971595D01*
X154926628Y-66933920D01*
X154926628Y-66933918D01*
X154926631Y-66933915D01*
X154926632Y-66933914D01*
X154982308Y-66799500D01*
X155002051Y-66751836D01*
X155040500Y-66558541D01*
X155040500Y-66361460D01*
X155040500Y-61715513D01*
X162799500Y-61715513D01*
X162799500Y-61904486D01*
X162829059Y-62091118D01*
X162887454Y-62270836D01*
X162954693Y-62402799D01*
X162973240Y-62439199D01*
X163084310Y-62592073D01*
X163217927Y-62725690D01*
X163370801Y-62836760D01*
X163446833Y-62875500D01*
X163539163Y-62922545D01*
X163539165Y-62922545D01*
X163539168Y-62922547D01*
X163576925Y-62934815D01*
X163718881Y-62980940D01*
X163905514Y-63010500D01*
X163905519Y-63010500D01*
X164094486Y-63010500D01*
X164281118Y-62980940D01*
X164335774Y-62963181D01*
X164460832Y-62922547D01*
X164629199Y-62836760D01*
X164782073Y-62725690D01*
X164915690Y-62592073D01*
X165026760Y-62439199D01*
X165112547Y-62270832D01*
X165170940Y-62091118D01*
X165184387Y-62006217D01*
X165200500Y-61904486D01*
X165200500Y-61715513D01*
X165170940Y-61528881D01*
X165129972Y-61402796D01*
X165112547Y-61349168D01*
X165112545Y-61349165D01*
X165112545Y-61349163D01*
X165026759Y-61180800D01*
X165019933Y-61171405D01*
X164915690Y-61027927D01*
X164782073Y-60894310D01*
X164629199Y-60783240D01*
X164460836Y-60697454D01*
X164281118Y-60639059D01*
X164094486Y-60609500D01*
X164094481Y-60609500D01*
X163905519Y-60609500D01*
X163905514Y-60609500D01*
X163718881Y-60639059D01*
X163539163Y-60697454D01*
X163370800Y-60783240D01*
X163321693Y-60818919D01*
X163217927Y-60894310D01*
X163217925Y-60894312D01*
X163217924Y-60894312D01*
X163084312Y-61027924D01*
X163084312Y-61027925D01*
X163084310Y-61027927D01*
X163036610Y-61093579D01*
X162973240Y-61180800D01*
X162887454Y-61349163D01*
X162829059Y-61528881D01*
X162799500Y-61715513D01*
X155040500Y-61715513D01*
X155040500Y-57463898D01*
X155042883Y-57439706D01*
X155049204Y-57407927D01*
X155065500Y-57326003D01*
X155065500Y-57147648D01*
X157199500Y-57147648D01*
X157199500Y-57352351D01*
X157231522Y-57554534D01*
X157294781Y-57749223D01*
X157335225Y-57828597D01*
X157387115Y-57930437D01*
X157387715Y-57931613D01*
X157508028Y-58097213D01*
X157652786Y-58241971D01*
X157818388Y-58362286D01*
X157871828Y-58389516D01*
X157922623Y-58437490D01*
X157939418Y-58505312D01*
X157916880Y-58571446D01*
X157871828Y-58610484D01*
X157818388Y-58637713D01*
X157652786Y-58758028D01*
X157508028Y-58902786D01*
X157387715Y-59068386D01*
X157294781Y-59250776D01*
X157231522Y-59445465D01*
X157199500Y-59647648D01*
X157199500Y-59852351D01*
X157231522Y-60054534D01*
X157294781Y-60249223D01*
X157358691Y-60374653D01*
X157364793Y-60386628D01*
X157387715Y-60431613D01*
X157508028Y-60597213D01*
X157652786Y-60741971D01*
X157803361Y-60851368D01*
X157818390Y-60862287D01*
X157881239Y-60894310D01*
X158000776Y-60955218D01*
X158000778Y-60955218D01*
X158000781Y-60955220D01*
X158105137Y-60989127D01*
X158195465Y-61018477D01*
X158258148Y-61028405D01*
X158397648Y-61050500D01*
X158397649Y-61050500D01*
X158602351Y-61050500D01*
X158602352Y-61050500D01*
X158804534Y-61018477D01*
X158999219Y-60955220D01*
X159181610Y-60862287D01*
X159293160Y-60781242D01*
X159347213Y-60741971D01*
X159347215Y-60741968D01*
X159347219Y-60741966D01*
X159491966Y-60597219D01*
X159491968Y-60597215D01*
X159491971Y-60597213D01*
X159576255Y-60481204D01*
X159612287Y-60431610D01*
X159705220Y-60249219D01*
X159768477Y-60054534D01*
X159800500Y-59852352D01*
X159800500Y-59647648D01*
X159768477Y-59445466D01*
X159768475Y-59445462D01*
X159768475Y-59445457D01*
X159761117Y-59422813D01*
X159761114Y-59422803D01*
X159749984Y-59388549D01*
X182639500Y-59388549D01*
X182639500Y-59611450D01*
X182639501Y-59611466D01*
X182668594Y-59832452D01*
X182668595Y-59832457D01*
X182668596Y-59832463D01*
X182721138Y-60028552D01*
X182726290Y-60047780D01*
X182726293Y-60047790D01*
X182811593Y-60253722D01*
X182811595Y-60253726D01*
X182923052Y-60446774D01*
X182923057Y-60446780D01*
X182923058Y-60446782D01*
X183058751Y-60623622D01*
X183058757Y-60623629D01*
X183216370Y-60781242D01*
X183216376Y-60781247D01*
X183393226Y-60916948D01*
X183586274Y-61028405D01*
X183792219Y-61113710D01*
X184007537Y-61171404D01*
X184228543Y-61200500D01*
X184228550Y-61200500D01*
X184451450Y-61200500D01*
X184451457Y-61200500D01*
X184672463Y-61171404D01*
X184887781Y-61113710D01*
X185093726Y-61028405D01*
X185286774Y-60916948D01*
X185463624Y-60781247D01*
X185621247Y-60623624D01*
X185756948Y-60446774D01*
X185868405Y-60253726D01*
X185953710Y-60047781D01*
X186011404Y-59832463D01*
X186040500Y-59611457D01*
X186040500Y-59388543D01*
X186011404Y-59167537D01*
X185953710Y-58952219D01*
X185868405Y-58746274D01*
X185756948Y-58553226D01*
X185690081Y-58466083D01*
X185621248Y-58376377D01*
X185621242Y-58376370D01*
X185463629Y-58218757D01*
X185463622Y-58218751D01*
X185286782Y-58083058D01*
X185286780Y-58083057D01*
X185286774Y-58083052D01*
X185093726Y-57971595D01*
X185093722Y-57971593D01*
X184887790Y-57886293D01*
X184887783Y-57886291D01*
X184887781Y-57886290D01*
X184672463Y-57828596D01*
X184672457Y-57828595D01*
X184672452Y-57828594D01*
X184451466Y-57799501D01*
X184451463Y-57799500D01*
X184451457Y-57799500D01*
X184228543Y-57799500D01*
X184228537Y-57799500D01*
X184228533Y-57799501D01*
X184007547Y-57828594D01*
X184007540Y-57828595D01*
X184007537Y-57828596D01*
X183792219Y-57886290D01*
X183792209Y-57886293D01*
X183586277Y-57971593D01*
X183586273Y-57971595D01*
X183393226Y-58083052D01*
X183393217Y-58083058D01*
X183216377Y-58218751D01*
X183216370Y-58218757D01*
X183058757Y-58376370D01*
X183058751Y-58376377D01*
X182923058Y-58553217D01*
X182923052Y-58553226D01*
X182811595Y-58746273D01*
X182811593Y-58746277D01*
X182726293Y-58952209D01*
X182726290Y-58952219D01*
X182683331Y-59112547D01*
X182668597Y-59167534D01*
X182668594Y-59167547D01*
X182639501Y-59388533D01*
X182639500Y-59388549D01*
X159749984Y-59388549D01*
X159719511Y-59294764D01*
X159705220Y-59250781D01*
X159705218Y-59250778D01*
X159705218Y-59250776D01*
X159633199Y-59109433D01*
X159612287Y-59068390D01*
X159589079Y-59036446D01*
X159491971Y-58902786D01*
X159347213Y-58758028D01*
X159181613Y-58637715D01*
X159181612Y-58637714D01*
X159181610Y-58637713D01*
X159128171Y-58610484D01*
X159077376Y-58562510D01*
X159060581Y-58494689D01*
X159083118Y-58428554D01*
X159128172Y-58389515D01*
X159137761Y-58384629D01*
X159181610Y-58362287D01*
X159288702Y-58284481D01*
X159347213Y-58241971D01*
X159347215Y-58241968D01*
X159347219Y-58241966D01*
X159491966Y-58097219D01*
X159491968Y-58097215D01*
X159491971Y-58097213D01*
X159583236Y-57971595D01*
X159612287Y-57931610D01*
X159705220Y-57749219D01*
X159768477Y-57554534D01*
X159800500Y-57352352D01*
X159800500Y-57147648D01*
X159780133Y-57019059D01*
X159768477Y-56945465D01*
X159705218Y-56750776D01*
X159671503Y-56684607D01*
X159612287Y-56568390D01*
X159569547Y-56509563D01*
X159491971Y-56402786D01*
X159347213Y-56258028D01*
X159181613Y-56137715D01*
X159181612Y-56137714D01*
X159181610Y-56137713D01*
X159098788Y-56095513D01*
X158999223Y-56044781D01*
X158804534Y-55981522D01*
X158624500Y-55953008D01*
X158602352Y-55949500D01*
X158397648Y-55949500D01*
X158375500Y-55953008D01*
X158195465Y-55981522D01*
X158000776Y-56044781D01*
X157818386Y-56137715D01*
X157652786Y-56258028D01*
X157508028Y-56402786D01*
X157387715Y-56568386D01*
X157294781Y-56750776D01*
X157231522Y-56945465D01*
X157199500Y-57147648D01*
X155065500Y-57147648D01*
X155065500Y-56673997D01*
X155026091Y-56475873D01*
X154948786Y-56289244D01*
X154948784Y-56289241D01*
X154948782Y-56289237D01*
X154836558Y-56121281D01*
X154693718Y-55978441D01*
X154525762Y-55866217D01*
X154525752Y-55866212D01*
X154339127Y-55788909D01*
X154339119Y-55788907D01*
X154141007Y-55749500D01*
X154141003Y-55749500D01*
X153938997Y-55749500D01*
X153938992Y-55749500D01*
X153740880Y-55788907D01*
X153740872Y-55788909D01*
X153554244Y-55866213D01*
X153473891Y-55919904D01*
X153407213Y-55940782D01*
X153339833Y-55922297D01*
X153336109Y-55919904D01*
X153319616Y-55908884D01*
X153295024Y-55892452D01*
X153255755Y-55866213D01*
X153069127Y-55788909D01*
X153069119Y-55788907D01*
X152871007Y-55749500D01*
X152871003Y-55749500D01*
X152668997Y-55749500D01*
X152668992Y-55749500D01*
X152470880Y-55788907D01*
X152470868Y-55788910D01*
X152390198Y-55822325D01*
X152320729Y-55829794D01*
X152275342Y-55810036D01*
X152275114Y-55810454D01*
X152270447Y-55807905D01*
X152268432Y-55807028D01*
X152267331Y-55806204D01*
X152267330Y-55806203D01*
X152267328Y-55806202D01*
X152132482Y-55755908D01*
X152132483Y-55755908D01*
X152072883Y-55749501D01*
X152072881Y-55749500D01*
X152072873Y-55749500D01*
X152072864Y-55749500D01*
X150927129Y-55749500D01*
X150927123Y-55749501D01*
X150867516Y-55755908D01*
X150732671Y-55806202D01*
X150732664Y-55806206D01*
X150617455Y-55892452D01*
X150617452Y-55892455D01*
X150531206Y-56007664D01*
X150531202Y-56007671D01*
X150480908Y-56142517D01*
X150474501Y-56202116D01*
X150474500Y-56202135D01*
X150474500Y-56559217D01*
X150454815Y-56626256D01*
X150438181Y-56646898D01*
X148621899Y-58463181D01*
X148560576Y-58496666D01*
X148534218Y-58499500D01*
X144887828Y-58499500D01*
X144820789Y-58479815D01*
X144807128Y-58468807D01*
X144806753Y-58469247D01*
X144803053Y-58466087D01*
X144803049Y-58466083D01*
X144795112Y-58460316D01*
X144752448Y-58404989D01*
X144746469Y-58335376D01*
X144779074Y-58273580D01*
X144795111Y-58259684D01*
X144803049Y-58253917D01*
X144953917Y-58103049D01*
X145079327Y-57930437D01*
X145176191Y-57740331D01*
X145242123Y-57537414D01*
X145275500Y-57326680D01*
X145275500Y-57113320D01*
X145242123Y-56902586D01*
X145176191Y-56699669D01*
X145176189Y-56699666D01*
X145176189Y-56699664D01*
X145079326Y-56509562D01*
X144953917Y-56336951D01*
X144803049Y-56186083D01*
X144630437Y-56060673D01*
X144440335Y-55963810D01*
X144237414Y-55897877D01*
X144203181Y-55892455D01*
X144026680Y-55864500D01*
X143723320Y-55864500D01*
X143617953Y-55881188D01*
X143512585Y-55897877D01*
X143309664Y-55963810D01*
X143119562Y-56060673D01*
X143036143Y-56121281D01*
X142946951Y-56186083D01*
X142946949Y-56186085D01*
X142946948Y-56186085D01*
X142796085Y-56336948D01*
X142796085Y-56336949D01*
X142796083Y-56336951D01*
X142748255Y-56402781D01*
X142670673Y-56509562D01*
X142573810Y-56699664D01*
X142507877Y-56902585D01*
X142494111Y-56989500D01*
X142474500Y-57113320D01*
X142474500Y-57326680D01*
X142485546Y-57396419D01*
X142507877Y-57537414D01*
X142573810Y-57740335D01*
X142659687Y-57908876D01*
X142670673Y-57930437D01*
X142796083Y-58103049D01*
X142946951Y-58253917D01*
X142954889Y-58259684D01*
X142997553Y-58315016D01*
X143003529Y-58384629D01*
X142970922Y-58446423D01*
X142954891Y-58460313D01*
X142954173Y-58460836D01*
X142946948Y-58466085D01*
X142943247Y-58469247D01*
X142941814Y-58467570D01*
X142888530Y-58496666D01*
X142862172Y-58499500D01*
X141775782Y-58499500D01*
X141708743Y-58479815D01*
X141688101Y-58463181D01*
X139206419Y-55981499D01*
X139172934Y-55920176D01*
X139171626Y-55913212D01*
X139170940Y-55908884D01*
X139170940Y-55908882D01*
X139112547Y-55729168D01*
X139112545Y-55729165D01*
X139112545Y-55729163D01*
X139067290Y-55640347D01*
X139026760Y-55560801D01*
X138915690Y-55407927D01*
X138782073Y-55274310D01*
X138629199Y-55163240D01*
X138581174Y-55138770D01*
X138460836Y-55077454D01*
X138281118Y-55019059D01*
X138094486Y-54989500D01*
X138094481Y-54989500D01*
X137905519Y-54989500D01*
X137905514Y-54989500D01*
X137718881Y-55019059D01*
X137539163Y-55077454D01*
X137370800Y-55163240D01*
X137302202Y-55213080D01*
X137217927Y-55274310D01*
X137217925Y-55274312D01*
X137217924Y-55274312D01*
X137084312Y-55407924D01*
X137084312Y-55407925D01*
X137084310Y-55407927D01*
X137061426Y-55439424D01*
X136973240Y-55560800D01*
X136887454Y-55729163D01*
X136829059Y-55908881D01*
X136799500Y-56095513D01*
X136799500Y-56284486D01*
X136829059Y-56471118D01*
X136887454Y-56650836D01*
X136938379Y-56750781D01*
X136973240Y-56819199D01*
X137084310Y-56972073D01*
X137217927Y-57105690D01*
X137370801Y-57216760D01*
X137450347Y-57257290D01*
X137539163Y-57302545D01*
X137539165Y-57302545D01*
X137539168Y-57302547D01*
X137718882Y-57360940D01*
X137721177Y-57361303D01*
X137723212Y-57361626D01*
X137786348Y-57391554D01*
X137791499Y-57396419D01*
X140529735Y-60134655D01*
X140529764Y-60134686D01*
X140672214Y-60277136D01*
X140672218Y-60277139D01*
X140836079Y-60386628D01*
X140836092Y-60386635D01*
X140964833Y-60439961D01*
X140981301Y-60446782D01*
X141018164Y-60462051D01*
X141114453Y-60481204D01*
X141153255Y-60488922D01*
X141211456Y-60500500D01*
X141211459Y-60500500D01*
X141211460Y-60500500D01*
X141408540Y-60500500D01*
X142421685Y-60500500D01*
X142488724Y-60520185D01*
X142534479Y-60572989D01*
X142544423Y-60642147D01*
X142533766Y-60674159D01*
X142534303Y-60674359D01*
X142480908Y-60817517D01*
X142474501Y-60877116D01*
X142474501Y-60877123D01*
X142474500Y-60877135D01*
X142474500Y-62682870D01*
X142474501Y-62682876D01*
X142480908Y-62742483D01*
X142514359Y-62832167D01*
X142519343Y-62901858D01*
X142485858Y-62963181D01*
X142424535Y-62996666D01*
X142398177Y-62999500D01*
X138938625Y-62999500D01*
X138871586Y-62979815D01*
X138850944Y-62963181D01*
X138782075Y-62894312D01*
X138782073Y-62894310D01*
X138629199Y-62783240D01*
X138460836Y-62697454D01*
X138281118Y-62639059D01*
X138094486Y-62609500D01*
X138094481Y-62609500D01*
X137905519Y-62609500D01*
X137905514Y-62609500D01*
X137718881Y-62639059D01*
X137539163Y-62697454D01*
X137370800Y-62783240D01*
X137303459Y-62832167D01*
X137217927Y-62894310D01*
X137217925Y-62894312D01*
X137217924Y-62894312D01*
X137084312Y-63027924D01*
X137084312Y-63027925D01*
X137084310Y-63027927D01*
X137036610Y-63093579D01*
X136973240Y-63180800D01*
X136887454Y-63349163D01*
X136829059Y-63528881D01*
X136799500Y-63715513D01*
X136799500Y-63904486D01*
X136829059Y-64091118D01*
X136887454Y-64270836D01*
X136963203Y-64419500D01*
X136973240Y-64439199D01*
X137084310Y-64592073D01*
X137217927Y-64725690D01*
X137370801Y-64836760D01*
X137450347Y-64877290D01*
X137539163Y-64922545D01*
X137539165Y-64922545D01*
X137539168Y-64922547D01*
X137635497Y-64953846D01*
X137718881Y-64980940D01*
X137905514Y-65010500D01*
X137905519Y-65010500D01*
X138094485Y-65010500D01*
X138147978Y-65002027D01*
X138167377Y-65000500D01*
X151658262Y-65000500D01*
X151725301Y-65020185D01*
X151731147Y-65024182D01*
X151820209Y-65088888D01*
X151828871Y-65095182D01*
X151954451Y-65159168D01*
X152008460Y-65186687D01*
X152104303Y-65217828D01*
X152200149Y-65248970D01*
X152292348Y-65263572D01*
X152399217Y-65280500D01*
X152399222Y-65280500D01*
X152600783Y-65280500D01*
X152743299Y-65257927D01*
X152799851Y-65248970D01*
X152877184Y-65223842D01*
X152947022Y-65221847D01*
X153006855Y-65257927D01*
X153037684Y-65320628D01*
X153039500Y-65341774D01*
X153039500Y-65994217D01*
X153019815Y-66061256D01*
X153003181Y-66081898D01*
X151121899Y-67963181D01*
X151060576Y-67996666D01*
X151034218Y-67999500D01*
X150841738Y-67999500D01*
X150774699Y-67979815D01*
X150768853Y-67975818D01*
X150671132Y-67904820D01*
X150671131Y-67904819D01*
X150671129Y-67904818D01*
X150545557Y-67840836D01*
X150491539Y-67813312D01*
X150299852Y-67751030D01*
X150100783Y-67719500D01*
X150100778Y-67719500D01*
X149899222Y-67719500D01*
X149899217Y-67719500D01*
X149700147Y-67751030D01*
X149508460Y-67813312D01*
X149328870Y-67904818D01*
X149263643Y-67952209D01*
X149165810Y-68023289D01*
X149165808Y-68023291D01*
X149165807Y-68023291D01*
X149023291Y-68165807D01*
X149023291Y-68165808D01*
X149023289Y-68165810D01*
X149018699Y-68172128D01*
X148904818Y-68328870D01*
X148813312Y-68508460D01*
X148751030Y-68700147D01*
X148719500Y-68899216D01*
X148719500Y-69100783D01*
X148751030Y-69299852D01*
X148813312Y-69491539D01*
X148882019Y-69626383D01*
X148904818Y-69671129D01*
X149023289Y-69834190D01*
X149165810Y-69976711D01*
X149328871Y-70095182D01*
X149478467Y-70171405D01*
X149508460Y-70186687D01*
X149604303Y-70217828D01*
X149700149Y-70248970D01*
X149792348Y-70263572D01*
X149899217Y-70280500D01*
X149899222Y-70280500D01*
X150100783Y-70280500D01*
X150197289Y-70265214D01*
X150299851Y-70248970D01*
X150491542Y-70186686D01*
X150671129Y-70095182D01*
X150716032Y-70062557D01*
X150768853Y-70024182D01*
X150834659Y-70000702D01*
X150841738Y-70000500D01*
X151598543Y-70000500D01*
X151678270Y-69984640D01*
X151718135Y-69976711D01*
X151791836Y-69962051D01*
X151885601Y-69923212D01*
X151973914Y-69886632D01*
X152137782Y-69777139D01*
X152277139Y-69637782D01*
X152277139Y-69637780D01*
X152287347Y-69627573D01*
X152287348Y-69627570D01*
X153507820Y-68407098D01*
X153569142Y-68373615D01*
X153638834Y-68378599D01*
X153694767Y-68420471D01*
X153719184Y-68485935D01*
X153719500Y-68494781D01*
X153719500Y-69827870D01*
X153719501Y-69827876D01*
X153725908Y-69887483D01*
X153776202Y-70022328D01*
X153776206Y-70022335D01*
X153862452Y-70137544D01*
X153862455Y-70137547D01*
X153977664Y-70223793D01*
X153977671Y-70223797D01*
X154112517Y-70274091D01*
X154112516Y-70274091D01*
X154119444Y-70274835D01*
X154172127Y-70280500D01*
X155505217Y-70280499D01*
X155572256Y-70300184D01*
X155618011Y-70352987D01*
X155627955Y-70422146D01*
X155598930Y-70485702D01*
X155592898Y-70492180D01*
X154303961Y-71781118D01*
X153062220Y-73022859D01*
X153062218Y-73022861D01*
X153008993Y-73076086D01*
X152922859Y-73162219D01*
X152813371Y-73326079D01*
X152813364Y-73326092D01*
X152737950Y-73508160D01*
X152737947Y-73508170D01*
X152699500Y-73701456D01*
X152699500Y-74584217D01*
X152679815Y-74651256D01*
X152663181Y-74671898D01*
X146962181Y-80372898D01*
X146900858Y-80406383D01*
X146831166Y-80401399D01*
X146775233Y-80359527D01*
X146750816Y-80294063D01*
X146750500Y-80285217D01*
X146750500Y-76695272D01*
X146750499Y-76695258D01*
X146747297Y-76670940D01*
X146720548Y-76467762D01*
X146661158Y-76246113D01*
X146573344Y-76034112D01*
X146458611Y-75835388D01*
X146458608Y-75835385D01*
X146458607Y-75835382D01*
X146318918Y-75653338D01*
X146318911Y-75653330D01*
X146156670Y-75491089D01*
X146156661Y-75491081D01*
X145974617Y-75351392D01*
X145775890Y-75236657D01*
X145775876Y-75236650D01*
X145563887Y-75148842D01*
X145499508Y-75131592D01*
X145342238Y-75089452D01*
X145304215Y-75084446D01*
X145114741Y-75059500D01*
X145114734Y-75059500D01*
X144885266Y-75059500D01*
X144885258Y-75059500D01*
X144668715Y-75088009D01*
X144657762Y-75089452D01*
X144638975Y-75094486D01*
X144436112Y-75148842D01*
X144224123Y-75236650D01*
X144224109Y-75236657D01*
X144025382Y-75351392D01*
X143843338Y-75491081D01*
X143681081Y-75653338D01*
X143541392Y-75835382D01*
X143426657Y-76034109D01*
X143426650Y-76034123D01*
X143338842Y-76246112D01*
X143321027Y-76312600D01*
X143280680Y-76463181D01*
X143279453Y-76467759D01*
X143279451Y-76467770D01*
X143249500Y-76695258D01*
X143249500Y-79908342D01*
X143229815Y-79975381D01*
X143213181Y-79996023D01*
X137446023Y-85763181D01*
X137384700Y-85796666D01*
X137358342Y-85799500D01*
X137184769Y-85799500D01*
X137081989Y-85810000D01*
X137081988Y-85810001D01*
X136915449Y-85865186D01*
X136915447Y-85865187D01*
X136766133Y-85957286D01*
X136766129Y-85957289D01*
X136642074Y-86081344D01*
X136642071Y-86081348D01*
X136549972Y-86230662D01*
X136549971Y-86230664D01*
X136494786Y-86397203D01*
X136494785Y-86397204D01*
X136484285Y-86499984D01*
X136484285Y-87066614D01*
X136480060Y-87098707D01*
X136464239Y-87157751D01*
X136464236Y-87157764D01*
X136434286Y-87385265D01*
X131500500Y-87385265D01*
X131500499Y-85458611D01*
X131500499Y-82199996D01*
X131500498Y-82199979D01*
X131489999Y-82097201D01*
X131489998Y-82097198D01*
X131434815Y-81930665D01*
X131434811Y-81930659D01*
X131434810Y-81930656D01*
X131342714Y-81781347D01*
X131342711Y-81781343D01*
X131218656Y-81657288D01*
X131218652Y-81657285D01*
X131069343Y-81565189D01*
X131069337Y-81565186D01*
X131069335Y-81565185D01*
X130954513Y-81527137D01*
X130902800Y-81510001D01*
X130800012Y-81499500D01*
X124199996Y-81499500D01*
X124199979Y-81499501D01*
X124097201Y-81510000D01*
X124097198Y-81510001D01*
X123930667Y-81565184D01*
X123930656Y-81565189D01*
X123781347Y-81657285D01*
X123781343Y-81657288D01*
X123657288Y-81781343D01*
X123657285Y-81781347D01*
X123565189Y-81930656D01*
X123565184Y-81930667D01*
X123510001Y-82097199D01*
X123499500Y-82199981D01*
X121480322Y-82199981D01*
X121485761Y-82172640D01*
X121500500Y-82098543D01*
X121500500Y-78965782D01*
X121520185Y-78898743D01*
X121536819Y-78878101D01*
X122506996Y-77907924D01*
X123389406Y-77025513D01*
X126299500Y-77025513D01*
X126299500Y-77214486D01*
X126329059Y-77401118D01*
X126387454Y-77580836D01*
X126460463Y-77724123D01*
X126473240Y-77749199D01*
X126584310Y-77902073D01*
X126717927Y-78035690D01*
X126870801Y-78146760D01*
X126911598Y-78167547D01*
X127039163Y-78232545D01*
X127039165Y-78232545D01*
X127039168Y-78232547D01*
X127135497Y-78263846D01*
X127218881Y-78290940D01*
X127405514Y-78320500D01*
X127405519Y-78320500D01*
X127594486Y-78320500D01*
X127781118Y-78290940D01*
X127960832Y-78232547D01*
X128129199Y-78146760D01*
X128282073Y-78035690D01*
X128415690Y-77902073D01*
X128526760Y-77749199D01*
X128612547Y-77580832D01*
X128670940Y-77401118D01*
X128680091Y-77343339D01*
X128700500Y-77214486D01*
X128700500Y-77025513D01*
X128670940Y-76838881D01*
X128627878Y-76706351D01*
X128612547Y-76659168D01*
X128612545Y-76659165D01*
X128612545Y-76659163D01*
X128545081Y-76526759D01*
X128526760Y-76490801D01*
X128415690Y-76337927D01*
X128282073Y-76204310D01*
X128129199Y-76093240D01*
X127960836Y-76007454D01*
X127781118Y-75949059D01*
X127594486Y-75919500D01*
X127594481Y-75919500D01*
X127405519Y-75919500D01*
X127405514Y-75919500D01*
X127218881Y-75949059D01*
X127039163Y-76007454D01*
X126870800Y-76093240D01*
X126790751Y-76151400D01*
X126717927Y-76204310D01*
X126717925Y-76204312D01*
X126717924Y-76204312D01*
X126584312Y-76337924D01*
X126584312Y-76337925D01*
X126584310Y-76337927D01*
X126548138Y-76387713D01*
X126473240Y-76490800D01*
X126387454Y-76659163D01*
X126329059Y-76838881D01*
X126299500Y-77025513D01*
X123389406Y-77025513D01*
X123708502Y-76706417D01*
X123769823Y-76672934D01*
X123776789Y-76671626D01*
X123781114Y-76670941D01*
X123781116Y-76670940D01*
X123781118Y-76670940D01*
X123960832Y-76612547D01*
X124129199Y-76526760D01*
X124282073Y-76415690D01*
X124415690Y-76282073D01*
X124526760Y-76129199D01*
X124612547Y-75960832D01*
X124670940Y-75781118D01*
X124691178Y-75653339D01*
X124700500Y-75594486D01*
X124700500Y-75405513D01*
X124670940Y-75218881D01*
X124624783Y-75076826D01*
X124612547Y-75039168D01*
X124612545Y-75039165D01*
X124612545Y-75039163D01*
X124567290Y-74950347D01*
X124526760Y-74870801D01*
X124415690Y-74717927D01*
X124282073Y-74584310D01*
X124166050Y-74500014D01*
X135300000Y-74500014D01*
X135300000Y-75250000D01*
X136451518Y-75250000D01*
X136440889Y-75268409D01*
X136400000Y-75421009D01*
X136400000Y-75578991D01*
X136440889Y-75731591D01*
X136451518Y-75750000D01*
X135300000Y-75750000D01*
X135300000Y-76499985D01*
X135310493Y-76602689D01*
X135310494Y-76602696D01*
X135365641Y-76769118D01*
X135365643Y-76769123D01*
X135457684Y-76918344D01*
X135581655Y-77042315D01*
X135730876Y-77134356D01*
X135730881Y-77134358D01*
X135897303Y-77189505D01*
X135897310Y-77189506D01*
X136000014Y-77199999D01*
X136000027Y-77200000D01*
X136750000Y-77200000D01*
X136750000Y-76048482D01*
X136768409Y-76059111D01*
X136921009Y-76100000D01*
X137078991Y-76100000D01*
X137231591Y-76059111D01*
X137250000Y-76048482D01*
X137250000Y-77200000D01*
X137999973Y-77200000D01*
X137999985Y-77199999D01*
X138102689Y-77189506D01*
X138102696Y-77189505D01*
X138269118Y-77134358D01*
X138269123Y-77134356D01*
X138418344Y-77042315D01*
X138542315Y-76918344D01*
X138634356Y-76769123D01*
X138634358Y-76769118D01*
X138689505Y-76602696D01*
X138689506Y-76602689D01*
X138699999Y-76499985D01*
X138700000Y-76499972D01*
X138700000Y-75750000D01*
X137548482Y-75750000D01*
X137559111Y-75731591D01*
X137600000Y-75578991D01*
X137600000Y-75421009D01*
X137559111Y-75268409D01*
X137548482Y-75250000D01*
X138700000Y-75250000D01*
X138700000Y-74500027D01*
X138699999Y-74500014D01*
X138689506Y-74397310D01*
X138689505Y-74397303D01*
X138634358Y-74230881D01*
X138634356Y-74230876D01*
X138542315Y-74081655D01*
X138418344Y-73957684D01*
X138269123Y-73865643D01*
X138269118Y-73865641D01*
X138102696Y-73810494D01*
X138102689Y-73810493D01*
X137999985Y-73800000D01*
X137250000Y-73800000D01*
X137250000Y-74951517D01*
X137231591Y-74940889D01*
X137078991Y-74900000D01*
X136921009Y-74900000D01*
X136768409Y-74940889D01*
X136750000Y-74951517D01*
X136750000Y-73800000D01*
X136000014Y-73800000D01*
X135897310Y-73810493D01*
X135897303Y-73810494D01*
X135730881Y-73865641D01*
X135730876Y-73865643D01*
X135581655Y-73957684D01*
X135457684Y-74081655D01*
X135365643Y-74230876D01*
X135365641Y-74230881D01*
X135310494Y-74397303D01*
X135310493Y-74397310D01*
X135300000Y-74500014D01*
X124166050Y-74500014D01*
X124129199Y-74473240D01*
X123960836Y-74387454D01*
X123781118Y-74329059D01*
X123594486Y-74299500D01*
X123594481Y-74299500D01*
X123405519Y-74299500D01*
X123405514Y-74299500D01*
X123218881Y-74329059D01*
X123039163Y-74387454D01*
X122870800Y-74473240D01*
X122788243Y-74533222D01*
X122717927Y-74584310D01*
X122717925Y-74584312D01*
X122717924Y-74584312D01*
X122584312Y-74717924D01*
X122584312Y-74717925D01*
X122584310Y-74717927D01*
X122569369Y-74738492D01*
X122473240Y-74870800D01*
X122387454Y-75039165D01*
X122387453Y-75039167D01*
X122387453Y-75039168D01*
X122375217Y-75076826D01*
X122329059Y-75218885D01*
X122328372Y-75223222D01*
X122298437Y-75286355D01*
X122293581Y-75291496D01*
X120458929Y-77126150D01*
X119862220Y-77722859D01*
X119862218Y-77722861D01*
X119810769Y-77774310D01*
X119722859Y-77862219D01*
X119613369Y-78026082D01*
X119613368Y-78026085D01*
X119582545Y-78100500D01*
X119582545Y-78100501D01*
X119554778Y-78167536D01*
X119537950Y-78208160D01*
X119537947Y-78208170D01*
X119499500Y-78401456D01*
X119499500Y-79811464D01*
X119479815Y-79878503D01*
X119427011Y-79924258D01*
X119357853Y-79934202D01*
X119294297Y-79905177D01*
X119276234Y-79885776D01*
X119258155Y-79861626D01*
X119247546Y-79847454D01*
X119247544Y-79847453D01*
X119247544Y-79847452D01*
X119132335Y-79761206D01*
X119132328Y-79761202D01*
X118997482Y-79710908D01*
X118997483Y-79710908D01*
X118937883Y-79704501D01*
X118937881Y-79704500D01*
X118937873Y-79704500D01*
X118937864Y-79704500D01*
X117342129Y-79704500D01*
X117342123Y-79704501D01*
X117282516Y-79710908D01*
X117147671Y-79761202D01*
X117147664Y-79761206D01*
X117032455Y-79847452D01*
X117032452Y-79847455D01*
X116946206Y-79962664D01*
X116946202Y-79962671D01*
X116895908Y-80097517D01*
X116889550Y-80156661D01*
X116889500Y-80157127D01*
X116889500Y-80573347D01*
X116889501Y-80875500D01*
X116869817Y-80942539D01*
X116817013Y-80988294D01*
X116765501Y-80999500D01*
X114531469Y-80999500D01*
X114464430Y-80979815D01*
X114443788Y-80963181D01*
X114412363Y-80931756D01*
X114412358Y-80931752D01*
X114234025Y-80802187D01*
X114234024Y-80802186D01*
X114234022Y-80802185D01*
X114116791Y-80742452D01*
X114037606Y-80702104D01*
X114037603Y-80702103D01*
X113827952Y-80633985D01*
X113683581Y-80611119D01*
X113610222Y-80599500D01*
X113389778Y-80599500D01*
X113317201Y-80610995D01*
X113172047Y-80633985D01*
X112962396Y-80702103D01*
X112962393Y-80702104D01*
X112765974Y-80802187D01*
X112587641Y-80931752D01*
X112587636Y-80931756D01*
X112537463Y-80981929D01*
X112476140Y-81015413D01*
X112406448Y-81010428D01*
X112350515Y-80968557D01*
X112333601Y-80937580D01*
X112303797Y-80857671D01*
X112303793Y-80857664D01*
X112217547Y-80742455D01*
X112217544Y-80742452D01*
X112102335Y-80656206D01*
X112102328Y-80656202D01*
X111967482Y-80605908D01*
X111967483Y-80605908D01*
X111907883Y-80599501D01*
X111907881Y-80599500D01*
X111907873Y-80599500D01*
X111907864Y-80599500D01*
X110012129Y-80599500D01*
X110012123Y-80599501D01*
X109952515Y-80605909D01*
X109938545Y-80611119D01*
X109868853Y-80616100D01*
X109807536Y-80582616D01*
X107706419Y-78481499D01*
X107672934Y-78420176D01*
X107671626Y-78413212D01*
X107670940Y-78408884D01*
X107670940Y-78408882D01*
X107612547Y-78229168D01*
X107612545Y-78229165D01*
X107612545Y-78229163D01*
X107546988Y-78100501D01*
X107526760Y-78060801D01*
X107415690Y-77907927D01*
X107282073Y-77774310D01*
X107129199Y-77663240D01*
X106960836Y-77577454D01*
X106781118Y-77519059D01*
X106594486Y-77489500D01*
X106594481Y-77489500D01*
X106405519Y-77489500D01*
X106405514Y-77489500D01*
X106218881Y-77519059D01*
X106039163Y-77577454D01*
X105870800Y-77663240D01*
X105788743Y-77722859D01*
X105717927Y-77774310D01*
X105717925Y-77774312D01*
X105717924Y-77774312D01*
X105584312Y-77907924D01*
X105584312Y-77907925D01*
X105584310Y-77907927D01*
X105563832Y-77936113D01*
X105473240Y-78060800D01*
X105387454Y-78229163D01*
X105329059Y-78408881D01*
X105299500Y-78595513D01*
X93000500Y-78595513D01*
X93000500Y-75405513D01*
X114679500Y-75405513D01*
X114679500Y-75594486D01*
X114709059Y-75781118D01*
X114767454Y-75960836D01*
X114817528Y-76059111D01*
X114853240Y-76129199D01*
X114964310Y-76282073D01*
X115097927Y-76415690D01*
X115250801Y-76526760D01*
X115330347Y-76567290D01*
X115419163Y-76612545D01*
X115419165Y-76612545D01*
X115419168Y-76612547D01*
X115515497Y-76643846D01*
X115598881Y-76670940D01*
X115785514Y-76700500D01*
X115785519Y-76700500D01*
X115974486Y-76700500D01*
X116161118Y-76670940D01*
X116197348Y-76659168D01*
X116340832Y-76612547D01*
X116509199Y-76526760D01*
X116662073Y-76415690D01*
X116795690Y-76282073D01*
X116906760Y-76129199D01*
X116992547Y-75960832D01*
X117050940Y-75781118D01*
X117059719Y-75725690D01*
X117080500Y-75594486D01*
X117080500Y-75405513D01*
X117050940Y-75218881D01*
X117004783Y-75076826D01*
X116992547Y-75039168D01*
X116992545Y-75039165D01*
X116992545Y-75039163D01*
X116947290Y-74950347D01*
X116906760Y-74870801D01*
X116795690Y-74717927D01*
X116662073Y-74584310D01*
X116509199Y-74473240D01*
X116340836Y-74387454D01*
X116161118Y-74329059D01*
X115974486Y-74299500D01*
X115974481Y-74299500D01*
X115785519Y-74299500D01*
X115785514Y-74299500D01*
X115598881Y-74329059D01*
X115419163Y-74387454D01*
X115250800Y-74473240D01*
X115168243Y-74533222D01*
X115097927Y-74584310D01*
X115097925Y-74584312D01*
X115097924Y-74584312D01*
X114964312Y-74717924D01*
X114964312Y-74717925D01*
X114964310Y-74717927D01*
X114949369Y-74738492D01*
X114853240Y-74870800D01*
X114767454Y-75039163D01*
X114709059Y-75218881D01*
X114679500Y-75405513D01*
X93000500Y-75405513D01*
X93000500Y-74861230D01*
X93020185Y-74794191D01*
X93072989Y-74748436D01*
X93142147Y-74738492D01*
X93205703Y-74767517D01*
X93212181Y-74773549D01*
X93281343Y-74842711D01*
X93281347Y-74842714D01*
X93430656Y-74934810D01*
X93430659Y-74934811D01*
X93430665Y-74934815D01*
X93597201Y-74989999D01*
X93699989Y-75000500D01*
X100300010Y-75000499D01*
X100312541Y-74999219D01*
X100317897Y-74998671D01*
X100402799Y-74989999D01*
X100569335Y-74934815D01*
X100718656Y-74842712D01*
X100842712Y-74718656D01*
X100934815Y-74569335D01*
X100989999Y-74402799D01*
X101000500Y-74300011D01*
X101000499Y-69897648D01*
X107199500Y-69897648D01*
X107199500Y-70102351D01*
X107231522Y-70304534D01*
X107294781Y-70499223D01*
X107358691Y-70624653D01*
X107382276Y-70670940D01*
X107387715Y-70681613D01*
X107508028Y-70847213D01*
X107652786Y-70991971D01*
X107818388Y-71112286D01*
X107871828Y-71139516D01*
X107922623Y-71187490D01*
X107939418Y-71255312D01*
X107916880Y-71321446D01*
X107871828Y-71360484D01*
X107818388Y-71387713D01*
X107652786Y-71508028D01*
X107508028Y-71652786D01*
X107387715Y-71818386D01*
X107294781Y-72000776D01*
X107231522Y-72195465D01*
X107217805Y-72282074D01*
X107199500Y-72397648D01*
X107199500Y-72602352D01*
X107201245Y-72613368D01*
X107231522Y-72804534D01*
X107294781Y-72999223D01*
X107358691Y-73124653D01*
X107377832Y-73162218D01*
X107387715Y-73181613D01*
X107508028Y-73347213D01*
X107652786Y-73491971D01*
X107807749Y-73604556D01*
X107818390Y-73612287D01*
X107897864Y-73652781D01*
X108000776Y-73705218D01*
X108000778Y-73705218D01*
X108000781Y-73705220D01*
X108105137Y-73739127D01*
X108195465Y-73768477D01*
X108230822Y-73774077D01*
X108397648Y-73800500D01*
X108397649Y-73800500D01*
X108602351Y-73800500D01*
X108602352Y-73800500D01*
X108804534Y-73768477D01*
X108999219Y-73705220D01*
X109181610Y-73612287D01*
X109274590Y-73544732D01*
X109347213Y-73491971D01*
X109347215Y-73491968D01*
X109347219Y-73491966D01*
X109491966Y-73347219D01*
X109491968Y-73347215D01*
X109491971Y-73347213D01*
X109576024Y-73231522D01*
X109612287Y-73181610D01*
X109705220Y-72999219D01*
X109768477Y-72804534D01*
X109800500Y-72602352D01*
X109800500Y-72397648D01*
X109782195Y-72282074D01*
X109768477Y-72195465D01*
X109714196Y-72028406D01*
X109705220Y-72000781D01*
X109705218Y-72000778D01*
X109705218Y-72000776D01*
X109662501Y-71916941D01*
X109612287Y-71818390D01*
X109585208Y-71781118D01*
X109491971Y-71652786D01*
X109347217Y-71508032D01*
X109337490Y-71500965D01*
X109206110Y-71405513D01*
X114679500Y-71405513D01*
X114679500Y-71594486D01*
X114709059Y-71781118D01*
X114767454Y-71960836D01*
X114845346Y-72113706D01*
X114853240Y-72129199D01*
X114964310Y-72282073D01*
X115097927Y-72415690D01*
X115250801Y-72526760D01*
X115272757Y-72537947D01*
X115419163Y-72612545D01*
X115419165Y-72612545D01*
X115419168Y-72612547D01*
X115515497Y-72643846D01*
X115598881Y-72670940D01*
X115785514Y-72700500D01*
X115785519Y-72700500D01*
X115974486Y-72700500D01*
X116161118Y-72670940D01*
X116184422Y-72663368D01*
X116340832Y-72612547D01*
X116509199Y-72526760D01*
X116662073Y-72415690D01*
X116795690Y-72282073D01*
X116906760Y-72129199D01*
X116992547Y-71960832D01*
X117050940Y-71781118D01*
X117071266Y-71652786D01*
X117080500Y-71594486D01*
X117080500Y-71405513D01*
X122299500Y-71405513D01*
X122299500Y-71594486D01*
X122329059Y-71781118D01*
X122387454Y-71960836D01*
X122465346Y-72113706D01*
X122473240Y-72129199D01*
X122584310Y-72282073D01*
X122717927Y-72415690D01*
X122870801Y-72526760D01*
X122892757Y-72537947D01*
X123039163Y-72612545D01*
X123039165Y-72612545D01*
X123039168Y-72612547D01*
X123135497Y-72643846D01*
X123218881Y-72670940D01*
X123405514Y-72700500D01*
X123405519Y-72700500D01*
X123594486Y-72700500D01*
X123781118Y-72670940D01*
X123804422Y-72663368D01*
X123960832Y-72612547D01*
X124129199Y-72526760D01*
X124282073Y-72415690D01*
X124415690Y-72282073D01*
X124526760Y-72129199D01*
X124612547Y-71960832D01*
X124670940Y-71781118D01*
X124691266Y-71652786D01*
X124700500Y-71594486D01*
X124700500Y-71405513D01*
X124670940Y-71218881D01*
X124615348Y-71047790D01*
X124612547Y-71039168D01*
X124612545Y-71039165D01*
X124612545Y-71039163D01*
X124526759Y-70870800D01*
X124415690Y-70717927D01*
X124282073Y-70584310D01*
X124129199Y-70473240D01*
X123960836Y-70387454D01*
X123781118Y-70329059D01*
X123594486Y-70299500D01*
X123594481Y-70299500D01*
X123405519Y-70299500D01*
X123405514Y-70299500D01*
X123218881Y-70329059D01*
X123039163Y-70387454D01*
X122870800Y-70473240D01*
X122797139Y-70526759D01*
X122717927Y-70584310D01*
X122717925Y-70584312D01*
X122717924Y-70584312D01*
X122584312Y-70717924D01*
X122584312Y-70717925D01*
X122584310Y-70717927D01*
X122536610Y-70783579D01*
X122473240Y-70870800D01*
X122387454Y-71039163D01*
X122329059Y-71218881D01*
X122299500Y-71405513D01*
X117080500Y-71405513D01*
X117050940Y-71218881D01*
X116995348Y-71047790D01*
X116992547Y-71039168D01*
X116992545Y-71039165D01*
X116992545Y-71039163D01*
X116906759Y-70870800D01*
X116795690Y-70717927D01*
X116662073Y-70584310D01*
X116509199Y-70473240D01*
X116340836Y-70387454D01*
X116161118Y-70329059D01*
X115974486Y-70299500D01*
X115974481Y-70299500D01*
X115785519Y-70299500D01*
X115785514Y-70299500D01*
X115598881Y-70329059D01*
X115419163Y-70387454D01*
X115250800Y-70473240D01*
X115177139Y-70526759D01*
X115097927Y-70584310D01*
X115097925Y-70584312D01*
X115097924Y-70584312D01*
X114964312Y-70717924D01*
X114964312Y-70717925D01*
X114964310Y-70717927D01*
X114916610Y-70783579D01*
X114853240Y-70870800D01*
X114767454Y-71039163D01*
X114709059Y-71218881D01*
X114679500Y-71405513D01*
X109206110Y-71405513D01*
X109181609Y-71387712D01*
X109128172Y-71360485D01*
X109077376Y-71312510D01*
X109060581Y-71244689D01*
X109083118Y-71178554D01*
X109128172Y-71139515D01*
X109181610Y-71112287D01*
X109274590Y-71044732D01*
X109347213Y-70991971D01*
X109347215Y-70991968D01*
X109347219Y-70991966D01*
X109491966Y-70847219D01*
X109491968Y-70847215D01*
X109491971Y-70847213D01*
X109585901Y-70717927D01*
X109612287Y-70681610D01*
X109705220Y-70499219D01*
X109768477Y-70304534D01*
X109800500Y-70102352D01*
X109800500Y-69897648D01*
X109768477Y-69695466D01*
X109760569Y-69671129D01*
X109722257Y-69553217D01*
X109705220Y-69500781D01*
X109705218Y-69500778D01*
X109705218Y-69500776D01*
X109682883Y-69456942D01*
X109675010Y-69441490D01*
X109656679Y-69405513D01*
X126299500Y-69405513D01*
X126299500Y-69594486D01*
X126329059Y-69781118D01*
X126387454Y-69960836D01*
X126461262Y-70105691D01*
X126473240Y-70129199D01*
X126584310Y-70282073D01*
X126717927Y-70415690D01*
X126870801Y-70526760D01*
X126950347Y-70567290D01*
X127039163Y-70612545D01*
X127039165Y-70612545D01*
X127039168Y-70612547D01*
X127135497Y-70643846D01*
X127218881Y-70670940D01*
X127405514Y-70700500D01*
X127405519Y-70700500D01*
X127594486Y-70700500D01*
X127781118Y-70670940D01*
X127960832Y-70612547D01*
X128129199Y-70526760D01*
X128282073Y-70415690D01*
X128309214Y-70388549D01*
X135299500Y-70388549D01*
X135299500Y-70611450D01*
X135299501Y-70611466D01*
X135328594Y-70832452D01*
X135328595Y-70832457D01*
X135328596Y-70832463D01*
X135371336Y-70991971D01*
X135386290Y-71047780D01*
X135386293Y-71047790D01*
X135471593Y-71253722D01*
X135471595Y-71253726D01*
X135583052Y-71446774D01*
X135583057Y-71446780D01*
X135583058Y-71446782D01*
X135718751Y-71623622D01*
X135718757Y-71623629D01*
X135876370Y-71781242D01*
X135876376Y-71781247D01*
X136053226Y-71916948D01*
X136246274Y-72028405D01*
X136452219Y-72113710D01*
X136667537Y-72171404D01*
X136888543Y-72200500D01*
X136888550Y-72200500D01*
X137111450Y-72200500D01*
X137111457Y-72200500D01*
X137332463Y-72171404D01*
X137547781Y-72113710D01*
X137753726Y-72028405D01*
X137946774Y-71916948D01*
X138123624Y-71781247D01*
X138281247Y-71623624D01*
X138416948Y-71446774D01*
X138528405Y-71253726D01*
X138613710Y-71047781D01*
X138671404Y-70832463D01*
X138700500Y-70611457D01*
X138700500Y-70388543D01*
X138671404Y-70167537D01*
X138613710Y-69952219D01*
X138528405Y-69746274D01*
X138416948Y-69553226D01*
X138303609Y-69405519D01*
X138281248Y-69376377D01*
X138281242Y-69376370D01*
X138123629Y-69218757D01*
X138084879Y-69189023D01*
X138084877Y-69189021D01*
X137963015Y-69095513D01*
X143799500Y-69095513D01*
X143799500Y-69284486D01*
X143829059Y-69471118D01*
X143887454Y-69650836D01*
X143953903Y-69781248D01*
X143973240Y-69819199D01*
X144084310Y-69972073D01*
X144217927Y-70105690D01*
X144370801Y-70216760D01*
X144434015Y-70248969D01*
X144539163Y-70302545D01*
X144539165Y-70302545D01*
X144539168Y-70302547D01*
X144620763Y-70329059D01*
X144718881Y-70360940D01*
X144905514Y-70390500D01*
X144905519Y-70390500D01*
X145094486Y-70390500D01*
X145281118Y-70360940D01*
X145460832Y-70302547D01*
X145629199Y-70216760D01*
X145782073Y-70105690D01*
X145915690Y-69972073D01*
X146026760Y-69819199D01*
X146112547Y-69650832D01*
X146170940Y-69471118D01*
X146181973Y-69401460D01*
X146200500Y-69284486D01*
X146200500Y-69095513D01*
X146170940Y-68908881D01*
X146113312Y-68731523D01*
X146112547Y-68729168D01*
X146112545Y-68729165D01*
X146112545Y-68729163D01*
X146026759Y-68560800D01*
X145915690Y-68407927D01*
X145782073Y-68274310D01*
X145629199Y-68163240D01*
X145626909Y-68162073D01*
X145460836Y-68077454D01*
X145281118Y-68019059D01*
X145094486Y-67989500D01*
X145094481Y-67989500D01*
X144905519Y-67989500D01*
X144905514Y-67989500D01*
X144718881Y-68019059D01*
X144539163Y-68077454D01*
X144370800Y-68163240D01*
X144358566Y-68172129D01*
X144217927Y-68274310D01*
X144217925Y-68274312D01*
X144217924Y-68274312D01*
X144084312Y-68407924D01*
X144084312Y-68407925D01*
X144084310Y-68407927D01*
X144036857Y-68473240D01*
X143973240Y-68560800D01*
X143887454Y-68729163D01*
X143829059Y-68908881D01*
X143799500Y-69095513D01*
X137963015Y-69095513D01*
X137946783Y-69083058D01*
X137946777Y-69083054D01*
X137946774Y-69083052D01*
X137753726Y-68971595D01*
X137753722Y-68971593D01*
X137547790Y-68886293D01*
X137547783Y-68886291D01*
X137547781Y-68886290D01*
X137332463Y-68828596D01*
X137332457Y-68828595D01*
X137332452Y-68828594D01*
X137111466Y-68799501D01*
X137111463Y-68799500D01*
X137111457Y-68799500D01*
X136888543Y-68799500D01*
X136888537Y-68799500D01*
X136888533Y-68799501D01*
X136667547Y-68828594D01*
X136667540Y-68828595D01*
X136667537Y-68828596D01*
X136653098Y-68832465D01*
X136452219Y-68886290D01*
X136452209Y-68886293D01*
X136246277Y-68971593D01*
X136246273Y-68971595D01*
X136053226Y-69083052D01*
X136053217Y-69083058D01*
X135876377Y-69218751D01*
X135876370Y-69218757D01*
X135718757Y-69376370D01*
X135718751Y-69376377D01*
X135583058Y-69553217D01*
X135583052Y-69553226D01*
X135471595Y-69746273D01*
X135471593Y-69746277D01*
X135386293Y-69952209D01*
X135386290Y-69952219D01*
X135336568Y-70137787D01*
X135328597Y-70167534D01*
X135328594Y-70167547D01*
X135299501Y-70388533D01*
X135299500Y-70388549D01*
X128309214Y-70388549D01*
X128415690Y-70282073D01*
X128526760Y-70129199D01*
X128612547Y-69960832D01*
X128670940Y-69781118D01*
X128685109Y-69691659D01*
X128700500Y-69594486D01*
X128700500Y-69405513D01*
X128670940Y-69218881D01*
X128615348Y-69047790D01*
X128612547Y-69039168D01*
X128612545Y-69039165D01*
X128612545Y-69039163D01*
X128546163Y-68908882D01*
X128526760Y-68870801D01*
X128415690Y-68717927D01*
X128282073Y-68584310D01*
X128129199Y-68473240D01*
X127960836Y-68387454D01*
X127781118Y-68329059D01*
X127594486Y-68299500D01*
X127594481Y-68299500D01*
X127405519Y-68299500D01*
X127405514Y-68299500D01*
X127218881Y-68329059D01*
X127039163Y-68387454D01*
X126870800Y-68473240D01*
X126822325Y-68508460D01*
X126717927Y-68584310D01*
X126717925Y-68584312D01*
X126717924Y-68584312D01*
X126584312Y-68717924D01*
X126584312Y-68717925D01*
X126584310Y-68717927D01*
X126576147Y-68729163D01*
X126473240Y-68870800D01*
X126387454Y-69039163D01*
X126329059Y-69218881D01*
X126299500Y-69405513D01*
X109656679Y-69405513D01*
X109612287Y-69318390D01*
X109604556Y-69307749D01*
X109491971Y-69152786D01*
X109347213Y-69008028D01*
X109181613Y-68887715D01*
X109181612Y-68887714D01*
X109181610Y-68887713D01*
X109124653Y-68858691D01*
X108999223Y-68794781D01*
X108804534Y-68731522D01*
X108629995Y-68703878D01*
X108602352Y-68699500D01*
X108397648Y-68699500D01*
X108373329Y-68703351D01*
X108195465Y-68731522D01*
X108000776Y-68794781D01*
X107818386Y-68887715D01*
X107652786Y-69008028D01*
X107508028Y-69152786D01*
X107387715Y-69318386D01*
X107294781Y-69500776D01*
X107231522Y-69695465D01*
X107199500Y-69897648D01*
X101000499Y-69897648D01*
X101000499Y-67699990D01*
X100995477Y-67650832D01*
X100989999Y-67597201D01*
X100989998Y-67597198D01*
X100975424Y-67553217D01*
X100934815Y-67430665D01*
X100934811Y-67430659D01*
X100934810Y-67430656D01*
X100842714Y-67281347D01*
X100842711Y-67281343D01*
X100718656Y-67157288D01*
X100718652Y-67157285D01*
X100569343Y-67065189D01*
X100569337Y-67065186D01*
X100569335Y-67065185D01*
X100569332Y-67065184D01*
X100402800Y-67010001D01*
X100300012Y-66999500D01*
X93699996Y-66999500D01*
X93699979Y-66999501D01*
X93597201Y-67010000D01*
X93597198Y-67010001D01*
X93430667Y-67065184D01*
X93430656Y-67065189D01*
X93281347Y-67157285D01*
X93281343Y-67157288D01*
X93212181Y-67226451D01*
X93150858Y-67259936D01*
X93081166Y-67254952D01*
X93025233Y-67213080D01*
X93000816Y-67147616D01*
X93000500Y-67138770D01*
X93000500Y-65715513D01*
X115799500Y-65715513D01*
X115799500Y-65904486D01*
X115829059Y-66091118D01*
X115887454Y-66270836D01*
X115957305Y-66407925D01*
X115973240Y-66439199D01*
X116084310Y-66592073D01*
X116217927Y-66725690D01*
X116370801Y-66836760D01*
X116450347Y-66877290D01*
X116539163Y-66922545D01*
X116539165Y-66922545D01*
X116539168Y-66922547D01*
X116635497Y-66953846D01*
X116718881Y-66980940D01*
X116905514Y-67010500D01*
X116905519Y-67010500D01*
X117094486Y-67010500D01*
X117281118Y-66980940D01*
X117460832Y-66922547D01*
X117629199Y-66836760D01*
X117782073Y-66725690D01*
X117915690Y-66592073D01*
X118026760Y-66439199D01*
X118112547Y-66270832D01*
X118170940Y-66091118D01*
X118172400Y-66081898D01*
X118200500Y-65904486D01*
X118200500Y-65715513D01*
X118172708Y-65540045D01*
X118170940Y-65528882D01*
X118169845Y-65525513D01*
X119299500Y-65525513D01*
X119299500Y-65714486D01*
X119329059Y-65901118D01*
X119387454Y-66080836D01*
X119452788Y-66209060D01*
X119473240Y-66249199D01*
X119584310Y-66402073D01*
X119717927Y-66535690D01*
X119870801Y-66646760D01*
X119950347Y-66687290D01*
X120039163Y-66732545D01*
X120039165Y-66732545D01*
X120039168Y-66732547D01*
X120135497Y-66763846D01*
X120218881Y-66790940D01*
X120405514Y-66820500D01*
X120405519Y-66820500D01*
X120594486Y-66820500D01*
X120781118Y-66790940D01*
X120960832Y-66732547D01*
X121129199Y-66646760D01*
X121282073Y-66535690D01*
X121415690Y-66402073D01*
X121526760Y-66249199D01*
X121612547Y-66080832D01*
X121670940Y-65901118D01*
X121700337Y-65715513D01*
X121700500Y-65714486D01*
X121700500Y-65525513D01*
X121670940Y-65338881D01*
X121632913Y-65221847D01*
X121612547Y-65159168D01*
X121612545Y-65159165D01*
X121612545Y-65159163D01*
X121567290Y-65070347D01*
X121526760Y-64990801D01*
X121415690Y-64837927D01*
X121282073Y-64704310D01*
X121129199Y-64593240D01*
X121126909Y-64592073D01*
X120960836Y-64507454D01*
X120781118Y-64449059D01*
X120594486Y-64419500D01*
X120594481Y-64419500D01*
X120405519Y-64419500D01*
X120405514Y-64419500D01*
X120218881Y-64449059D01*
X120039163Y-64507454D01*
X119870800Y-64593240D01*
X119807737Y-64639059D01*
X119717927Y-64704310D01*
X119717925Y-64704312D01*
X119717924Y-64704312D01*
X119584312Y-64837924D01*
X119584312Y-64837925D01*
X119584310Y-64837927D01*
X119543345Y-64894310D01*
X119473240Y-64990800D01*
X119387454Y-65159163D01*
X119329059Y-65338881D01*
X119299500Y-65525513D01*
X118169845Y-65525513D01*
X118112547Y-65349168D01*
X118112545Y-65349165D01*
X118112545Y-65349163D01*
X118029759Y-65186687D01*
X118026760Y-65180801D01*
X117915690Y-65027927D01*
X117782073Y-64894310D01*
X117629199Y-64783240D01*
X117460836Y-64697454D01*
X117281118Y-64639059D01*
X117094486Y-64609500D01*
X117094481Y-64609500D01*
X116905519Y-64609500D01*
X116905514Y-64609500D01*
X116718881Y-64639059D01*
X116539163Y-64697454D01*
X116370800Y-64783240D01*
X116297139Y-64836759D01*
X116217927Y-64894310D01*
X116217925Y-64894312D01*
X116217924Y-64894312D01*
X116084312Y-65027924D01*
X116084312Y-65027925D01*
X116084310Y-65027927D01*
X116036610Y-65093579D01*
X115973240Y-65180800D01*
X115887454Y-65349163D01*
X115829059Y-65528881D01*
X115799500Y-65715513D01*
X93000500Y-65715513D01*
X93000500Y-62861230D01*
X93020185Y-62794191D01*
X93072989Y-62748436D01*
X93142147Y-62738492D01*
X93205703Y-62767517D01*
X93212181Y-62773549D01*
X93281343Y-62842711D01*
X93281347Y-62842714D01*
X93430656Y-62934810D01*
X93430659Y-62934811D01*
X93430665Y-62934815D01*
X93597201Y-62989999D01*
X93699989Y-63000500D01*
X100300010Y-63000499D01*
X100402799Y-62989999D01*
X100569335Y-62934815D01*
X100718656Y-62842712D01*
X100842712Y-62718656D01*
X100934815Y-62569335D01*
X100989999Y-62402799D01*
X101000500Y-62300011D01*
X101000500Y-59699983D01*
X105999500Y-59699983D01*
X105999500Y-61300001D01*
X105999501Y-61300018D01*
X106010000Y-61402796D01*
X106010001Y-61402799D01*
X106065185Y-61569331D01*
X106065186Y-61569334D01*
X106157288Y-61718656D01*
X106281344Y-61842712D01*
X106430666Y-61934814D01*
X106597203Y-61989999D01*
X106699991Y-62000500D01*
X108300008Y-62000499D01*
X108402797Y-61989999D01*
X108569334Y-61934814D01*
X108718656Y-61842712D01*
X108842712Y-61718656D01*
X108934814Y-61569334D01*
X108989999Y-61402797D01*
X109000500Y-61300009D01*
X109000499Y-60381902D01*
X109499500Y-60381902D01*
X109499500Y-60618097D01*
X109536446Y-60851368D01*
X109609433Y-61075996D01*
X109672871Y-61200498D01*
X109716657Y-61286433D01*
X109855483Y-61477510D01*
X110022490Y-61644517D01*
X110213567Y-61783343D01*
X110312991Y-61834002D01*
X110424003Y-61890566D01*
X110424005Y-61890566D01*
X110424008Y-61890568D01*
X110542003Y-61928907D01*
X110648631Y-61963553D01*
X110881903Y-62000500D01*
X110881908Y-62000500D01*
X111118097Y-62000500D01*
X111351368Y-61963553D01*
X111400712Y-61947520D01*
X111575992Y-61890568D01*
X111786433Y-61783343D01*
X111977510Y-61644517D01*
X112144517Y-61477510D01*
X112283343Y-61286433D01*
X112390568Y-61075992D01*
X112463553Y-60851368D01*
X112468694Y-60818911D01*
X112500500Y-60618097D01*
X112500500Y-60381902D01*
X112463553Y-60148631D01*
X112427500Y-60037674D01*
X112390568Y-59924008D01*
X112390566Y-59924005D01*
X112390566Y-59924003D01*
X112283342Y-59713566D01*
X112144517Y-59522490D01*
X111977510Y-59355483D01*
X111786433Y-59216657D01*
X111754723Y-59200500D01*
X111575996Y-59109433D01*
X111351368Y-59036446D01*
X111118097Y-58999500D01*
X111118092Y-58999500D01*
X110881908Y-58999500D01*
X110881903Y-58999500D01*
X110648631Y-59036446D01*
X110424003Y-59109433D01*
X110213566Y-59216657D01*
X110166606Y-59250776D01*
X110022490Y-59355483D01*
X110022488Y-59355485D01*
X110022487Y-59355485D01*
X109855485Y-59522487D01*
X109855485Y-59522488D01*
X109855483Y-59522490D01*
X109820416Y-59570756D01*
X109716657Y-59713566D01*
X109609433Y-59924003D01*
X109536446Y-60148631D01*
X109499500Y-60381902D01*
X109000499Y-60381902D01*
X109000499Y-59699992D01*
X108989999Y-59597203D01*
X108934814Y-59430666D01*
X108842712Y-59281344D01*
X108718656Y-59157288D01*
X108569334Y-59065186D01*
X108402797Y-59010001D01*
X108402795Y-59010000D01*
X108300010Y-58999500D01*
X106699998Y-58999500D01*
X106699981Y-58999501D01*
X106597203Y-59010000D01*
X106597200Y-59010001D01*
X106430668Y-59065185D01*
X106430663Y-59065187D01*
X106281342Y-59157289D01*
X106157289Y-59281342D01*
X106065187Y-59430663D01*
X106065185Y-59430668D01*
X106037349Y-59514670D01*
X106010001Y-59597203D01*
X106010001Y-59597204D01*
X106010000Y-59597204D01*
X105999500Y-59699983D01*
X101000500Y-59699983D01*
X101000500Y-59010000D01*
X101000500Y-58095513D01*
X115799500Y-58095513D01*
X115799500Y-58284486D01*
X115829059Y-58471118D01*
X115887454Y-58650836D01*
X115942072Y-58758028D01*
X115973240Y-58819199D01*
X116084310Y-58972073D01*
X116217927Y-59105690D01*
X116370801Y-59216760D01*
X116437571Y-59250781D01*
X116539163Y-59302545D01*
X116539165Y-59302545D01*
X116539168Y-59302547D01*
X116602793Y-59323220D01*
X116718881Y-59360940D01*
X116905514Y-59390500D01*
X116905519Y-59390500D01*
X117094486Y-59390500D01*
X117281118Y-59360940D01*
X117460832Y-59302547D01*
X117629199Y-59216760D01*
X117782073Y-59105690D01*
X117915690Y-58972073D01*
X118026760Y-58819199D01*
X118112547Y-58650832D01*
X118170940Y-58471118D01*
X118172197Y-58463181D01*
X118200500Y-58284486D01*
X118200500Y-58095513D01*
X118172708Y-57920045D01*
X118170940Y-57908882D01*
X118169845Y-57905513D01*
X119299500Y-57905513D01*
X119299500Y-58094486D01*
X119329059Y-58281118D01*
X119387454Y-58460836D01*
X119439260Y-58562510D01*
X119473240Y-58629199D01*
X119584310Y-58782073D01*
X119717927Y-58915690D01*
X119870801Y-59026760D01*
X119950347Y-59067290D01*
X120039163Y-59112545D01*
X120039165Y-59112545D01*
X120039168Y-59112547D01*
X120135497Y-59143846D01*
X120218881Y-59170940D01*
X120405514Y-59200500D01*
X120405519Y-59200500D01*
X120594486Y-59200500D01*
X120781118Y-59170940D01*
X120960832Y-59112547D01*
X121129199Y-59026760D01*
X121282073Y-58915690D01*
X121415690Y-58782073D01*
X121526760Y-58629199D01*
X121612547Y-58460832D01*
X121670940Y-58281118D01*
X121680818Y-58218751D01*
X121700500Y-58094486D01*
X121700500Y-57905513D01*
X121670940Y-57718881D01*
X121637482Y-57615909D01*
X121612547Y-57539168D01*
X121612545Y-57539165D01*
X121612545Y-57539163D01*
X121561869Y-57439706D01*
X121526760Y-57370801D01*
X121415690Y-57217927D01*
X121282073Y-57084310D01*
X121129199Y-56973240D01*
X121126909Y-56972073D01*
X120960836Y-56887454D01*
X120781118Y-56829059D01*
X120594486Y-56799500D01*
X120594481Y-56799500D01*
X120405519Y-56799500D01*
X120405514Y-56799500D01*
X120218881Y-56829059D01*
X120039163Y-56887454D01*
X119870800Y-56973240D01*
X119807737Y-57019059D01*
X119717927Y-57084310D01*
X119717925Y-57084312D01*
X119717924Y-57084312D01*
X119584312Y-57217924D01*
X119584312Y-57217925D01*
X119584310Y-57217927D01*
X119543345Y-57274310D01*
X119473240Y-57370800D01*
X119387454Y-57539163D01*
X119329059Y-57718881D01*
X119299500Y-57905513D01*
X118169845Y-57905513D01*
X118112547Y-57729168D01*
X118112545Y-57729165D01*
X118112545Y-57729163D01*
X118026759Y-57560800D01*
X117915690Y-57407927D01*
X117782073Y-57274310D01*
X117629199Y-57163240D01*
X117598598Y-57147648D01*
X117460836Y-57077454D01*
X117281118Y-57019059D01*
X117094486Y-56989500D01*
X117094481Y-56989500D01*
X116905519Y-56989500D01*
X116905514Y-56989500D01*
X116718881Y-57019059D01*
X116539163Y-57077454D01*
X116370800Y-57163240D01*
X116297139Y-57216759D01*
X116217927Y-57274310D01*
X116217925Y-57274312D01*
X116217924Y-57274312D01*
X116084312Y-57407924D01*
X116084312Y-57407925D01*
X116084310Y-57407927D01*
X116036610Y-57473579D01*
X115973240Y-57560800D01*
X115887454Y-57729163D01*
X115829059Y-57908881D01*
X115799500Y-58095513D01*
X101000500Y-58095513D01*
X101000500Y-58090647D01*
X101000499Y-55699996D01*
X101000498Y-55699979D01*
X100989999Y-55597201D01*
X100989998Y-55597198D01*
X100977937Y-55560800D01*
X100934815Y-55430665D01*
X100934811Y-55430659D01*
X100934810Y-55430656D01*
X100842714Y-55281347D01*
X100842711Y-55281343D01*
X100718656Y-55157288D01*
X100718652Y-55157285D01*
X100569343Y-55065189D01*
X100569337Y-55065186D01*
X100569335Y-55065185D01*
X100491131Y-55039271D01*
X100402800Y-55010001D01*
X100300012Y-54999500D01*
X93699996Y-54999500D01*
X93699979Y-54999501D01*
X93597201Y-55010000D01*
X93597198Y-55010001D01*
X93430667Y-55065184D01*
X93430656Y-55065189D01*
X93281347Y-55157285D01*
X93281343Y-55157288D01*
X93212181Y-55226451D01*
X93150858Y-55259936D01*
X93081166Y-55254952D01*
X93025233Y-55213080D01*
X93000816Y-55147616D01*
X93000500Y-55138770D01*
X93000500Y-50124000D01*
X93020185Y-50056961D01*
X93072989Y-50011206D01*
X93124500Y-50000000D01*
X111000000Y-50000000D01*
X111000000Y-47397648D01*
X113199500Y-47397648D01*
X113199500Y-47602351D01*
X113231522Y-47804534D01*
X113294781Y-47999223D01*
X113387715Y-48181613D01*
X113508028Y-48347213D01*
X113652786Y-48491971D01*
X113807749Y-48604556D01*
X113818390Y-48612287D01*
X113934607Y-48671503D01*
X114000776Y-48705218D01*
X114000778Y-48705218D01*
X114000781Y-48705220D01*
X114105137Y-48739127D01*
X114195465Y-48768477D01*
X114296557Y-48784488D01*
X114397648Y-48800500D01*
X114397649Y-48800500D01*
X114602351Y-48800500D01*
X114602352Y-48800500D01*
X114804534Y-48768477D01*
X114999219Y-48705220D01*
X115181610Y-48612287D01*
X115302877Y-48524181D01*
X115368683Y-48500702D01*
X115375762Y-48500500D01*
X120534218Y-48500500D01*
X120601257Y-48520185D01*
X120621899Y-48536819D01*
X120719735Y-48634655D01*
X120719764Y-48634686D01*
X120862214Y-48777136D01*
X120862218Y-48777139D01*
X121026079Y-48886628D01*
X121026092Y-48886635D01*
X121154833Y-48939961D01*
X121197744Y-48957735D01*
X121208164Y-48962051D01*
X121304812Y-48981275D01*
X121353135Y-48990887D01*
X121401458Y-49000500D01*
X121401459Y-49000500D01*
X121401460Y-49000500D01*
X121598540Y-49000500D01*
X122687837Y-49000500D01*
X122754876Y-49020185D01*
X122800631Y-49072989D01*
X122809088Y-49098533D01*
X122810000Y-49102795D01*
X122865186Y-49269335D01*
X122865187Y-49269337D01*
X122957286Y-49418651D01*
X122957289Y-49418655D01*
X123081344Y-49542710D01*
X123081348Y-49542713D01*
X123230662Y-49634812D01*
X123230664Y-49634813D01*
X123230666Y-49634814D01*
X123397203Y-49689999D01*
X123499992Y-49700500D01*
X124734218Y-49700500D01*
X124801257Y-49720185D01*
X124821899Y-49736819D01*
X130463181Y-55378101D01*
X130496666Y-55439424D01*
X130499500Y-55465782D01*
X130499500Y-58302344D01*
X130479815Y-58369383D01*
X130427011Y-58415138D01*
X130357853Y-58425082D01*
X130294297Y-58396057D01*
X130258790Y-58341348D01*
X130258422Y-58341501D01*
X130257597Y-58339510D01*
X130256841Y-58338345D01*
X130256091Y-58335874D01*
X130251013Y-58323615D01*
X130178786Y-58149244D01*
X130178784Y-58149241D01*
X130178782Y-58149237D01*
X130066558Y-57981281D01*
X129923718Y-57838441D01*
X129755762Y-57726217D01*
X129755752Y-57726212D01*
X129569127Y-57648909D01*
X129569119Y-57648907D01*
X129371007Y-57609500D01*
X129371003Y-57609500D01*
X129168997Y-57609500D01*
X129168992Y-57609500D01*
X128970880Y-57648907D01*
X128970872Y-57648909D01*
X128784244Y-57726213D01*
X128703891Y-57779904D01*
X128637213Y-57800782D01*
X128569833Y-57782297D01*
X128566109Y-57779904D01*
X128485755Y-57726213D01*
X128299127Y-57648909D01*
X128299119Y-57648907D01*
X128101007Y-57609500D01*
X128101003Y-57609500D01*
X127898997Y-57609500D01*
X127898992Y-57609500D01*
X127700880Y-57648907D01*
X127700868Y-57648910D01*
X127620198Y-57682325D01*
X127550729Y-57689794D01*
X127505342Y-57670036D01*
X127505114Y-57670454D01*
X127500447Y-57667905D01*
X127498432Y-57667028D01*
X127497331Y-57666204D01*
X127497330Y-57666203D01*
X127497328Y-57666202D01*
X127362482Y-57615908D01*
X127362483Y-57615908D01*
X127302883Y-57609501D01*
X127302881Y-57609500D01*
X127302873Y-57609500D01*
X127302864Y-57609500D01*
X126157129Y-57609500D01*
X126157123Y-57609501D01*
X126097516Y-57615908D01*
X125962671Y-57666202D01*
X125962664Y-57666206D01*
X125847455Y-57752452D01*
X125847452Y-57752455D01*
X125761206Y-57867664D01*
X125761202Y-57867671D01*
X125710908Y-58002517D01*
X125704501Y-58062116D01*
X125704500Y-58062135D01*
X125704500Y-59657870D01*
X125704501Y-59657876D01*
X125710908Y-59717483D01*
X125761202Y-59852328D01*
X125761206Y-59852335D01*
X125847452Y-59967544D01*
X125847455Y-59967547D01*
X125962664Y-60053793D01*
X125962671Y-60053797D01*
X126097517Y-60104091D01*
X126097516Y-60104091D01*
X126104444Y-60104835D01*
X126157127Y-60110500D01*
X127302872Y-60110499D01*
X127362483Y-60104091D01*
X127497331Y-60053796D01*
X127498430Y-60052972D01*
X127499717Y-60052492D01*
X127505112Y-60049547D01*
X127505535Y-60050322D01*
X127563887Y-60028552D01*
X127620198Y-60037673D01*
X127700873Y-60071091D01*
X127866777Y-60104091D01*
X127898992Y-60110499D01*
X127898996Y-60110500D01*
X127898997Y-60110500D01*
X128101004Y-60110500D01*
X128101005Y-60110499D01*
X128299127Y-60071091D01*
X128485756Y-59993786D01*
X128566110Y-59940094D01*
X128632786Y-59919217D01*
X128700166Y-59937701D01*
X128703865Y-59940078D01*
X128784244Y-59993786D01*
X128970873Y-60071091D01*
X129136777Y-60104091D01*
X129168992Y-60110499D01*
X129168996Y-60110500D01*
X129168997Y-60110500D01*
X129371004Y-60110500D01*
X129371005Y-60110499D01*
X129569127Y-60071091D01*
X129755756Y-59993786D01*
X129923718Y-59881558D01*
X130066558Y-59738718D01*
X130178786Y-59570756D01*
X130256091Y-59384127D01*
X130256092Y-59384121D01*
X130256840Y-59381658D01*
X130257583Y-59380523D01*
X130258422Y-59378499D01*
X130258806Y-59378658D01*
X130295138Y-59323220D01*
X130358951Y-59294764D01*
X130428018Y-59305326D01*
X130480411Y-59351551D01*
X130499500Y-59417655D01*
X130499500Y-61034217D01*
X130479815Y-61101256D01*
X130463181Y-61121898D01*
X129731897Y-61853181D01*
X129670574Y-61886666D01*
X129644216Y-61889500D01*
X128697129Y-61889500D01*
X128697123Y-61889501D01*
X128637516Y-61895908D01*
X128502672Y-61946202D01*
X128502665Y-61946206D01*
X128501556Y-61947037D01*
X128500258Y-61947520D01*
X128494887Y-61950454D01*
X128494465Y-61949681D01*
X128436090Y-61971449D01*
X128379800Y-61962325D01*
X128299127Y-61928909D01*
X128299119Y-61928907D01*
X128101007Y-61889500D01*
X128101003Y-61889500D01*
X127898997Y-61889500D01*
X127898992Y-61889500D01*
X127700880Y-61928907D01*
X127700872Y-61928909D01*
X127514244Y-62006213D01*
X127433891Y-62059904D01*
X127367213Y-62080782D01*
X127299833Y-62062297D01*
X127296109Y-62059904D01*
X127215755Y-62006213D01*
X127029127Y-61928909D01*
X127029119Y-61928907D01*
X126831007Y-61889500D01*
X126831003Y-61889500D01*
X126628997Y-61889500D01*
X126628992Y-61889500D01*
X126430880Y-61928907D01*
X126430872Y-61928909D01*
X126244247Y-62006212D01*
X126244237Y-62006217D01*
X126076281Y-62118441D01*
X125933441Y-62261281D01*
X125821217Y-62429237D01*
X125821212Y-62429247D01*
X125743909Y-62615872D01*
X125743907Y-62615880D01*
X125704500Y-62813992D01*
X125704500Y-63466007D01*
X125743907Y-63664119D01*
X125743909Y-63664127D01*
X125821212Y-63850752D01*
X125821217Y-63850762D01*
X125933441Y-64018718D01*
X126076281Y-64161558D01*
X126244237Y-64273782D01*
X126244241Y-64273784D01*
X126244244Y-64273786D01*
X126430873Y-64351091D01*
X126596777Y-64384091D01*
X126628992Y-64390499D01*
X126628996Y-64390500D01*
X126628997Y-64390500D01*
X126831004Y-64390500D01*
X126831005Y-64390499D01*
X127029127Y-64351091D01*
X127215756Y-64273786D01*
X127296110Y-64220094D01*
X127362786Y-64199217D01*
X127430166Y-64217701D01*
X127433865Y-64220078D01*
X127514244Y-64273786D01*
X127700873Y-64351091D01*
X127866777Y-64384091D01*
X127898992Y-64390499D01*
X127898996Y-64390500D01*
X127898997Y-64390500D01*
X128101004Y-64390500D01*
X128101005Y-64390499D01*
X128299127Y-64351091D01*
X128379798Y-64317674D01*
X128449267Y-64310205D01*
X128494658Y-64329962D01*
X128494886Y-64329546D01*
X128499540Y-64332087D01*
X128501562Y-64332967D01*
X128502669Y-64333796D01*
X128502670Y-64333796D01*
X128502671Y-64333797D01*
X128637517Y-64384091D01*
X128637516Y-64384091D01*
X128644444Y-64384835D01*
X128697127Y-64390500D01*
X129842872Y-64390499D01*
X129902483Y-64384091D01*
X130037331Y-64333796D01*
X130152546Y-64247546D01*
X130238796Y-64132331D01*
X130249179Y-64104491D01*
X130291047Y-64048558D01*
X130317908Y-64033261D01*
X130333914Y-64026632D01*
X130497782Y-63917139D01*
X130637139Y-63777782D01*
X130637140Y-63777779D01*
X130644206Y-63770714D01*
X130644209Y-63770710D01*
X130699406Y-63715513D01*
X131799500Y-63715513D01*
X131799500Y-63904486D01*
X131829059Y-64091118D01*
X131887454Y-64270836D01*
X131963203Y-64419500D01*
X131973240Y-64439199D01*
X132084310Y-64592073D01*
X132217927Y-64725690D01*
X132370801Y-64836760D01*
X132450347Y-64877290D01*
X132539163Y-64922545D01*
X132539165Y-64922545D01*
X132539168Y-64922547D01*
X132635497Y-64953846D01*
X132718881Y-64980940D01*
X132905514Y-65010500D01*
X132905519Y-65010500D01*
X133094486Y-65010500D01*
X133281118Y-64980940D01*
X133460832Y-64922547D01*
X133629199Y-64836760D01*
X133782073Y-64725690D01*
X133915690Y-64592073D01*
X134026760Y-64439199D01*
X134112547Y-64270832D01*
X134170940Y-64091118D01*
X134180104Y-64033260D01*
X134200500Y-63904486D01*
X134200500Y-63715513D01*
X134170940Y-63528881D01*
X134112545Y-63349163D01*
X134026759Y-63180800D01*
X133915690Y-63027927D01*
X133782073Y-62894310D01*
X133629199Y-62783240D01*
X133460836Y-62697454D01*
X133281118Y-62639059D01*
X133094486Y-62609500D01*
X133094481Y-62609500D01*
X132905519Y-62609500D01*
X132905514Y-62609500D01*
X132718881Y-62639059D01*
X132539163Y-62697454D01*
X132370800Y-62783240D01*
X132303459Y-62832167D01*
X132217927Y-62894310D01*
X132217925Y-62894312D01*
X132217924Y-62894312D01*
X132084312Y-63027924D01*
X132084312Y-63027925D01*
X132084310Y-63027927D01*
X132036610Y-63093579D01*
X131973240Y-63180800D01*
X131887454Y-63349163D01*
X131829059Y-63528881D01*
X131799500Y-63715513D01*
X130699406Y-63715513D01*
X132137778Y-62277141D01*
X132137782Y-62277139D01*
X132277139Y-62137782D01*
X132386632Y-61973914D01*
X132462051Y-61791835D01*
X132491355Y-61644517D01*
X132500500Y-61598543D01*
X132500500Y-57460654D01*
X132520185Y-57393615D01*
X132572989Y-57347860D01*
X132642147Y-57337916D01*
X132662817Y-57342723D01*
X132678506Y-57347821D01*
X132718874Y-57360938D01*
X132718877Y-57360938D01*
X132718882Y-57360940D01*
X132805322Y-57374630D01*
X132905514Y-57390500D01*
X132905519Y-57390500D01*
X133094486Y-57390500D01*
X133281118Y-57360940D01*
X133307552Y-57352351D01*
X133460832Y-57302547D01*
X133629199Y-57216760D01*
X133782073Y-57105690D01*
X133915690Y-56972073D01*
X134026760Y-56819199D01*
X134112547Y-56650832D01*
X134170940Y-56471118D01*
X134181763Y-56402786D01*
X134200500Y-56284486D01*
X134200500Y-56095513D01*
X134170940Y-55908881D01*
X134131958Y-55788909D01*
X134112547Y-55729168D01*
X134112545Y-55729165D01*
X134112545Y-55729163D01*
X134067290Y-55640347D01*
X134026760Y-55560801D01*
X133915690Y-55407927D01*
X133782073Y-55274310D01*
X133629199Y-55163240D01*
X133581174Y-55138770D01*
X133460836Y-55077454D01*
X133281118Y-55019059D01*
X133094486Y-54989500D01*
X133094481Y-54989500D01*
X132905519Y-54989500D01*
X132905514Y-54989500D01*
X132718881Y-55019059D01*
X132662819Y-55037276D01*
X132592978Y-55039271D01*
X132533145Y-55003191D01*
X132502316Y-54940490D01*
X132500500Y-54919345D01*
X132500500Y-54901457D01*
X132481275Y-54804813D01*
X132481275Y-54804812D01*
X132462051Y-54708164D01*
X132438303Y-54650832D01*
X132386632Y-54526086D01*
X132386631Y-54526084D01*
X132386630Y-54526082D01*
X132277139Y-54362218D01*
X132277136Y-54362214D01*
X132134686Y-54219764D01*
X132134655Y-54219735D01*
X132010433Y-54095513D01*
X162799500Y-54095513D01*
X162799500Y-54284486D01*
X162829059Y-54471118D01*
X162887454Y-54650836D01*
X162965908Y-54804810D01*
X162973240Y-54819199D01*
X163084310Y-54972073D01*
X163217927Y-55105690D01*
X163370801Y-55216760D01*
X163389821Y-55226451D01*
X163539163Y-55302545D01*
X163539165Y-55302545D01*
X163539168Y-55302547D01*
X163635497Y-55333846D01*
X163718881Y-55360940D01*
X163905514Y-55390500D01*
X163905519Y-55390500D01*
X164094486Y-55390500D01*
X164281118Y-55360940D01*
X164460832Y-55302547D01*
X164629199Y-55216760D01*
X164782073Y-55105690D01*
X164915690Y-54972073D01*
X165026760Y-54819199D01*
X165112547Y-54650832D01*
X165170940Y-54471118D01*
X165188188Y-54362218D01*
X165200500Y-54284486D01*
X165200500Y-54095513D01*
X165170940Y-53908881D01*
X165112545Y-53729163D01*
X165026759Y-53560800D01*
X164915690Y-53407927D01*
X164782073Y-53274310D01*
X164629199Y-53163240D01*
X164460836Y-53077454D01*
X164281118Y-53019059D01*
X164094486Y-52989500D01*
X164094481Y-52989500D01*
X163905519Y-52989500D01*
X163905514Y-52989500D01*
X163718881Y-53019059D01*
X163539163Y-53077454D01*
X163370800Y-53163240D01*
X163283579Y-53226610D01*
X163217927Y-53274310D01*
X163217925Y-53274312D01*
X163217924Y-53274312D01*
X163084312Y-53407924D01*
X163084312Y-53407925D01*
X163084310Y-53407927D01*
X163036610Y-53473579D01*
X162973240Y-53560800D01*
X162887454Y-53729163D01*
X162829059Y-53908881D01*
X162799500Y-54095513D01*
X132010433Y-54095513D01*
X126236819Y-48321899D01*
X126203334Y-48260576D01*
X126200500Y-48234218D01*
X126200500Y-46999997D01*
X126200499Y-46999984D01*
X126200151Y-46996581D01*
X126189999Y-46897203D01*
X126134814Y-46730666D01*
X126129999Y-46722860D01*
X126042713Y-46581348D01*
X126042710Y-46581344D01*
X125918655Y-46457289D01*
X125918651Y-46457286D01*
X125769337Y-46365187D01*
X125769335Y-46365186D01*
X125686065Y-46337593D01*
X125602797Y-46310001D01*
X125602795Y-46310000D01*
X125500015Y-46299500D01*
X125500008Y-46299500D01*
X123499992Y-46299500D01*
X123499984Y-46299500D01*
X123397204Y-46310000D01*
X123397203Y-46310001D01*
X123230664Y-46365186D01*
X123230662Y-46365187D01*
X123081348Y-46457286D01*
X123081344Y-46457289D01*
X122957289Y-46581344D01*
X122957286Y-46581348D01*
X122865187Y-46730662D01*
X122865186Y-46730664D01*
X122810000Y-46897204D01*
X122809088Y-46901467D01*
X122775801Y-46962898D01*
X122714586Y-46996581D01*
X122687837Y-46999500D01*
X121965782Y-46999500D01*
X121898743Y-46979815D01*
X121878101Y-46963181D01*
X121781479Y-46866559D01*
X121781459Y-46866537D01*
X121637785Y-46722863D01*
X121637781Y-46722860D01*
X121473920Y-46613371D01*
X121473911Y-46613366D01*
X121396602Y-46581344D01*
X121345165Y-46560038D01*
X121291836Y-46537949D01*
X121291832Y-46537948D01*
X121291828Y-46537946D01*
X121195188Y-46518724D01*
X121098544Y-46499500D01*
X121098541Y-46499500D01*
X115375762Y-46499500D01*
X115308723Y-46479815D01*
X115302877Y-46475818D01*
X115181611Y-46387713D01*
X115127621Y-46360203D01*
X115076825Y-46312228D01*
X115060031Y-46244407D01*
X115082569Y-46178272D01*
X115127624Y-46139233D01*
X115181349Y-46111859D01*
X115225921Y-46079474D01*
X114546447Y-45400000D01*
X114552661Y-45400000D01*
X114654394Y-45372741D01*
X114745606Y-45320080D01*
X114820080Y-45245606D01*
X114872741Y-45154394D01*
X114900000Y-45052661D01*
X114900000Y-45046447D01*
X115579474Y-45725921D01*
X115611859Y-45681349D01*
X115704755Y-45499031D01*
X115767990Y-45304417D01*
X115800000Y-45102317D01*
X115800000Y-44897682D01*
X115767990Y-44695582D01*
X115704755Y-44500968D01*
X115640213Y-44374298D01*
X115640212Y-44374296D01*
X115611861Y-44318652D01*
X115579474Y-44274077D01*
X115579474Y-44274076D01*
X114900000Y-44953551D01*
X114900000Y-44947339D01*
X114872741Y-44845606D01*
X114820080Y-44754394D01*
X114745606Y-44679920D01*
X114654394Y-44627259D01*
X114552661Y-44600000D01*
X114546446Y-44600000D01*
X115225922Y-43920524D01*
X115225921Y-43920523D01*
X115181359Y-43888147D01*
X115181350Y-43888141D01*
X114999031Y-43795244D01*
X114804417Y-43732009D01*
X114602317Y-43700000D01*
X114397683Y-43700000D01*
X114195582Y-43732009D01*
X114000968Y-43795244D01*
X113818644Y-43888143D01*
X113774077Y-43920523D01*
X113774077Y-43920524D01*
X114453554Y-44600000D01*
X114447339Y-44600000D01*
X114345606Y-44627259D01*
X114254394Y-44679920D01*
X114179920Y-44754394D01*
X114127259Y-44845606D01*
X114100000Y-44947339D01*
X114100000Y-44953553D01*
X113420524Y-44274077D01*
X113420523Y-44274077D01*
X113388143Y-44318644D01*
X113295244Y-44500968D01*
X113232009Y-44695582D01*
X113200000Y-44897682D01*
X113200000Y-45102317D01*
X113232009Y-45304417D01*
X113295244Y-45499031D01*
X113388141Y-45681350D01*
X113388147Y-45681359D01*
X113420523Y-45725921D01*
X113420524Y-45725922D01*
X114100000Y-45046446D01*
X114100000Y-45052661D01*
X114127259Y-45154394D01*
X114179920Y-45245606D01*
X114254394Y-45320080D01*
X114345606Y-45372741D01*
X114447339Y-45400000D01*
X114453553Y-45400000D01*
X113774076Y-46079474D01*
X113818652Y-46111861D01*
X113872376Y-46139234D01*
X113923172Y-46187208D01*
X113939968Y-46255028D01*
X113917431Y-46321164D01*
X113872379Y-46360203D01*
X113818386Y-46387714D01*
X113652786Y-46508028D01*
X113508028Y-46652786D01*
X113387715Y-46818386D01*
X113294781Y-47000776D01*
X113231522Y-47195465D01*
X113199500Y-47397648D01*
X111000000Y-47397648D01*
X111000000Y-42888575D01*
X122800000Y-42888575D01*
X122800000Y-43111424D01*
X122829085Y-43332354D01*
X122829088Y-43332367D01*
X122886763Y-43547618D01*
X122972045Y-43753502D01*
X122972054Y-43753520D01*
X123083464Y-43946491D01*
X123083473Y-43946504D01*
X123134040Y-44012403D01*
X123134043Y-44012403D01*
X123935387Y-43211059D01*
X123940889Y-43231591D01*
X124019881Y-43368408D01*
X124131592Y-43480119D01*
X124268409Y-43559111D01*
X124288940Y-43564612D01*
X123487595Y-44365955D01*
X123487595Y-44365956D01*
X123553507Y-44416533D01*
X123746485Y-44527949D01*
X123746497Y-44527954D01*
X123952381Y-44613236D01*
X124167632Y-44670911D01*
X124167645Y-44670914D01*
X124388575Y-44700000D01*
X124611425Y-44700000D01*
X124832354Y-44670914D01*
X124832367Y-44670911D01*
X125047618Y-44613236D01*
X125253502Y-44527954D01*
X125253514Y-44527949D01*
X125446498Y-44416530D01*
X125512403Y-44365957D01*
X125512404Y-44365956D01*
X124711059Y-43564612D01*
X124731591Y-43559111D01*
X124868408Y-43480119D01*
X124980119Y-43368408D01*
X125059111Y-43231591D01*
X125064612Y-43211059D01*
X125865956Y-44012404D01*
X125865957Y-44012403D01*
X125916530Y-43946498D01*
X126027949Y-43753514D01*
X126027954Y-43753502D01*
X126113236Y-43547618D01*
X126170911Y-43332367D01*
X126170914Y-43332354D01*
X126200000Y-43111424D01*
X126200000Y-42888575D01*
X126170914Y-42667645D01*
X126170911Y-42667632D01*
X126113236Y-42452381D01*
X126027954Y-42246497D01*
X126027949Y-42246485D01*
X125916533Y-42053507D01*
X125865956Y-41987595D01*
X125865955Y-41987595D01*
X125064612Y-42788939D01*
X125059111Y-42768409D01*
X124980119Y-42631592D01*
X124868408Y-42519881D01*
X124731591Y-42440889D01*
X124711058Y-42435387D01*
X125512403Y-41634043D01*
X125512403Y-41634040D01*
X125446504Y-41583473D01*
X125446491Y-41583464D01*
X125253520Y-41472054D01*
X125253502Y-41472045D01*
X125047618Y-41386763D01*
X124832367Y-41329088D01*
X124832354Y-41329085D01*
X124611425Y-41300000D01*
X124388575Y-41300000D01*
X124167645Y-41329085D01*
X124167632Y-41329088D01*
X123952381Y-41386763D01*
X123746497Y-41472045D01*
X123746479Y-41472054D01*
X123553511Y-41583462D01*
X123487595Y-41634042D01*
X124288941Y-42435387D01*
X124268409Y-42440889D01*
X124131592Y-42519881D01*
X124019881Y-42631592D01*
X123940889Y-42768409D01*
X123935387Y-42788940D01*
X123134042Y-41987595D01*
X123083462Y-42053511D01*
X122972054Y-42246479D01*
X122972045Y-42246497D01*
X122886763Y-42452381D01*
X122829088Y-42667632D01*
X122829085Y-42667645D01*
X122800000Y-42888575D01*
X111000000Y-42888575D01*
X111000000Y-37624000D01*
X111019685Y-37556961D01*
X111072489Y-37511206D01*
X111124000Y-37500000D01*
X203376000Y-37500000D01*
X203443039Y-37519685D01*
G37*
%TD.AperFunction*%
%TD*%
M02*
