%TF.GenerationSoftware,KiCad,Pcbnew,10.0.6*%
%TF.CreationDate,2026-09-14T23:17:49+03:00*%
%TF.ProjectId,Power Amplifier Rod Elliot Project 3A,506f7765-7220-4416-9d70-6c6966696572,1*%
%TF.SameCoordinates,Original*%
%TF.FileFunction,Copper,L1,Top*%
%TF.FilePolarity,Positive*%
%FSLAX46Y46*%
G04 Gerber Fmt 4.6, Leading zero omitted, Abs format (unit mm)*
G04 Created by KiCad (PCBNEW 10.0.6) date 2026-09-14 23:17:49*
%MOMM*%
%LPD*%
G01*
G04 APERTURE LIST*
G04 Aperture macros list*
%AMRoundRect*
0 Rectangle with rounded corners*
0 $1 Rounding radius*
0 $2 $3 $4 $5 $6 $7 $8 $9 X,Y pos of 4 corners*
0 Add a 4 corners polygon primitive as box body*
4,1,4,$2,$3,$4,$5,$6,$7,$8,$9,$2,$3,0*
0 Add four circle primitives for the rounded corners*
1,1,$1+$1,$2,$3*
1,1,$1+$1,$4,$5*
1,1,$1+$1,$6,$7*
1,1,$1+$1,$8,$9*
0 Add four rect primitives between the rounded corners*
20,1,$1+$1,$2,$3,$4,$5,0*
20,1,$1+$1,$4,$5,$6,$7,0*
20,1,$1+$1,$6,$7,$8,$9,0*
20,1,$1+$1,$8,$9,$2,$3,0*%
G04 Aperture macros list end*
%TA.AperFunction,ComponentPad*%
%ADD10C,2.400000*%
%TD*%
%TA.AperFunction,ComponentPad*%
%ADD11RoundRect,0.250001X0.949999X-0.949999X0.949999X0.949999X-0.949999X0.949999X-0.949999X-0.949999X0*%
%TD*%
%TA.AperFunction,ComponentPad*%
%ADD12R,1.560000X1.560000*%
%TD*%
%TA.AperFunction,ComponentPad*%
%ADD13C,1.560000*%
%TD*%
%TA.AperFunction,ComponentPad*%
%ADD14RoundRect,0.250000X-1.750000X1.750000X-1.750000X-1.750000X1.750000X-1.750000X1.750000X1.750000X0*%
%TD*%
%TA.AperFunction,ComponentPad*%
%ADD15C,4.000000*%
%TD*%
%TA.AperFunction,ComponentPad*%
%ADD16RoundRect,0.249998X-3.250002X-3.250002X3.250002X-3.250002X3.250002X3.250002X-3.250002X3.250002X0*%
%TD*%
%TA.AperFunction,ComponentPad*%
%ADD17C,1.600000*%
%TD*%
%TA.AperFunction,ComponentPad*%
%ADD18R,1.800000X1.710000*%
%TD*%
%TA.AperFunction,ComponentPad*%
%ADD19O,1.800000X1.710000*%
%TD*%
%TA.AperFunction,ComponentPad*%
%ADD20R,1.800000X1.800000*%
%TD*%
%TA.AperFunction,ComponentPad*%
%ADD21C,1.800000*%
%TD*%
%TA.AperFunction,ComponentPad*%
%ADD22C,3.000000*%
%TD*%
%TA.AperFunction,ComponentPad*%
%ADD23R,1.050000X1.500000*%
%TD*%
%TA.AperFunction,ComponentPad*%
%ADD24O,1.050000X1.500000*%
%TD*%
%TA.AperFunction,ComponentPad*%
%ADD25R,4.500000X2.500000*%
%TD*%
%TA.AperFunction,ComponentPad*%
%ADD26O,4.500000X2.500000*%
%TD*%
%TA.AperFunction,ComponentPad*%
%ADD27RoundRect,0.250000X-0.600000X-0.600000X0.600000X-0.600000X0.600000X0.600000X-0.600000X0.600000X0*%
%TD*%
%TA.AperFunction,ComponentPad*%
%ADD28RoundRect,0.250001X-0.949999X-0.949999X0.949999X-0.949999X0.949999X0.949999X-0.949999X0.949999X0*%
%TD*%
%TA.AperFunction,ComponentPad*%
%ADD29RoundRect,0.250001X-0.949999X0.949999X-0.949999X-0.949999X0.949999X-0.949999X0.949999X0.949999X0*%
%TD*%
%TA.AperFunction,ComponentPad*%
%ADD30R,1.500000X1.050000*%
%TD*%
%TA.AperFunction,ComponentPad*%
%ADD31O,1.500000X1.050000*%
%TD*%
%TA.AperFunction,ComponentPad*%
%ADD32RoundRect,0.250000X-0.750000X-0.750000X0.750000X-0.750000X0.750000X0.750000X-0.750000X0.750000X0*%
%TD*%
%TA.AperFunction,ComponentPad*%
%ADD33C,2.000000*%
%TD*%
%TA.AperFunction,ComponentPad*%
%ADD34R,2.800000X2.800000*%
%TD*%
%TA.AperFunction,ComponentPad*%
%ADD35C,2.800000*%
%TD*%
%TA.AperFunction,ViaPad*%
%ADD36C,1.000000*%
%TD*%
%TA.AperFunction,Conductor*%
%ADD37C,1.000000*%
%TD*%
%TA.AperFunction,Conductor*%
%ADD38C,2.500000*%
%TD*%
%TA.AperFunction,Conductor*%
%ADD39C,0.400000*%
%TD*%
G04 APERTURE END LIST*
D10*
%TO.P,C3,2*%
%TO.N,Net-(C3-Pad2)*%
X137000000Y-70500000D03*
D11*
%TO.P,C3,1*%
%TO.N,GND*%
X137000000Y-75500000D03*
%TD*%
D12*
%TO.P,VR1,1,1_1*%
%TO.N,Net-(Q9-B)*%
X155000000Y-69000000D03*
D13*
%TO.P,VR1,2,2_2*%
X152500000Y-64000000D03*
%TO.P,VR1,3,3_3*%
%TO.N,Net-(Q6-B)*%
X150000000Y-69000000D03*
%TD*%
D14*
%TO.P,C16,1*%
%TO.N,+35V*%
X185500000Y-93394630D03*
D15*
%TO.P,C16,2*%
%TO.N,GND*%
X185500000Y-103394630D03*
%TD*%
D16*
%TO.P,J7,1,Pin_1_1*%
%TO.N,GND*%
X97000000Y-120000000D03*
%TD*%
D17*
%TO.P,R10,1*%
%TO.N,Net-(D1-K)*%
X163500000Y-75000000D03*
%TO.P,R10,2*%
%TO.N,Net-(C5-Pad2)*%
X163500000Y-64840000D03*
%TD*%
D18*
%TO.P,Q4,1,E_1*%
%TO.N,Net-(Q2-C)*%
X143875000Y-61780000D03*
D19*
%TO.P,Q4,2,C_2*%
%TO.N,Net-(Q4-C)*%
X143875000Y-59500000D03*
%TO.P,Q4,3,B_3*%
%TO.N,Net-(Q1-C)*%
X143875000Y-57220000D03*
%TD*%
D20*
%TO.P,D1,1,K_1*%
%TO.N,Net-(D1-K)*%
X110960000Y-82000000D03*
D21*
%TO.P,D1,2,A_2*%
%TO.N,Net-(D1-A)*%
X113500000Y-82000000D03*
%TD*%
D16*
%TO.P,J8,1,Pin_1_1*%
%TO.N,Net-(J8-Pin_1)*%
X97000000Y-133500000D03*
%TD*%
%TO.P,J5,1,Pin_1_1*%
%TO.N,Net-(J5-Pin_1)*%
X209500000Y-68750000D03*
%TD*%
%TO.P,J6,1,Pin_1_1*%
%TO.N,Net-(J6-Pin_1)*%
X97000000Y-95500000D03*
%TD*%
D17*
%TO.P,C4,1*%
%TO.N,Net-(Q1-C)*%
X158500000Y-59750000D03*
%TO.P,C4,2*%
%TO.N,Net-(Q4-C)*%
X158500000Y-57250000D03*
%TD*%
D11*
%TO.P,C10,1*%
%TO.N,Net-(Q2-C)*%
X124500000Y-48000000D03*
D10*
%TO.P,C10,2*%
%TO.N,GND*%
X124500000Y-43000000D03*
%TD*%
D22*
%TO.P,F1,1*%
%TO.N,Net-(Q2-C)*%
X225300000Y-106500000D03*
%TO.P,F1,2*%
%TO.N,+35V*%
X202700000Y-106500000D03*
%TD*%
%TO.P,F2,1*%
%TO.N,Net-(D1-K)*%
X225800000Y-131500000D03*
%TO.P,F2,2*%
%TO.N,-35V*%
X203200000Y-131500000D03*
%TD*%
D23*
%TO.P,Q9,1,C_1*%
%TO.N,Net-(Q4-C)*%
X151500000Y-57000000D03*
D24*
%TO.P,Q9,2,B_2*%
%TO.N,Net-(Q9-B)*%
X152770000Y-57000000D03*
%TO.P,Q9,3,E_3*%
%TO.N,Net-(Q6-B)*%
X154040000Y-57000000D03*
%TD*%
D25*
%TO.P,Q8,1,B_1*%
%TO.N,Net-(Q6-C)*%
X225750000Y-76000000D03*
D26*
%TO.P,Q8,2,C_2*%
%TO.N,Net-(Q6-E)*%
X225750000Y-81450000D03*
%TO.P,Q8,3,E_3*%
%TO.N,Net-(D1-K)*%
X225750000Y-86900000D03*
%TD*%
D27*
%TO.P,J10,1,Pin_1_1*%
%TO.N,+35V*%
X214000000Y-116000000D03*
%TD*%
D28*
%TO.P,C5,1*%
%TO.N,Net-(J5-Pin_1)*%
X138184785Y-87500000D03*
D10*
%TO.P,C5,2*%
%TO.N,Net-(C5-Pad2)*%
X143184785Y-87500000D03*
%TD*%
D17*
%TO.P,C7,1*%
%TO.N,Net-(Q2-C)*%
X114500000Y-47500000D03*
%TO.P,C7,2*%
%TO.N,GND*%
X114500000Y-45000000D03*
%TD*%
D10*
%TO.P,R15,1*%
%TO.N,Net-(C8-Pad1)*%
X176340000Y-68500000D03*
%TO.P,R15,2*%
%TO.N,Net-(J5-Pin_1)*%
X196660000Y-68500000D03*
%TD*%
D16*
%TO.P,J7,1,Pin_1_1*%
%TO.N,GND*%
X97000000Y-109000000D03*
%TD*%
D25*
%TO.P,Q7,1,B_1*%
%TO.N,Net-(Q5-C)*%
X225750000Y-54750000D03*
D26*
%TO.P,Q7,2,C_2*%
%TO.N,Net-(Q5-E)*%
X225750000Y-60200000D03*
%TO.P,Q7,3,E_3*%
%TO.N,Net-(Q2-C)*%
X225750000Y-65650000D03*
%TD*%
D27*
%TO.P,J4,1,Pin_1_1*%
%TO.N,-35V*%
X214000000Y-124500000D03*
%TD*%
D14*
%TO.P,C14,1*%
%TO.N,+35V*%
X158000000Y-94000000D03*
D15*
%TO.P,C14,2*%
%TO.N,GND*%
X158000000Y-104000000D03*
%TD*%
D29*
%TO.P,C11,1*%
%TO.N,GND*%
X197500000Y-138500000D03*
D10*
%TO.P,C11,2*%
%TO.N,Net-(D1-K)*%
X197500000Y-143500000D03*
%TD*%
D17*
%TO.P,R6,1*%
%TO.N,Net-(Q1-C)*%
X133000000Y-55170000D03*
%TO.P,R6,2*%
%TO.N,Net-(Q2-C)*%
X133000000Y-65330000D03*
%TD*%
%TO.P,C2,1*%
%TO.N,Net-(C2-Pad1)*%
X108500000Y-70000000D03*
%TO.P,C2,2*%
%TO.N,SIGNAL_GND*%
X108500000Y-72500000D03*
%TD*%
D18*
%TO.P,Q5,1,E_1*%
%TO.N,Net-(Q5-E)*%
X226750000Y-47280000D03*
D19*
%TO.P,Q5,2,C_2*%
%TO.N,Net-(Q5-C)*%
X226750000Y-45000000D03*
%TO.P,Q5,3,B_3*%
%TO.N,Net-(Q4-C)*%
X226750000Y-42720000D03*
%TD*%
D14*
%TO.P,C15,1*%
%TO.N,GND*%
X157500000Y-119894630D03*
D15*
%TO.P,C15,2*%
%TO.N,-35V*%
X157500000Y-129894630D03*
%TD*%
D16*
%TO.P,Jw1,1,Pin_1_1*%
%TO.N,GND*%
X127500000Y-96000000D03*
%TD*%
D17*
%TO.P,C18,1*%
%TO.N,GND*%
X187500000Y-140250000D03*
%TO.P,C18,2*%
%TO.N,Net-(D1-K)*%
X187500000Y-142750000D03*
%TD*%
D23*
%TO.P,Q2,1,C_1*%
%TO.N,Net-(Q2-C)*%
X129270000Y-63140000D03*
D24*
%TO.P,Q2,2,B_2*%
%TO.N,Net-(Q2-B)*%
X128000000Y-63140000D03*
%TO.P,Q2,3,E_3*%
%TO.N,Net-(Q1-E)*%
X126730000Y-63140000D03*
%TD*%
D17*
%TO.P,R3,1*%
%TO.N,Net-(C2-Pad1)*%
X120500000Y-58000000D03*
%TO.P,R3,2*%
%TO.N,Net-(Q1-B)*%
X120500000Y-68160000D03*
%TD*%
%TO.P,R7,1*%
%TO.N,Net-(D1-K)*%
X106500000Y-78690000D03*
%TO.P,R7,2*%
%TO.N,Net-(Q3-E)*%
X106500000Y-88850000D03*
%TD*%
D10*
%TO.P,R14,1*%
%TO.N,Net-(Q6-E)*%
X205230000Y-80000000D03*
%TO.P,R14,2*%
%TO.N,Net-(J5-Pin_1)*%
X174750000Y-80000000D03*
%TD*%
D17*
%TO.P,R8,1*%
%TO.N,SIGNAL_GND*%
X113420000Y-74750000D03*
%TO.P,R8,2*%
%TO.N,Net-(D1-A)*%
X123580000Y-74750000D03*
%TD*%
D30*
%TO.P,Q3,1,C_1*%
%TO.N,Net-(Q1-E)*%
X118140000Y-80730000D03*
D31*
%TO.P,Q3,2,B_2*%
%TO.N,Net-(D1-A)*%
X118140000Y-82000000D03*
%TO.P,Q3,3,E_3*%
%TO.N,Net-(Q3-E)*%
X118140000Y-83270000D03*
%TD*%
D17*
%TO.P,R4,1*%
%TO.N,Net-(C3-Pad2)*%
X128000000Y-79830000D03*
%TO.P,R4,2*%
%TO.N,Net-(Q2-B)*%
X128000000Y-69670000D03*
%TD*%
%TO.P,C12,1*%
%TO.N,Net-(J6-Pin_1)*%
X109000000Y-97382323D03*
%TO.P,C12,2*%
%TO.N,Net-(J8-Pin_1)*%
X109000000Y-99882323D03*
%TD*%
%TO.P,R12,2*%
%TO.N,Net-(Q2-C)*%
X167000000Y-64830000D03*
%TO.P,R12,1*%
%TO.N,Net-(Q5-C)*%
X167000000Y-54670000D03*
%TD*%
%TO.P,C6,1*%
%TO.N,Net-(Q6-B)*%
X159250000Y-77750000D03*
%TO.P,C6,2*%
%TO.N,Net-(Q6-C)*%
X161750000Y-77750000D03*
%TD*%
D16*
%TO.P,J1,1,Pin_1_1*%
%TO.N,Net-(J1-Pin_1)*%
X97000000Y-59000000D03*
%TD*%
D17*
%TO.P,C13,1*%
%TO.N,Net-(J6-Pin_1)*%
X109000000Y-129382323D03*
%TO.P,C13,2*%
%TO.N,Net-(J8-Pin_1)*%
X109000000Y-131882323D03*
%TD*%
D32*
%TO.P,C1,1*%
%TO.N,Net-(J1-Pin_1)*%
X107500000Y-60500000D03*
D33*
%TO.P,C1,2*%
%TO.N,Net-(C1-Pad2)*%
X111000000Y-60500000D03*
%TD*%
D17*
%TO.P,C8,1*%
%TO.N,Net-(C8-Pad1)*%
X176250000Y-73250000D03*
%TO.P,C8,2*%
%TO.N,GND*%
X178750000Y-73250000D03*
%TD*%
D16*
%TO.P,J2,1,Pin_1_1*%
%TO.N,SIGNAL_GND*%
X97000000Y-71000000D03*
%TD*%
D17*
%TO.P,R5,1*%
%TO.N,Net-(Q2-B)*%
X147000000Y-70170000D03*
%TO.P,R5,2*%
%TO.N,Net-(J5-Pin_1)*%
X147000000Y-80330000D03*
%TD*%
D23*
%TO.P,Q1,1,C_1*%
%TO.N,Net-(Q1-C)*%
X126730000Y-58860000D03*
D24*
%TO.P,Q1,2,B_2*%
%TO.N,Net-(Q1-B)*%
X128000000Y-58860000D03*
%TO.P,Q1,3,E_3*%
%TO.N,Net-(Q1-E)*%
X129270000Y-58860000D03*
%TD*%
D17*
%TO.P,R11,1*%
%TO.N,Net-(D1-K)*%
X167000000Y-67190000D03*
%TO.P,R11,2*%
%TO.N,Net-(Q6-C)*%
X167000000Y-77350000D03*
%TD*%
D27*
%TO.P,J3,1,Pin_1_1*%
%TO.N,+35V*%
X218500000Y-116000000D03*
%TD*%
D10*
%TO.P,R13,1*%
%TO.N,Net-(J5-Pin_1)*%
X184340000Y-59500000D03*
%TO.P,R13,2*%
%TO.N,Net-(Q5-E)*%
X214820000Y-59500000D03*
%TD*%
D27*
%TO.P,J9,1,Pin_1_1*%
%TO.N,GND*%
X214000000Y-120000000D03*
%TD*%
D17*
%TO.P,R16,1*%
%TO.N,Net-(Q9-B)*%
X138000000Y-63810000D03*
%TO.P,R16,2*%
%TO.N,Net-(Q4-C)*%
X138000000Y-53650000D03*
%TD*%
%TO.P,R9,1*%
%TO.N,Net-(C5-Pad2)*%
X158000000Y-64340000D03*
%TO.P,R9,2*%
%TO.N,Net-(Q6-B)*%
X158000000Y-74500000D03*
%TD*%
D27*
%TO.P,J11,1,Pin_1_1*%
%TO.N,-35V*%
X218000000Y-124500000D03*
%TD*%
D17*
%TO.P,R1,1*%
%TO.N,Net-(C1-Pad2)*%
X117000000Y-58190000D03*
%TO.P,R1,2*%
%TO.N,Net-(C2-Pad1)*%
X117000000Y-68350000D03*
%TD*%
D34*
%TO.P,BR1,1,+_1*%
%TO.N,+35V*%
X120500000Y-118400000D03*
D35*
%TO.P,BR1,2*%
%TO.N,Net-(J8-Pin_1)*%
X120500000Y-130000000D03*
%TO.P,BR1,3,-_3*%
%TO.N,-35V*%
X138500000Y-130000000D03*
%TO.P,BR1,4*%
%TO.N,Net-(J6-Pin_1)*%
X138500000Y-112000000D03*
%TD*%
D14*
%TO.P,C17,1*%
%TO.N,GND*%
X185000000Y-119894630D03*
D15*
%TO.P,C17,2*%
%TO.N,-35V*%
X185000000Y-129894630D03*
%TD*%
D18*
%TO.P,Q6,1,E_1*%
%TO.N,Net-(Q6-E)*%
X226750000Y-99000000D03*
D19*
%TO.P,Q6,2,C_2*%
%TO.N,Net-(Q6-C)*%
X226750000Y-96720000D03*
%TO.P,Q6,3,B_3*%
%TO.N,Net-(Q6-B)*%
X226750000Y-94440000D03*
%TD*%
D17*
%TO.P,R2,1*%
%TO.N,SIGNAL_GND*%
X113420000Y-71500000D03*
%TO.P,R2,2*%
%TO.N,Net-(C2-Pad1)*%
X123580000Y-71500000D03*
%TD*%
D36*
%TO.N,Net-(Q6-B)*%
X159250000Y-81750000D03*
%TO.N,Net-(J5-Pin_1)*%
X155500000Y-80000000D03*
%TO.N,Net-(Q6-B)*%
X219250000Y-94250000D03*
%TO.N,Net-(Q6-E)*%
X215000000Y-85000000D03*
%TD*%
%TO.N,SIGNAL_GND*%
D37*
X113420000Y-71500000D02*
X113420000Y-74750000D01*
X112420000Y-72500000D02*
X113420000Y-71500000D01*
X108500000Y-72500000D02*
X112420000Y-72500000D01*
%TO.N,Net-(Q5-C)*%
X220790000Y-54670000D02*
X220870000Y-54750000D01*
X167000000Y-54670000D02*
X220790000Y-54670000D01*
%TO.N,Net-(C5-Pad2)*%
X158500000Y-64840000D02*
X158000000Y-64340000D01*
X163500000Y-64840000D02*
X158500000Y-64840000D01*
%TO.N,Net-(Q2-C)*%
X167000000Y-62560000D02*
X167750000Y-61810000D01*
X167000000Y-64830000D02*
X167000000Y-62560000D01*
X168310000Y-61810000D02*
X167750000Y-61810000D01*
%TO.N,Net-(Q1-C)*%
X126730000Y-56770000D02*
X126730000Y-58860000D01*
X128330000Y-55170000D02*
X126730000Y-56770000D01*
X133000000Y-55170000D02*
X128330000Y-55170000D01*
X135500000Y-58500000D02*
X135500000Y-57670000D01*
X135500000Y-57670000D02*
X133000000Y-55170000D01*
%TO.N,Net-(Q2-C)*%
X129790000Y-63140000D02*
X129270000Y-63140000D01*
X131980000Y-65330000D02*
X129790000Y-63140000D01*
X133000000Y-65330000D02*
X131980000Y-65330000D01*
X134020000Y-66350000D02*
X133000000Y-65330000D01*
X143875000Y-65125000D02*
X142650000Y-66350000D01*
X142650000Y-66350000D02*
X134020000Y-66350000D01*
X143875000Y-61780000D02*
X143875000Y-65125000D01*
%TO.N,Net-(D1-K)*%
X129750000Y-85500000D02*
X122000000Y-85500000D01*
X136750000Y-92500000D02*
X129750000Y-85500000D01*
X148500000Y-92500000D02*
X136750000Y-92500000D01*
X166000000Y-87750000D02*
X153250000Y-87750000D01*
X153250000Y-87750000D02*
X148500000Y-92500000D01*
X166000000Y-87750000D02*
X166000000Y-81000000D01*
%TO.N,Net-(C3-Pad2)*%
X128000000Y-79830000D02*
X137000000Y-70830000D01*
X137000000Y-70830000D02*
X137000000Y-70500000D01*
%TO.N,Net-(Q2-B)*%
X142420000Y-70170000D02*
X147000000Y-70170000D01*
X140500000Y-68250000D02*
X142420000Y-70170000D01*
X133500000Y-68250000D02*
X140500000Y-68250000D01*
X132080000Y-69670000D02*
X133500000Y-68250000D01*
X128000000Y-69670000D02*
X132080000Y-69670000D01*
X128000000Y-69670000D02*
X128000000Y-63140000D01*
%TO.N,Net-(Q6-B)*%
X155500000Y-74500000D02*
X150000000Y-69000000D01*
X158000000Y-74500000D02*
X155500000Y-74500000D01*
X159250000Y-75750000D02*
X158000000Y-74500000D01*
X159250000Y-77500000D02*
X159250000Y-75750000D01*
X159250000Y-81750000D02*
X159250000Y-77500000D01*
%TO.N,Net-(J5-Pin_1)*%
X145354785Y-80330000D02*
X138184785Y-87500000D01*
X147000000Y-80330000D02*
X145354785Y-80330000D01*
X155500000Y-80000000D02*
X147330000Y-80000000D01*
X147330000Y-80000000D02*
X147000000Y-80330000D01*
D38*
X182500000Y-80000000D02*
X194000000Y-68500000D01*
X174750000Y-80000000D02*
X182500000Y-80000000D01*
%TO.N,Net-(Q1-B)*%
D37*
X128000000Y-60000000D02*
X128000000Y-58860000D01*
X127690000Y-60310000D02*
X128000000Y-60000000D01*
X120500000Y-65620000D02*
X125810000Y-60310000D01*
X125810000Y-60310000D02*
X127690000Y-60310000D01*
X120500000Y-68160000D02*
X120500000Y-65620000D01*
%TO.N,Net-(Q1-E)*%
X126750000Y-67750000D02*
X126750000Y-66000000D01*
X125000000Y-67750000D02*
X126750000Y-67750000D01*
X118140000Y-74610000D02*
X125000000Y-67750000D01*
X118140000Y-80730000D02*
X118140000Y-74610000D01*
X126750000Y-66000000D02*
X126730000Y-65980000D01*
X126730000Y-65980000D02*
X126730000Y-63140000D01*
X127110000Y-61690000D02*
X129000000Y-61690000D01*
X129000000Y-61690000D02*
X129270000Y-61420000D01*
X126775000Y-62025000D02*
X127110000Y-61690000D01*
X126730000Y-63140000D02*
X126775000Y-63095000D01*
X126775000Y-63095000D02*
X126775000Y-62025000D01*
X129270000Y-61420000D02*
X129270000Y-58860000D01*
%TO.N,Net-(Q9-B)*%
X152310000Y-63810000D02*
X152500000Y-64000000D01*
X152500000Y-66500000D02*
X155000000Y-69000000D01*
X152500000Y-64000000D02*
X152500000Y-66500000D01*
%TO.N,Net-(Q6-B)*%
X219250000Y-94250000D02*
X226560000Y-94250000D01*
X226560000Y-94250000D02*
X226750000Y-94440000D01*
%TO.N,+35V*%
D38*
X158500000Y-94000000D02*
X159105370Y-93394630D01*
D37*
X214000000Y-116000000D02*
X218500000Y-116000000D01*
X202700000Y-106500000D02*
X203000000Y-106500000D01*
D38*
X189594630Y-93394630D02*
X202700000Y-106500000D01*
D37*
X203000000Y-106500000D02*
X212500000Y-116000000D01*
D38*
X143500000Y-111500000D02*
X143500000Y-107000000D01*
D37*
X212500000Y-116000000D02*
X214000000Y-116000000D01*
D38*
X143500000Y-107000000D02*
X156500000Y-94000000D01*
X120500000Y-118400000D02*
X140400000Y-118400000D01*
X185500000Y-93394630D02*
X189594630Y-93394630D01*
X159105370Y-93394630D02*
X185500000Y-93394630D01*
X158000000Y-94000000D02*
X158500000Y-94000000D01*
X156500000Y-94000000D02*
X158000000Y-94000000D01*
X143500000Y-115300000D02*
X143500000Y-111500000D01*
X140400000Y-118400000D02*
X143500000Y-115300000D01*
%TO.N,Net-(D1-K)*%
D37*
X225800000Y-131500000D02*
X226000000Y-131500000D01*
X214500000Y-112500000D02*
X206000000Y-104000000D01*
X226000000Y-116500000D02*
X222000000Y-112500000D01*
X206000000Y-104000000D02*
X206000000Y-88000000D01*
X110960000Y-84460000D02*
X112000000Y-85500000D01*
X112000000Y-85500000D02*
X122000000Y-85500000D01*
X206000000Y-88000000D02*
X166000000Y-88000000D01*
X163500000Y-80500000D02*
X164000000Y-81000000D01*
X163500000Y-75000000D02*
X163500000Y-80500000D01*
X166000000Y-81000000D02*
X164000000Y-81000000D01*
X110960000Y-82000000D02*
X110960000Y-84460000D01*
X226000000Y-131500000D02*
X226000000Y-116500000D01*
X166000000Y-88000000D02*
X166000000Y-87750000D01*
X222000000Y-112500000D02*
X214500000Y-112500000D01*
X167000000Y-67190000D02*
X167000000Y-71500000D01*
X167000000Y-71500000D02*
X163500000Y-75000000D01*
%TO.N,Net-(Q2-C)*%
X144780000Y-61780000D02*
X144810000Y-61810000D01*
X144810000Y-61810000D02*
X164000000Y-61810000D01*
X171000000Y-86500000D02*
X171000000Y-64500000D01*
D38*
X225300000Y-106500000D02*
X223000000Y-106500000D01*
D37*
X143875000Y-61780000D02*
X144780000Y-61780000D01*
X213000000Y-106500000D02*
X208500000Y-102000000D01*
D38*
X211500000Y-95000000D02*
X211500000Y-79900000D01*
D37*
X171000000Y-64500000D02*
X168310000Y-61810000D01*
D38*
X223000000Y-106500000D02*
X211500000Y-95000000D01*
D37*
X225300000Y-106500000D02*
X213000000Y-106500000D01*
X208000000Y-86500000D02*
X171000000Y-86500000D01*
X208500000Y-87000000D02*
X208000000Y-86500000D01*
X167750000Y-61810000D02*
X164000000Y-61810000D01*
D38*
X211500000Y-79900000D02*
X225750000Y-65650000D01*
D37*
X208500000Y-102000000D02*
X208500000Y-87000000D01*
%TO.N,Net-(Q4-C)*%
X161500000Y-50000000D02*
X216500000Y-50000000D01*
X152500000Y-53000000D02*
X151500000Y-54000000D01*
X158500000Y-57250000D02*
X158500000Y-53000000D01*
X158500000Y-53000000D02*
X161500000Y-50000000D01*
X216500000Y-50000000D02*
X223780000Y-42720000D01*
X158500000Y-53000000D02*
X152500000Y-53000000D01*
X151500000Y-54000000D02*
X151500000Y-57000000D01*
X223780000Y-42720000D02*
X226750000Y-42720000D01*
%TO.N,Net-(Q1-C)*%
X141595000Y-58500000D02*
X142000000Y-58095000D01*
X143595000Y-57500000D02*
X143875000Y-57220000D01*
X135500000Y-58500000D02*
X141595000Y-58500000D01*
X149250000Y-59750000D02*
X158500000Y-59750000D01*
X142000000Y-58095000D02*
X142000000Y-57500000D01*
X143875000Y-57220000D02*
X146720000Y-57220000D01*
X146720000Y-57220000D02*
X149250000Y-59750000D01*
X142000000Y-57500000D02*
X143595000Y-57500000D01*
%TO.N,Net-(J8-Pin_1)*%
D38*
X117000000Y-133500000D02*
X120500000Y-130000000D01*
X109000000Y-131882323D02*
X110617677Y-133500000D01*
X97000000Y-133500000D02*
X107382323Y-133500000D01*
D37*
X109000000Y-99882323D02*
X109000000Y-118500000D01*
D38*
X107382323Y-133500000D02*
X109000000Y-131882323D01*
D37*
X109000000Y-118500000D02*
X120500000Y-130000000D01*
D38*
X110617677Y-133500000D02*
X117000000Y-133500000D01*
%TO.N,Net-(J5-Pin_1)*%
X194000000Y-68500000D02*
X196660000Y-68500000D01*
X196660000Y-68500000D02*
X205000000Y-68500000D01*
X205000000Y-68500000D02*
X206750000Y-66750000D01*
X194000000Y-68500000D02*
X193340000Y-68500000D01*
X193340000Y-68500000D02*
X184340000Y-59500000D01*
%TO.N,Net-(J6-Pin_1)*%
X97000000Y-95500000D02*
X106000000Y-95500000D01*
X118500000Y-108000000D02*
X122500000Y-112000000D01*
D37*
X109000000Y-129382323D02*
X109117677Y-129264646D01*
D38*
X122500000Y-112000000D02*
X138500000Y-112000000D01*
X118500000Y-97853554D02*
X118500000Y-108000000D01*
X107117677Y-95500000D02*
X109000000Y-97382323D01*
X118028769Y-97382323D02*
X118500000Y-97853554D01*
D37*
X109117677Y-129264646D02*
X109117677Y-129117677D01*
D38*
X109000000Y-97382323D02*
X118028769Y-97382323D01*
D37*
X109117677Y-129117677D02*
X106000000Y-126000000D01*
D38*
X106000000Y-95500000D02*
X107117677Y-95500000D01*
D37*
X106000000Y-126000000D02*
X106000000Y-95500000D01*
%TO.N,-35V*%
D38*
X138500000Y-130000000D02*
X201700000Y-130000000D01*
X201700000Y-130000000D02*
X203200000Y-131500000D01*
D37*
X214000000Y-124500000D02*
X218000000Y-124500000D01*
X210200000Y-124500000D02*
X203200000Y-131500000D01*
X214000000Y-124500000D02*
X210200000Y-124500000D01*
%TO.N,Net-(Q6-C)*%
X226750000Y-96720000D02*
X219470000Y-96720000D01*
X217750000Y-84000000D02*
X225750000Y-76000000D01*
X219470000Y-96720000D02*
X217750000Y-95000000D01*
X217750000Y-95000000D02*
X217750000Y-84000000D01*
%TO.N,Net-(Q6-E)*%
X226750000Y-99000000D02*
X219250000Y-99000000D01*
X214500000Y-85500000D02*
X215000000Y-85000000D01*
X219250000Y-99000000D02*
X214500000Y-94250000D01*
X214500000Y-94250000D02*
X214500000Y-85500000D01*
%TO.N,Net-(C8-Pad1)*%
X176340000Y-73160000D02*
X176250000Y-73250000D01*
X176250000Y-68590000D02*
X176340000Y-68500000D01*
X176340000Y-68500000D02*
X176340000Y-73160000D01*
%TO.N,Net-(Q5-C)*%
X220310000Y-49190000D02*
X224500000Y-45000000D01*
X220310000Y-54190000D02*
X220310000Y-49190000D01*
X220310000Y-54190000D02*
X220870000Y-54750000D01*
X220870000Y-54750000D02*
X225750000Y-54750000D01*
X224500000Y-45000000D02*
X226750000Y-45000000D01*
%TO.N,Net-(Q5-E)*%
D38*
X225750000Y-60200000D02*
X215520000Y-60200000D01*
X215520000Y-60200000D02*
X214820000Y-59500000D01*
%TO.N,SIGNAL_GND*%
D37*
X97000000Y-71000000D02*
X100500000Y-71000000D01*
X102000000Y-72500000D02*
X108500000Y-72500000D01*
X100500000Y-71000000D02*
X102000000Y-72500000D01*
%TO.N,Net-(Q1-E)*%
D39*
X127000000Y-62870000D02*
X126730000Y-63140000D01*
%TO.N,Net-(J1-Pin_1)*%
D38*
X97000000Y-59000000D02*
X106000000Y-59000000D01*
X106000000Y-59000000D02*
X107500000Y-60500000D01*
%TO.N,Net-(C1-Pad2)*%
D37*
X113310000Y-58190000D02*
X111000000Y-60500000D01*
X117000000Y-58190000D02*
X113310000Y-58190000D01*
%TD*%
M02*
