%TF.GenerationSoftware,KiCad,Pcbnew,10.0.6*%
%TF.CreationDate,2026-09-14T23:17:49+03:00*%
%TF.ProjectId,Power Amplifier Rod Elliot Project 3A,506f7765-7220-4416-9d70-6c6966696572,1*%
%TF.SameCoordinates,Original*%
%TF.FileFunction,Soldermask,Bot*%
%TF.FilePolarity,Negative*%
%FSLAX46Y46*%
G04 Gerber Fmt 4.6, Leading zero omitted, Abs format (unit mm)*
G04 Created by KiCad (PCBNEW 10.0.6) date 2026-09-14 23:17:49*
%MOMM*%
%LPD*%
G01*
G04 APERTURE LIST*
G04 Aperture macros list*
%AMRoundRect*
0 Rectangle with rounded corners*
0 $1 Rounding radius*
0 $2 $3 $4 $5 $6 $7 $8 $9 X,Y pos of 4 corners*
0 Add a 4 corners polygon primitive as box body*
4,1,4,$2,$3,$4,$5,$6,$7,$8,$9,$2,$3,0*
0 Add four circle primitives for the rounded corners*
1,1,$1+$1,$2,$3*
1,1,$1+$1,$4,$5*
1,1,$1+$1,$6,$7*
1,1,$1+$1,$8,$9*
0 Add four rect primitives between the rounded corners*
20,1,$1+$1,$2,$3,$4,$5,0*
20,1,$1+$1,$4,$5,$6,$7,0*
20,1,$1+$1,$6,$7,$8,$9,0*
20,1,$1+$1,$8,$9,$2,$3,0*%
G04 Aperture macros list end*
%ADD10C,2.400000*%
%ADD11RoundRect,0.250001X0.949999X-0.949999X0.949999X0.949999X-0.949999X0.949999X-0.949999X-0.949999X0*%
%ADD12R,1.560000X1.560000*%
%ADD13C,1.560000*%
%ADD14C,5.000000*%
%ADD15RoundRect,0.250000X-1.750000X1.750000X-1.750000X-1.750000X1.750000X-1.750000X1.750000X1.750000X0*%
%ADD16C,4.000000*%
%ADD17RoundRect,0.249998X-3.250002X-3.250002X3.250002X-3.250002X3.250002X3.250002X-3.250002X3.250002X0*%
%ADD18C,1.600000*%
%ADD19R,1.800000X1.710000*%
%ADD20O,1.800000X1.710000*%
%ADD21R,1.800000X1.800000*%
%ADD22C,1.800000*%
%ADD23C,3.000000*%
%ADD24R,1.050000X1.500000*%
%ADD25O,1.050000X1.500000*%
%ADD26R,4.500000X2.500000*%
%ADD27O,4.500000X2.500000*%
%ADD28RoundRect,0.250000X-0.600000X-0.600000X0.600000X-0.600000X0.600000X0.600000X-0.600000X0.600000X0*%
%ADD29RoundRect,0.250001X-0.949999X-0.949999X0.949999X-0.949999X0.949999X0.949999X-0.949999X0.949999X0*%
%ADD30RoundRect,0.250001X-0.949999X0.949999X-0.949999X-0.949999X0.949999X-0.949999X0.949999X0.949999X0*%
%ADD31R,1.500000X1.050000*%
%ADD32O,1.500000X1.050000*%
%ADD33RoundRect,0.250000X-0.750000X-0.750000X0.750000X-0.750000X0.750000X0.750000X-0.750000X0.750000X0*%
%ADD34C,2.000000*%
%ADD35R,2.800000X2.800000*%
%ADD36C,2.800000*%
G04 APERTURE END LIST*
D10*
%TO.C,C3*%
X137000000Y-70500000D03*
D11*
X137000000Y-75500000D03*
%TD*%
D12*
%TO.C,VR1*%
X155000000Y-69000000D03*
D13*
X152500000Y-64000000D03*
X150000000Y-69000000D03*
%TD*%
D14*
%TO.C,REF\u002A\u002A*%
X214000000Y-42000000D03*
%TD*%
D15*
%TO.C,C16*%
X185500000Y-93394630D03*
D16*
X185500000Y-103394630D03*
%TD*%
D17*
%TO.C,J7*%
X97000000Y-120000000D03*
%TD*%
D18*
%TO.C,R10*%
X163500000Y-75000000D03*
X163500000Y-64840000D03*
%TD*%
D14*
%TO.C,REF\u002A\u002A*%
X222000000Y-153000000D03*
%TD*%
D19*
%TO.C,Q4*%
X143875000Y-61780000D03*
D20*
X143875000Y-59500000D03*
X143875000Y-57220000D03*
%TD*%
D21*
%TO.C,D1*%
X110960000Y-82000000D03*
D22*
X113500000Y-82000000D03*
%TD*%
D17*
%TO.C,J8*%
X97000000Y-133500000D03*
%TD*%
%TO.C,J5*%
X209500000Y-68750000D03*
%TD*%
%TO.C,J6*%
X97000000Y-95500000D03*
%TD*%
D18*
%TO.C,C4*%
X158500000Y-59750000D03*
X158500000Y-57250000D03*
%TD*%
D11*
%TO.C,C10*%
X124500000Y-48000000D03*
D10*
X124500000Y-43000000D03*
%TD*%
D23*
%TO.C,F1*%
X225300000Y-106500000D03*
X202700000Y-106500000D03*
%TD*%
%TO.C,F2*%
X225800000Y-131500000D03*
X203200000Y-131500000D03*
%TD*%
D24*
%TO.C,Q9*%
X151500000Y-57000000D03*
D25*
X152770000Y-57000000D03*
X154040000Y-57000000D03*
%TD*%
D26*
%TO.C,Q8*%
X225750000Y-76000000D03*
D27*
X225750000Y-81450000D03*
X225750000Y-86900000D03*
%TD*%
D28*
%TO.C,J10*%
X214000000Y-116000000D03*
%TD*%
D29*
%TO.C,C5*%
X138184785Y-87500000D03*
D10*
X143184785Y-87500000D03*
%TD*%
D18*
%TO.C,C7*%
X114500000Y-47500000D03*
X114500000Y-45000000D03*
%TD*%
D10*
%TO.C,R15*%
X176340000Y-68500000D03*
X196660000Y-68500000D03*
%TD*%
D17*
%TO.C,J7*%
X97000000Y-109000000D03*
%TD*%
D26*
%TO.C,Q7*%
X225750000Y-54750000D03*
D27*
X225750000Y-60200000D03*
X225750000Y-65650000D03*
%TD*%
D28*
%TO.C,J4*%
X214000000Y-124500000D03*
%TD*%
D15*
%TO.C,C14*%
X158000000Y-94000000D03*
D16*
X158000000Y-104000000D03*
%TD*%
D30*
%TO.C,C11*%
X197500000Y-138500000D03*
D10*
X197500000Y-143500000D03*
%TD*%
D18*
%TO.C,R6*%
X133000000Y-55170000D03*
X133000000Y-65330000D03*
%TD*%
%TO.C,C2*%
X108500000Y-70000000D03*
X108500000Y-72500000D03*
%TD*%
D19*
%TO.C,Q5*%
X226750000Y-47280000D03*
D20*
X226750000Y-45000000D03*
X226750000Y-42720000D03*
%TD*%
D15*
%TO.C,C15*%
X157500000Y-119894630D03*
D16*
X157500000Y-129894630D03*
%TD*%
D17*
%TO.C,Jw1*%
X127500000Y-96000000D03*
%TD*%
D18*
%TO.C,C18*%
X187500000Y-140250000D03*
X187500000Y-142750000D03*
%TD*%
D24*
%TO.C,Q2*%
X129270000Y-63140000D03*
D25*
X128000000Y-63140000D03*
X126730000Y-63140000D03*
%TD*%
D14*
%TO.C,REF\u002A\u002A*%
X99000000Y-42000000D03*
%TD*%
D18*
%TO.C,R3*%
X120500000Y-58000000D03*
X120500000Y-68160000D03*
%TD*%
%TO.C,R7*%
X106500000Y-78690000D03*
X106500000Y-88850000D03*
%TD*%
D10*
%TO.C,R14*%
X205230000Y-80000000D03*
X174750000Y-80000000D03*
%TD*%
D18*
%TO.C,R8*%
X113420000Y-74750000D03*
X123580000Y-74750000D03*
%TD*%
D31*
%TO.C,Q3*%
X118140000Y-80730000D03*
D32*
X118140000Y-82000000D03*
X118140000Y-83270000D03*
%TD*%
D18*
%TO.C,R4*%
X128000000Y-79830000D03*
X128000000Y-69670000D03*
%TD*%
%TO.C,C12*%
X109000000Y-97382323D03*
X109000000Y-99882323D03*
%TD*%
%TO.C,R12*%
X167000000Y-64830000D03*
X167000000Y-54670000D03*
%TD*%
%TO.C,C6*%
X159250000Y-77750000D03*
X161750000Y-77750000D03*
%TD*%
D17*
%TO.C,J1*%
X97000000Y-59000000D03*
%TD*%
D18*
%TO.C,C13*%
X109000000Y-129382323D03*
X109000000Y-131882323D03*
%TD*%
D33*
%TO.C,C1*%
X107500000Y-60500000D03*
D34*
X111000000Y-60500000D03*
%TD*%
D18*
%TO.C,C8*%
X176250000Y-73250000D03*
X178750000Y-73250000D03*
%TD*%
D17*
%TO.C,J2*%
X97000000Y-71000000D03*
%TD*%
D18*
%TO.C,R5*%
X147000000Y-70170000D03*
X147000000Y-80330000D03*
%TD*%
D24*
%TO.C,Q1*%
X126730000Y-58860000D03*
D25*
X128000000Y-58860000D03*
X129270000Y-58860000D03*
%TD*%
D18*
%TO.C,R11*%
X167000000Y-67190000D03*
X167000000Y-77350000D03*
%TD*%
D28*
%TO.C,J3*%
X218500000Y-116000000D03*
%TD*%
D10*
%TO.C,R13*%
X184340000Y-59500000D03*
X214820000Y-59500000D03*
%TD*%
D28*
%TO.C,J9*%
X214000000Y-120000000D03*
%TD*%
D18*
%TO.C,R16*%
X138000000Y-63810000D03*
X138000000Y-53650000D03*
%TD*%
%TO.C,R9*%
X158000000Y-64340000D03*
X158000000Y-74500000D03*
%TD*%
D28*
%TO.C,J11*%
X218000000Y-124500000D03*
%TD*%
D18*
%TO.C,R1*%
X117000000Y-58190000D03*
X117000000Y-68350000D03*
%TD*%
D35*
%TO.C,BR1*%
X120500000Y-118400000D03*
D36*
X120500000Y-130000000D03*
X138500000Y-130000000D03*
X138500000Y-112000000D03*
%TD*%
D14*
%TO.C,REF\u002A\u002A*%
X99000000Y-152000000D03*
%TD*%
D15*
%TO.C,C17*%
X185000000Y-119894630D03*
D16*
X185000000Y-129894630D03*
%TD*%
D19*
%TO.C,Q6*%
X226750000Y-99000000D03*
D20*
X226750000Y-96720000D03*
X226750000Y-94440000D03*
%TD*%
D18*
%TO.C,R2*%
X113420000Y-71500000D03*
X123580000Y-71500000D03*
%TD*%
M02*
