M48
; DRILL file KiCad 10.0.6 date 2026-09-11T17:16:47
; FORMAT={-:-/ absolute / metric / decimal}
; #@! TF.CreationDate,2026-09-11T17:16:47+03:00
; #@! TF.GenerationSoftware,Kicad,Pcbnew,10.0.6
; #@! TF.FileFunction,Plated,1,2,PTH
FMAT,2
METRIC
; #@! TA.AperFunction,Plated,PTH,ViaDrill
T1C0.300
; #@! TA.AperFunction,Plated,PTH,ViaDrill
T2C0.400
; #@! TA.AperFunction,Plated,PTH,ComponentDrill
T3C0.700
; #@! TA.AperFunction,Plated,PTH,ComponentDrill
T4C0.750
; #@! TA.AperFunction,Plated,PTH,ComponentDrill
T5C0.800
; #@! TA.AperFunction,Plated,PTH,ComponentDrill
T6C0.900
; #@! TA.AperFunction,Plated,PTH,ComponentDrill
T7C1.000
; #@! TA.AperFunction,Plated,PTH,ComponentDrill
T8C1.100
; #@! TA.AperFunction,Plated,PTH,ComponentDrill
T9C1.200
; #@! TA.AperFunction,Plated,PTH,ComponentDrill
T10C1.300
; #@! TA.AperFunction,Plated,PTH,ComponentDrill
T11C1.524
; #@! TA.AperFunction,Plated,PTH,ComponentDrill
T12C4.400
%
G90
G05
T1
X111.5Y-76.25
T2
X75.75Y-99.0
T3
X38.38Y-113.75
X38.38Y-117.5
X38.38Y-121.25
X38.405Y-96.175
X38.465Y-99.925
X38.465Y-104.175
X46.0Y-113.75
X46.0Y-117.5
X46.0Y-121.25
X46.025Y-96.175
X46.085Y-99.925
X46.085Y-104.175
X48.19Y-117.5
X48.25Y-100.0
X51.63Y-129.0
X51.63Y-160.0
X55.81Y-117.5
X55.87Y-100.0
X59.25Y-129.0
X59.25Y-160.0
X95.0Y-167.75
X95.25Y-159.75
X95.25Y-176.0
X95.5Y-184.0
X95.5Y-192.0
X99.5Y-140.25
X102.62Y-167.75
X102.87Y-159.75
X102.87Y-176.0
X103.12Y-184.0
X103.12Y-192.0
X107.12Y-140.25
X113.5Y-140.25
X116.63Y-60.25
X116.63Y-62.5
X116.88Y-72.5
X116.88Y-74.75
X121.12Y-140.25
X124.25Y-60.25
X124.25Y-62.5
X124.5Y-72.5
X124.5Y-74.75
T4
X48.25Y-158.75
X48.25Y-160.02
X48.25Y-161.29
X48.322Y-127.667
X48.322Y-128.938
X48.322Y-130.207
T5
X48.19Y-121.5
X48.465Y-96.0
X48.465Y-103.925
X48.69Y-113.5
X55.81Y-121.5
X56.085Y-96.0
X56.085Y-103.925
X56.31Y-113.5
X61.75Y-116.818
X61.75Y-119.318
X62.025Y-100.493
X62.025Y-102.993
X68.75Y-115.75
X68.75Y-120.75
X68.775Y-98.925
X68.775Y-103.925
X128.5Y-31.324
X128.5Y-36.324
X129.0Y-43.324
X130.432Y-49.824
X132.932Y-49.824
X134.0Y-43.324
T6
X106.83Y-176.0
X106.83Y-184.0
X106.85Y-167.75
X106.85Y-192.0
X107.08Y-159.75
X109.37Y-176.0
X109.37Y-184.0
X109.39Y-167.75
X109.39Y-192.0
X109.62Y-159.75
T7
X97.75Y-90.75
X97.75Y-93.29
X97.75Y-95.83
X97.75Y-98.37
X97.75Y-100.91
X97.75Y-103.45
X97.75Y-105.99
X97.75Y-108.53
X97.75Y-111.07
X97.75Y-113.61
X97.75Y-116.15
X97.75Y-118.69
X97.75Y-121.23
X97.75Y-123.77
X97.75Y-126.31
X102.225Y-32.205
X102.225Y-37.285
X107.305Y-32.205
X107.305Y-37.285
X112.99Y-90.75
X112.99Y-93.29
X112.99Y-95.83
X112.99Y-98.37
X112.99Y-100.91
X112.99Y-103.45
X112.99Y-105.99
X112.99Y-108.53
X112.99Y-111.07
X112.99Y-113.61
X112.99Y-116.15
X112.99Y-118.69
X112.99Y-121.23
X112.99Y-123.77
X112.99Y-126.31
T8
X38.712Y-133.528
X38.712Y-143.688
X38.75Y-165.17
X38.75Y-175.33
X100.0Y-145.0
X100.0Y-149.5
X106.5Y-145.0
X106.5Y-149.5
X114.0Y-145.0
X114.0Y-149.5
X120.5Y-145.0
X120.5Y-149.5
X133.55Y-33.284
X133.55Y-35.824
X133.55Y-38.364
T9
X118.75Y-31.5
X118.75Y-36.5
T10
X44.462Y-134.938
X44.462Y-142.438
X44.462Y-166.188
X44.462Y-173.688
X64.462Y-134.938
X64.462Y-142.438
X64.462Y-166.188
X64.462Y-173.688
X69.462Y-134.938
X69.462Y-142.438
X69.462Y-166.188
X69.462Y-173.688
X132.5Y-59.0
X132.5Y-64.0
X132.5Y-71.0
X132.5Y-76.0
T11
X47.017Y-39.36
X47.017Y-46.091
X47.017Y-55.362
X47.017Y-62.093
X80.037Y-39.36
X80.037Y-46.091
X80.037Y-55.362
X80.037Y-62.093
T12
X23.0Y-43.25
X23.0Y-55.25
X28.25Y-169.75
X29.25Y-137.25
X29.5Y-99.5
X29.5Y-116.25
M30
